# Coarse convex scoop prism generated from adjacent fine prisms
# Source fine prisms: 14,39
v 0.0379248560 -0.0080168388 -0.0034200558
v 0.0411706160 -0.0079862917 -0.0034227904
v 0.0379254440 -0.0052008346 -0.0051225738
v 0.0378957864 -0.0082849926 -0.0037676885
v 0.0411948541 -0.0082496302 -0.0037744513
v 0.0379016975 -0.0053822270 -0.0055227399
v 0.0411538560 -0.0051817463 -0.0051323247
v 0.0411783977 -0.0053779735 -0.0055253802
f 8 5 4
f 6 8 4
f 6 8 7
f 2 5 4
f 2 8 5
f 2 8 7
f 3 6 4
f 3 6 7
f 3 2 7
f 1 2 4
f 1 3 4
f 1 3 2
