# Coarse convex scoop prism generated from adjacent fine prisms
# Source fine prisms: 64,172
v 0.0475567790 0.0048964931 -0.0043420294
v 0.0444946030 0.0053463500 -0.0047045048
v 0.0446152380 0.0028062481 -0.0056686794
v 0.0476528715 0.0050951228 -0.0047227031
v 0.0445535875 0.0055568477 -0.0050863576
v 0.0446702767 0.0029279404 -0.0060879189
v 0.0475026560 0.0024721882 -0.0052792744
v 0.0475889604 0.0025796694 -0.0056971253
f 5 6 2
f 5 6 4
f 1 7 2
f 1 7 4
f 1 5 2
f 1 5 4
f 3 7 2
f 3 6 2
f 8 7 4
f 8 6 4
f 8 3 7
f 8 3 6
