# Coarse convex scoop prism generated from adjacent fine prisms
# Source fine prisms: 51,53
v 0.0563480710 -0.0059276507 0.0006712319
v 0.0535379300 -0.0052034144 -0.0018635357
v 0.0561156790 -0.0068038165 0.0011332322
v 0.0565620497 -0.0061641218 0.0003680908
v 0.0537183327 -0.0054371403 -0.0021897673
v 0.0563160711 -0.0070450445 0.0008246028
v 0.0580242120 -0.0051086740 0.0012291854
v 0.0582317015 -0.0053594000 0.0009330696
f 5 6 8
f 3 6 8
f 3 5 2
f 3 5 6
f 7 3 8
f 7 5 2
f 7 5 8
f 1 3 2
f 1 7 2
f 1 7 3
