# Coarse convex scoop prism generated from adjacent fine prisms
# Source fine prisms: 147,194
v 0.0252131310 -0.0048785325 0.0006367183
v 0.0285449430 -0.0045421014 -0.0023569890
v 0.0282731610 -0.0023297083 -0.0030091438
v 0.0249481508 -0.0050537194 0.0003322597
v 0.0283178823 -0.0047136687 -0.0026925603
v 0.0280302295 -0.0024268298 -0.0033629117
v 0.0249835580 -0.0024831362 -0.0004025741
v 0.0247064895 -0.0026018385 -0.0007231093
f 1 4 8
f 3 1 2
f 5 4 8
f 5 3 2
f 5 1 2
f 5 1 4
f 7 1 8
f 7 3 1
f 6 5 8
f 6 5 3
f 6 7 8
f 6 7 3
