# Coarse convex scoop prism generated from adjacent fine prisms
# Source fine prisms: 49,234
v 0.0250932080 0.0070754809 0.0023140012
v 0.0257015600 0.0070403190 0.0017712813
v 0.0286305390 0.0095198576 0.0013248182
v 0.0248408506 0.0072911944 0.0020252393
v 0.0254560818 0.0072605510 0.0014800111
v 0.0284229959 0.0097636766 0.0010230266
v 0.0287979860 0.0091078628 0.0008832578
v 0.0285941076 0.0093580254 0.0005841720
f 2 1 4
f 2 1 7
f 3 6 4
f 3 1 4
f 3 1 7
f 3 8 7
f 3 8 6
f 5 2 7
f 5 8 7
f 5 2 4
f 5 6 4
f 5 8 6
