# Coarse convex scoop prism generated from adjacent fine prisms
# Source fine prisms: 183,184
v 0.0506769630 -0.0000096682 -0.0048892918
v 0.0507350090 0.0022877497 -0.0045565643
v 0.0474339410 -0.0000076557 -0.0055956850
v 0.0507887867 -0.0000219046 -0.0053146690
v 0.0508531537 0.0023870189 -0.0049686170
v 0.0475150395 -0.0000046403 -0.0060281361
v 0.0475026560 0.0024721882 -0.0052792744
v 0.0475889604 0.0025796694 -0.0056971253
f 4 8 5
f 6 4 3
f 6 4 8
f 2 8 5
f 7 2 3
f 7 2 8
f 7 6 3
f 7 6 8
f 1 4 5
f 1 2 5
f 1 4 3
f 1 2 3
