# Coarse convex scoop prism generated from adjacent fine prisms
# Source fine prisms: 201,236
v 0.0285515360 0.0022976851 -0.0031956307
v 0.0317035480 0.0001436929 -0.0050150781
v 0.0314705750 0.0026025986 -0.0046240819
v 0.0283221333 0.0023741982 -0.0035632176
v 0.0315447133 0.0001614456 -0.0054250249
v 0.0313033424 0.0027078504 -0.0050172171
v 0.0285535590 -0.0000389327 -0.0034689618
v 0.0283307111 -0.0000479323 -0.0038482477
f 5 8 2
f 6 8 4
f 6 5 8
f 1 6 4
f 7 8 2
f 7 1 2
f 7 8 4
f 7 1 4
f 3 1 2
f 3 1 6
f 3 5 2
f 3 6 5
