# Coarse convex scoop prism generated from adjacent fine prisms
# Source fine prisms: 142,143
v 0.0444759960 -0.0050427430 -0.0048712691
v 0.0474813640 -0.0073448703 -0.0027298195
v 0.0475511960 -0.0048905080 -0.0043446767
v 0.0445347870 -0.0052325636 -0.0052638398
v 0.0475841169 -0.0076084078 -0.0030668504
v 0.0476460995 -0.0050901528 -0.0047251176
v 0.0445377200 -0.0077297945 -0.0031771761
v 0.0446033337 -0.0079928961 -0.0035236907
f 4 8 6
f 3 2 1
f 3 4 1
f 3 4 6
f 7 2 1
f 7 4 1
f 7 4 8
f 5 8 6
f 5 3 6
f 5 3 2
f 5 7 8
f 5 7 2
