# Coarse convex scoop prism generated from adjacent fine prisms
# Source fine prisms: 150,225
v 0.0284816620 0.0046957675 -0.0022436015
v 0.0285515360 0.0022976851 -0.0031956307
v 0.0314705750 0.0026025986 -0.0046240819
v 0.0282513328 0.0048703709 -0.0025753576
v 0.0283221333 0.0023741982 -0.0035632176
v 0.0313033424 0.0027078504 -0.0050172171
v 0.0316953170 0.0049894900 -0.0038384879
v 0.0315388973 0.0051717433 -0.0042071566
f 1 5 4
f 1 5 2
f 8 1 4
f 8 1 7
f 8 5 4
f 8 5 6
f 3 1 7
f 3 1 2
f 3 8 7
f 3 8 6
f 3 5 2
f 3 5 6
