# Coarse convex scoop prism generated from adjacent fine prisms
# Source fine prisms: 31,32
v 0.0476737630 -0.0024664433 -0.0052504058
v 0.0507280780 -0.0048512856 -0.0034350793
v 0.0508746380 -0.0024138542 -0.0044717395
v 0.0477657378 -0.0025758994 -0.0056665308
v 0.0508588693 -0.0050551542 -0.0038024092
v 0.0510084882 -0.0025418312 -0.0048708711
v 0.0475511960 -0.0048905080 -0.0043446767
v 0.0476460995 -0.0050901528 -0.0047251176
f 8 4 7
f 8 4 6
f 5 8 7
f 5 8 6
f 3 4 6
f 3 5 6
f 1 4 7
f 1 3 4
f 2 5 7
f 2 3 5
f 2 1 7
f 2 1 3
