# Coarse convex scoop prism generated from adjacent fine prisms
# Source fine prisms: 6,38
v 0.0359183950 0.0122771960 0.0004613881
v 0.0323299790 0.0113741030 0.0007516247
v 0.0347593240 0.0105913420 -0.0005946508
v 0.0358614638 0.0125483156 0.0001195505
v 0.0322022984 0.0116352791 0.0004213449
v 0.0346801342 0.0108673230 -0.0009280626
v 0.0317910030 0.0098722707 -0.0001751220
v 0.0316462877 0.0101402640 -0.0004926705
f 7 2 8
f 7 2 1
f 3 7 1
f 5 2 8
f 5 2 1
f 4 3 1
f 4 5 1
f 6 4 3
f 6 7 8
f 6 3 7
f 6 5 8
f 6 4 5
