# Coarse convex scoop prism generated from adjacent fine prisms
# Source fine prisms: 189,190
v 0.0505908480 -0.0073040345 -0.0015826706
v 0.0505263980 -0.0092384955 0.0001973907
v 0.0534019650 -0.0085353835 0.0009470224
v 0.0507321607 -0.0075687766 -0.0019044506
v 0.0506564121 -0.0095136785 -0.0001203681
v 0.0535649388 -0.0087971399 0.0006331384
v 0.0503320330 -0.0100734360 0.0007636442
v 0.0504584688 -0.0103328652 0.0004315140
f 8 6 7
f 8 1 7
f 4 1 6
f 4 8 6
f 4 8 1
f 3 6 7
f 3 1 6
f 2 1 7
f 2 3 7
f 2 3 1
