# Coarse convex scoop prism generated from adjacent fine prisms
# Source fine prisms: 229,230
v 0.0347551900 0.0024641342 -0.0056259881
v 0.0316953170 0.0049894900 -0.0038384879
v 0.0314705750 0.0026025986 -0.0046240819
v 0.0346625066 0.0025505899 -0.0060473374
v 0.0315388973 0.0051717433 -0.0042071566
v 0.0313033424 0.0027078504 -0.0050172171
v 0.0347935080 0.0051065189 -0.0047431057
v 0.0347065110 0.0052897137 -0.0051335813
f 2 1 7
f 5 2 6
f 5 2 7
f 8 1 7
f 8 5 6
f 8 5 7
f 3 2 6
f 3 2 1
f 4 8 6
f 4 8 1
f 4 3 6
f 4 3 1
