# Coarse convex scoop prism generated from adjacent fine prisms
# Source fine prisms: 36,137
v 0.0444946030 0.0053463500 -0.0047045048
v 0.0411538930 0.0051819836 -0.0051327305
v 0.0446152380 0.0028062481 -0.0056686794
v 0.0445535875 0.0055568477 -0.0050863576
v 0.0411732762 0.0053566220 -0.0055361232
v 0.0446702767 0.0029279404 -0.0060879189
v 0.0412479760 0.0025752478 -0.0060215647
v 0.0412695845 0.0026622673 -0.0064523323
f 1 4 2
f 7 1 2
f 5 4 2
f 5 4 6
f 3 7 1
f 3 4 6
f 3 1 4
f 8 5 6
f 8 3 6
f 8 3 7
f 8 7 2
f 8 5 2
