# Coarse convex scoop prism generated from adjacent fine prisms
# Source fine prisms: 63,123
v 0.0537564110 0.0052646408 -0.0016994014
v 0.0504061010 0.0072136224 -0.0017414360
v 0.0509463570 0.0046571276 -0.0034647117
v 0.0539414230 0.0055083639 -0.0020155811
v 0.0505450124 0.0074800836 -0.0020628423
v 0.0510758994 0.0048609815 -0.0038324920
v 0.0538868780 0.0025949134 -0.0033309745
v 0.0540605576 0.0027606169 -0.0036997261
f 6 5 2
f 7 1 2
f 4 1 2
f 4 5 2
f 4 7 8
f 4 7 1
f 4 6 8
f 4 6 5
f 3 6 8
f 3 7 8
f 3 6 2
f 3 7 2
