# Coarse convex scoop prism generated from adjacent fine prisms
# Source fine prisms: 186,187
v 0.0347930990 -0.0001608042 -0.0058850971
v 0.0377763070 -0.0025851227 -0.0060072850
v 0.0379250540 -0.0000055738 -0.0062788411
v 0.0347049797 -0.0001789685 -0.0063158001
v 0.0377408151 -0.0026716166 -0.0064372375
v 0.0378967511 -0.0000057384 -0.0067179298
v 0.0345775780 -0.0028292761 -0.0055022405
v 0.0344886814 -0.0029445112 -0.0059174733
f 4 7 8
f 5 4 8
f 5 4 6
f 1 7 3
f 1 4 7
f 1 6 3
f 1 4 6
f 2 7 3
f 2 6 3
f 2 5 6
f 2 7 8
f 2 5 8
