# Coarse convex scoop prism generated from adjacent fine prisms
# Source fine prisms: 145,148
v 0.0250983830 -0.0070689265 0.0023156761
v 0.0252131310 -0.0048785325 0.0006367183
v 0.0225663100 -0.0050893938 0.0031966419
v 0.0248461621 -0.0072863613 0.0020280883
v 0.0249481508 -0.0050537194 0.0003322597
v 0.0222931938 -0.0052651223 0.0028997799
v 0.0222319950 -0.0040801300 0.0030307920
v 0.0219496302 -0.0042328380 0.0027298761
f 5 2 8
f 5 4 2
f 7 2 8
f 6 5 8
f 6 5 4
f 1 4 2
f 1 7 2
f 3 1 7
f 3 7 8
f 3 6 8
f 3 6 4
f 3 1 4
