# Coarse convex scoop prism generated from adjacent fine prisms
# Source fine prisms: 181,182
v 0.0507350090 0.0022877497 -0.0045565643
v 0.0506769630 -0.0000096682 -0.0048892918
v 0.0537819640 0.0000446542 -0.0039027360
v 0.0508531537 0.0023870189 -0.0049686170
v 0.0507887867 -0.0000219046 -0.0053146690
v 0.0539446364 0.0000446548 -0.0043115608
v 0.0538868780 0.0025949134 -0.0033309745
v 0.0540605576 0.0027606169 -0.0036997261
f 4 6 8
f 4 6 5
f 3 7 2
f 3 5 2
f 3 6 5
f 3 7 8
f 3 6 8
f 1 5 2
f 1 4 5
f 1 7 2
f 1 7 8
f 1 4 8
