# Coarse convex scoop prism generated from adjacent fine prisms
# Source fine prisms: 35,78
v 0.0411538930 0.0051819836 -0.0051327305
v 0.0444946030 0.0053463500 -0.0047045048
v 0.0411704290 0.0079869488 -0.0034235710
v 0.0411732762 0.0053566220 -0.0055361232
v 0.0445535875 0.0055568477 -0.0050863576
v 0.0411971778 0.0082474720 -0.0037771416
v 0.0445642880 0.0080167828 -0.0029232221
v 0.0446329779 0.0082910886 -0.0032603245
f 2 7 1
f 2 4 1
f 2 7 8
f 3 7 8
f 3 6 8
f 3 7 1
f 3 4 1
f 3 6 4
f 5 2 8
f 5 2 4
f 5 6 8
f 5 6 4
