# Coarse convex scoop prism generated from adjacent fine prisms
# Source fine prisms: 105,206
v 0.0252414170 0.0000186351 -0.0010320227
v 0.0219274190 0.0021339629 0.0022846870
v 0.0218565670 0.0000268633 0.0019475869
v 0.0249623408 0.0000190594 -0.0013721937
v 0.0216384934 0.0022253385 0.0019656690
v 0.0215658393 0.0000270949 0.0016173183
v 0.0251408810 0.0025447191 -0.0005306940
v 0.0248656691 0.0026655376 -0.0008520370
f 4 1 6
f 4 8 6
f 4 8 1
f 3 1 6
f 3 2 6
f 3 2 1
f 5 8 6
f 5 2 6
f 5 2 8
f 7 8 1
f 7 2 1
f 7 2 8
