# Coarse convex scoop prism generated from adjacent fine prisms
# Source fine prisms: 66,67
v 0.0475567790 0.0048964931 -0.0043420294
v 0.0504061010 0.0072136224 -0.0017414360
v 0.0471851440 0.0072633718 -0.0029105863
v 0.0476528715 0.0050951228 -0.0047227031
v 0.0505450124 0.0074800836 -0.0020628423
v 0.0472820974 0.0075223060 -0.0032528627
v 0.0509463570 0.0046571276 -0.0034647117
v 0.0510758994 0.0048609815 -0.0038324920
f 1 2 3
f 5 2 3
f 5 6 3
f 5 6 8
f 7 1 2
f 7 5 8
f 7 5 2
f 4 6 8
f 4 7 8
f 4 7 1
f 4 6 3
f 4 1 3
