# Coarse convex scoop prism generated from adjacent fine prisms
# Source fine prisms: 164,167
v 0.0597763220 0.0000100364 0.0004837165
v 0.0597718210 -0.0013325365 0.0008181673
v 0.0600296230 0.0000123351 0.0008629027
v 0.0601340467 0.0000105602 0.0002275276
v 0.0601121251 -0.0013991725 0.0005473301
v 0.0603797307 0.0000123926 0.0005963984
v 0.0585601580 -0.0000039588 -0.0011025667
v 0.0588816895 -0.0000027424 -0.0014029265
f 8 5 7
f 2 5 7
f 4 5 6
f 4 8 5
f 1 8 7
f 1 4 8
f 3 5 6
f 3 2 5
f 3 4 6
f 3 1 4
f 3 2 7
f 3 1 7
