# Coarse convex scoop prism generated from adjacent fine prisms
# Source fine prisms: 151,155
v 0.0347940030 0.0078301065 -0.0030812499
v 0.0379253840 0.0052013002 -0.0051236344
v 0.0379248670 0.0080167387 -0.0034198839
v 0.0347087767 0.0080871551 -0.0034280387
v 0.0378987054 0.0054014613 -0.0055145612
v 0.0378998351 0.0082902074 -0.0037636691
v 0.0347935080 0.0051065189 -0.0047431057
v 0.0347065110 0.0052897137 -0.0051335813
f 4 6 8
f 4 1 8
f 4 1 6
f 5 2 8
f 5 6 8
f 5 6 2
f 7 2 8
f 7 1 8
f 7 1 2
f 3 6 2
f 3 1 2
f 3 1 6
