# Coarse convex scoop prism generated from adjacent fine prisms
# Source fine prisms: 203,204
v 0.0251408810 0.0025447191 -0.0005306940
v 0.0284816620 0.0046957675 -0.0022436015
v 0.0250754740 0.0049389301 0.0008080422
v 0.0248656691 0.0026655376 -0.0008520370
v 0.0282513328 0.0048703709 -0.0025753576
v 0.0248094871 0.0051234374 0.0005100355
v 0.0285515360 0.0022976851 -0.0031956307
v 0.0283221333 0.0023741982 -0.0035632176
f 5 8 7
f 4 3 6
f 4 5 6
f 4 5 8
f 2 3 7
f 2 5 7
f 2 3 6
f 2 5 6
f 1 3 7
f 1 4 3
f 1 8 7
f 1 4 8
