# Coarse convex scoop prism generated from adjacent fine prisms
# Source fine prisms: 5,45
v 0.0256735180 -0.0070182290 0.0017814482
v 0.0250983830 -0.0070689265 0.0023156761
v 0.0286293990 -0.0095038772 0.0013149479
v 0.0254276653 -0.0072387508 0.0014907136
v 0.0248461621 -0.0072863613 0.0020280883
v 0.0284198246 -0.0097483932 0.0010151304
v 0.0286884950 -0.0090656845 0.0009264899
v 0.0284828875 -0.0093140486 0.0006270891
f 4 6 5
f 3 6 5
f 3 2 5
f 3 2 7
f 8 4 7
f 8 4 6
f 8 3 7
f 8 3 6
f 1 2 7
f 1 4 7
f 1 2 5
f 1 4 5
