# Coarse convex scoop prism generated from adjacent fine prisms
# Source fine prisms: 193,237
v 0.0252414170 0.0000186351 -0.0010320227
v 0.0249835580 -0.0024831362 -0.0004025741
v 0.0282731610 -0.0023297083 -0.0030091438
v 0.0249623408 0.0000190594 -0.0013721937
v 0.0247064895 -0.0026018385 -0.0007231093
v 0.0280302295 -0.0024268298 -0.0033629117
v 0.0285535590 -0.0000389327 -0.0034689618
v 0.0283307111 -0.0000479323 -0.0038482477
f 8 4 7
f 6 4 5
f 6 8 4
f 2 4 5
f 3 8 7
f 3 6 8
f 3 2 7
f 3 6 5
f 3 2 5
f 1 4 7
f 1 2 7
f 1 2 4
