# Coarse convex scoop prism generated from adjacent fine prisms
# Source fine prisms: 207,208
v 0.0251408810 0.0025447191 -0.0005306940
v 0.0222373150 0.0040284954 0.0029907122
v 0.0219274190 0.0021339629 0.0022846870
v 0.0248656691 0.0026655376 -0.0008520370
v 0.0219560024 0.0041862423 0.0026914144
v 0.0216384934 0.0022253385 0.0019656690
v 0.0250754740 0.0049389301 0.0008080422
v 0.0248094871 0.0051234374 0.0005100355
f 4 1 6
f 4 8 1
f 3 1 6
f 3 2 6
f 5 2 6
f 5 2 8
f 5 4 6
f 5 4 8
f 7 8 1
f 7 2 8
f 7 3 1
f 7 3 2
