# Coarse convex scoop prism generated from adjacent fine prisms
# Source fine prisms: 10,152
v 0.0379248670 0.0080167387 -0.0034198839
v 0.0379091210 0.0107638190 -0.0009312268
v 0.0347593240 0.0105913420 -0.0005946508
v 0.0378998351 0.0082902074 -0.0037636691
v 0.0378854361 0.0110430359 -0.0012704567
v 0.0346801342 0.0108673230 -0.0009280626
v 0.0347940030 0.0078301065 -0.0030812499
v 0.0347087767 0.0080871551 -0.0034280387
f 4 5 6
f 4 5 1
f 8 4 6
f 8 4 1
f 2 5 1
f 7 8 1
f 7 2 1
f 3 7 2
f 3 5 6
f 3 2 5
f 3 8 6
f 3 7 8
