# Coarse convex scoop prism generated from adjacent fine prisms
# Source fine prisms: 220,221
v 0.0317035480 0.0001436929 -0.0050150781
v 0.0347551900 0.0024641342 -0.0056259881
v 0.0314705750 0.0026025986 -0.0046240819
v 0.0315447133 0.0001614456 -0.0054250249
v 0.0346625066 0.0025505899 -0.0060473374
v 0.0313033424 0.0027078504 -0.0050172171
v 0.0347930990 -0.0001608042 -0.0058850971
v 0.0347049797 -0.0001789685 -0.0063158001
f 4 5 6
f 4 5 8
f 2 8 7
f 2 5 8
f 2 3 7
f 2 3 6
f 2 5 6
f 1 3 6
f 1 4 6
f 1 3 7
f 1 8 7
f 1 4 8
