# Coarse convex scoop prism generated from adjacent fine prisms
# Source fine prisms: 11,12
v 0.0412285570 0.0107235120 -0.0009288275
v 0.0379248670 0.0080167387 -0.0034198839
v 0.0411704290 0.0079869488 -0.0034235710
v 0.0412510744 0.0110060595 -0.0012653686
v 0.0378998351 0.0082902074 -0.0037636691
v 0.0411971778 0.0082474720 -0.0037771416
v 0.0379091210 0.0107638190 -0.0009312268
v 0.0378854361 0.0110430359 -0.0012704567
f 6 4 8
f 5 6 8
f 1 6 4
f 1 6 3
f 7 4 8
f 7 1 4
f 7 5 8
f 2 7 5
f 2 6 3
f 2 5 6
f 2 1 3
f 2 7 1
