# Coarse convex scoop prism generated from adjacent fine prisms
# Source fine prisms: 18,48
v 0.0347797810 -0.0053982884 -0.0045861491
v 0.0379248560 -0.0080168388 -0.0034200558
v 0.0379254440 -0.0052008346 -0.0051225738
v 0.0346939987 -0.0056018523 -0.0049666792
v 0.0378957864 -0.0082849926 -0.0037676885
v 0.0379016975 -0.0053822270 -0.0055227399
v 0.0347765390 -0.0081020639 -0.0028459782
v 0.0346855893 -0.0083686330 -0.0031840153
f 5 7 8
f 4 5 8
f 4 5 6
f 2 7 3
f 2 5 7
f 2 6 3
f 2 5 6
f 1 7 8
f 1 4 8
f 1 7 3
f 1 6 3
f 1 4 6
