# Coarse convex scoop prism generated from adjacent fine prisms
# Source fine prisms: 61,141
v 0.0505908480 -0.0073040345 -0.0015826706
v 0.0507280780 -0.0048512856 -0.0034350793
v 0.0475511960 -0.0048905080 -0.0043446767
v 0.0507321607 -0.0075687766 -0.0019044506
v 0.0508588693 -0.0050551542 -0.0038024092
v 0.0476460995 -0.0050901528 -0.0047251176
v 0.0474813640 -0.0073448703 -0.0027298195
v 0.0475841169 -0.0076084078 -0.0030668504
f 8 6 7
f 8 6 5
f 4 8 7
f 4 8 5
f 2 6 5
f 2 4 5
f 3 6 7
f 3 2 6
f 1 4 7
f 1 2 4
f 1 3 7
f 1 3 2
