# Coarse convex scoop prism generated from adjacent fine prisms
# Source fine prisms: 215,216
v 0.0562359740 -0.0042587670 -0.0008304588
v 0.0539190470 -0.0024235423 -0.0033812813
v 0.0535379300 -0.0052034144 -0.0018635357
v 0.0564528748 -0.0044883753 -0.0011367822
v 0.0540925153 -0.0025861858 -0.0037514918
v 0.0537183327 -0.0054371403 -0.0021897673
v 0.0564347170 -0.0021337130 -0.0021780919
v 0.0566638573 -0.0022867992 -0.0025211070
f 6 5 3
f 6 5 8
f 4 6 3
f 4 6 8
f 2 5 3
f 2 5 8
f 1 4 8
f 1 4 3
f 1 2 3
f 7 2 8
f 7 1 8
f 7 1 2
