# Coarse convex scoop prism generated from adjacent fine prisms
# Source fine prisms: 33,44
v 0.0475511960 -0.0048905080 -0.0043446767
v 0.0476737630 -0.0024664433 -0.0052504058
v 0.0444778320 -0.0024305235 -0.0057811179
v 0.0476460995 -0.0050901528 -0.0047251176
v 0.0477657378 -0.0025758994 -0.0056665308
v 0.0445326021 -0.0025204853 -0.0062083264
v 0.0444759960 -0.0050427430 -0.0048712691
v 0.0445347870 -0.0052325636 -0.0052638398
f 1 3 7
f 4 1 7
f 8 4 7
f 8 4 5
f 2 1 3
f 2 4 5
f 2 4 1
f 6 8 5
f 6 2 5
f 6 2 3
f 6 3 7
f 6 8 7
