# Coarse convex scoop prism generated from adjacent fine prisms
# Source fine prisms: 121,122
v 0.0564200020 0.0039794926 -0.0009113208
v 0.0538868780 0.0025949134 -0.0033309745
v 0.0565500630 0.0019404326 -0.0022091302
v 0.0566331943 0.0042133704 -0.0012170171
v 0.0540605576 0.0027606169 -0.0036997261
v 0.0567835169 0.0020881231 -0.0025516018
v 0.0537564110 0.0052646408 -0.0016994014
v 0.0539414230 0.0055083639 -0.0020155811
f 8 5 7
f 8 5 6
f 4 8 7
f 4 8 6
f 2 5 7
f 2 5 6
f 1 4 6
f 1 4 7
f 1 2 7
f 3 2 6
f 3 1 6
f 3 1 2
