# Coarse convex scoop prism generated from adjacent fine prisms
# Source fine prisms: 40,41
v 0.0379252760 -0.0108199970 -0.0008864873
v 0.0412164860 -0.0107513350 -0.0009068128
v 0.0379248560 -0.0080168388 -0.0034200558
v 0.0379015123 -0.0110973161 -0.0012272650
v 0.0412394255 -0.0110334723 -0.0012436693
v 0.0378957864 -0.0082849926 -0.0037676885
v 0.0411706160 -0.0079862917 -0.0034227904
v 0.0411948541 -0.0082496302 -0.0037744513
f 4 1 6
f 4 1 5
f 4 8 6
f 4 8 5
f 3 1 6
f 3 8 6
f 3 8 7
f 2 1 5
f 2 8 5
f 2 8 7
f 2 3 7
f 2 3 1
