# Coarse convex scoop prism generated from adjacent fine prisms
# Source fine prisms: 212,217
v 0.0564347170 -0.0021337130 -0.0021780919
v 0.0564712410 -0.0000530239 -0.0027399550
v 0.0537819640 0.0000446542 -0.0039027360
v 0.0566638573 -0.0022867992 -0.0025211070
v 0.0567181378 -0.0000573995 -0.0031041292
v 0.0539446364 0.0000446548 -0.0043115608
v 0.0539190470 -0.0024235423 -0.0033812813
v 0.0540925153 -0.0025861858 -0.0037514918
f 4 8 5
f 4 1 5
f 4 1 8
f 6 8 5
f 2 1 3
f 2 1 5
f 2 6 3
f 2 6 5
f 7 1 3
f 7 1 8
f 7 6 3
f 7 6 8
