# Coarse convex scoop prism generated from adjacent fine prisms
# Source fine prisms: 86,135
v 0.0411428940 0.0000063727 -0.0062893034
v 0.0380731710 0.0025829548 -0.0060228620
v 0.0379250540 -0.0000055738 -0.0062788411
v 0.0411592928 0.0000066935 -0.0067289976
v 0.0380496012 0.0026834793 -0.0064505760
v 0.0378967511 -0.0000057384 -0.0067179298
v 0.0412479760 0.0025752478 -0.0060215647
v 0.0412695845 0.0026622673 -0.0064523323
f 5 4 6
f 5 4 8
f 5 7 8
f 5 2 7
f 1 4 6
f 1 4 8
f 1 7 8
f 3 2 7
f 3 1 7
f 3 1 6
f 3 5 6
f 3 5 2
