# Coarse convex scoop prism generated from adjacent fine prisms
# Source fine prisms: 79,132
v 0.0347797810 -0.0053982884 -0.0045861491
v 0.0345775780 -0.0028292761 -0.0055022405
v 0.0317036610 -0.0047632563 -0.0039593076
v 0.0346939987 -0.0056018523 -0.0049666792
v 0.0344886814 -0.0029445112 -0.0059174733
v 0.0315457699 -0.0049404815 -0.0043297959
v 0.0317598420 -0.0023078880 -0.0048009537
v 0.0315953752 -0.0023906986 -0.0052005699
f 4 5 6
f 4 5 1
f 3 7 1
f 3 4 6
f 3 4 1
f 8 5 6
f 8 3 6
f 8 3 7
f 2 7 1
f 2 5 1
f 2 8 7
f 2 8 5
