# Coarse convex scoop prism generated from adjacent fine prisms
# Source fine prisms: 80,81
v 0.0345775780 -0.0028292761 -0.0055022405
v 0.0347797810 -0.0053982884 -0.0045861491
v 0.0379254440 -0.0052008346 -0.0051225738
v 0.0344886814 -0.0029445112 -0.0059174733
v 0.0346939987 -0.0056018523 -0.0049666792
v 0.0379016975 -0.0053822270 -0.0055227399
v 0.0377763070 -0.0025851227 -0.0060072850
v 0.0377408151 -0.0026716166 -0.0064372375
f 2 5 3
f 7 2 3
f 6 5 4
f 6 5 3
f 6 7 3
f 1 7 2
f 1 5 4
f 1 2 5
f 8 6 4
f 8 6 7
f 8 1 4
f 8 1 7
