# Coarse convex scoop prism generated from adjacent fine prisms
# Source fine prisms: 231,233
v 0.0287979860 0.0091078628 0.0008832578
v 0.0284728060 0.0070536401 -0.0006141338
v 0.0316926220 0.0075026848 -0.0022460569
v 0.0285941076 0.0093580254 0.0005841720
v 0.0282583422 0.0072813988 -0.0009235385
v 0.0315395594 0.0077481537 -0.0025775940
v 0.0317910030 0.0098722707 -0.0001751220
v 0.0316462877 0.0101402640 -0.0004926705
f 4 6 5
f 4 8 6
f 3 6 5
f 3 8 7
f 3 8 6
f 1 8 7
f 1 4 8
f 1 4 5
f 2 3 7
f 2 1 7
f 2 3 5
f 2 1 5
