# Coarse convex scoop prism generated from adjacent fine prisms
# Source fine prisms: 175,177
v 0.0537564110 0.0052646408 -0.0016994014
v 0.0562893230 0.0057919535 0.0005102884
v 0.0560297880 0.0068626344 0.0011284521
v 0.0539414230 0.0055083639 -0.0020155811
v 0.0565050112 0.0060301766 0.0002097416
v 0.0561782541 0.0070434216 0.0007557943
v 0.0579840060 0.0051425611 0.0012289488
v 0.0581035509 0.0053255086 0.0008470597
f 4 8 1
f 3 4 1
f 3 4 6
f 5 6 8
f 5 4 8
f 5 4 6
f 2 3 1
f 7 6 8
f 7 3 6
f 7 2 3
f 7 8 1
f 7 2 1
