# Coarse convex scoop prism generated from adjacent fine prisms
# Source fine prisms: 113,219
v 0.0537819640 0.0000446542 -0.0039027360
v 0.0506769630 -0.0000096682 -0.0048892918
v 0.0508746380 -0.0024138542 -0.0044717395
v 0.0539446364 0.0000446548 -0.0043115608
v 0.0507887867 -0.0000219046 -0.0053146690
v 0.0510084882 -0.0025418312 -0.0048708711
v 0.0539190470 -0.0024235423 -0.0033812813
v 0.0540925153 -0.0025861858 -0.0037514918
f 5 4 2
f 6 4 8
f 6 5 4
f 1 4 2
f 1 4 8
f 3 5 2
f 3 6 5
f 3 6 8
f 7 1 8
f 7 3 8
f 7 1 2
f 7 3 2
