# Coarse convex scoop prism generated from adjacent fine prisms
# Source fine prisms: 188,192
v 0.0474813640 -0.0073448703 -0.0027298195
v 0.0505263980 -0.0092384955 0.0001973907
v 0.0505908480 -0.0073040345 -0.0015826706
v 0.0475841169 -0.0076084078 -0.0030668504
v 0.0506564121 -0.0095136785 -0.0001203681
v 0.0507321607 -0.0075687766 -0.0019044506
v 0.0473125430 -0.0098494611 -0.0004551577
v 0.0474145182 -0.0101260972 -0.0007817668
f 5 8 7
f 5 4 6
f 5 8 4
f 3 4 6
f 1 3 7
f 1 3 4
f 1 8 7
f 1 8 4
f 2 5 6
f 2 3 6
f 2 5 7
f 2 3 7
