# Coarse convex scoop prism generated from adjacent fine prisms
# Source fine prisms: 29,124
v 0.0466759220 0.0113811750 0.0005686168
v 0.0474174620 0.0097502810 -0.0005160747
v 0.0500936860 0.0102015100 0.0007623322
v 0.0467660457 0.0116499064 0.0002320738
v 0.0475211864 0.0100297185 -0.0008397349
v 0.0502206570 0.0104619553 0.0004312028
v 0.0506208260 0.0092001200 0.0002046876
v 0.0507554480 0.0094710469 -0.0001148051
f 3 7 1
f 3 7 8
f 2 7 1
f 2 4 1
f 2 4 5
f 2 5 8
f 2 7 8
f 6 5 8
f 6 4 5
f 6 3 8
f 6 3 1
f 6 4 1
