# Coarse convex scoop prism generated from adjacent fine prisms
# Source fine prisms: 28,165
v 0.0597207850 0.0013320239 0.0007465119
v 0.0597763220 0.0000100364 0.0004837165
v 0.0600296230 0.0000123351 0.0008629027
v 0.0600597452 0.0013996281 0.0004742333
v 0.0601340467 0.0000105602 0.0002275276
v 0.0603797307 0.0000123926 0.0005963984
v 0.0585601580 -0.0000039588 -0.0011025667
v 0.0588816895 -0.0000027424 -0.0014029265
f 8 6 7
f 8 4 7
f 1 4 7
f 5 4 6
f 5 8 6
f 5 8 4
f 3 4 6
f 3 1 4
f 3 6 7
f 3 1 7
