# Coarse convex scoop prism generated from adjacent fine prisms
# Source fine prisms: 22,58
v 0.0535379300 -0.0052034144 -0.0018635357
v 0.0537047010 -0.0074844362 0.0002671660
v 0.0561156790 -0.0068038165 0.0011332322
v 0.0537183327 -0.0054371403 -0.0021897673
v 0.0538804932 -0.0077457740 -0.0000400792
v 0.0563160711 -0.0070450445 0.0008246028
v 0.0505908480 -0.0073040345 -0.0015826706
v 0.0507321607 -0.0075687766 -0.0019044506
f 4 1 7
f 4 1 6
f 3 1 7
f 3 1 6
f 8 4 7
f 5 4 6
f 5 8 4
f 5 3 6
f 2 3 7
f 2 5 3
f 2 8 7
f 2 5 8
