# Coarse convex scoop prism generated from adjacent fine prisms
# Source fine prisms: 153,198
v 0.0317910030 0.0098722707 -0.0001751220
v 0.0347940030 0.0078301065 -0.0030812499
v 0.0347593240 0.0105913420 -0.0005946508
v 0.0316462877 0.0101402640 -0.0004926705
v 0.0347087767 0.0080871551 -0.0034280387
v 0.0346801342 0.0108673230 -0.0009280626
v 0.0316926220 0.0075026848 -0.0022460569
v 0.0315395594 0.0077481537 -0.0025775940
f 5 2 8
f 5 6 2
f 7 2 8
f 7 1 8
f 4 1 8
f 4 5 8
f 4 5 6
f 3 6 2
f 3 7 2
f 3 7 1
f 3 4 6
f 3 4 1
