# Coarse convex scoop prism generated from adjacent fine prisms
# Source fine prisms: 62,125
v 0.0504061010 0.0072136224 -0.0017414360
v 0.0474174620 0.0097502810 -0.0005160747
v 0.0471851440 0.0072633718 -0.0029105863
v 0.0505450124 0.0074800836 -0.0020628423
v 0.0475211864 0.0100297185 -0.0008397349
v 0.0472820974 0.0075223060 -0.0032528627
v 0.0506208260 0.0092001200 0.0002046876
v 0.0507554480 0.0094710469 -0.0001148051
f 4 5 8
f 4 6 5
f 7 5 8
f 7 4 8
f 2 7 3
f 2 7 5
f 2 6 3
f 2 6 5
f 1 7 3
f 1 7 4
f 1 6 3
f 1 4 6
