# Coarse convex scoop prism generated from adjacent fine prisms
# Source fine prisms: 106,195
v 0.0219310960 -0.0021313897 0.0022881783
v 0.0252414170 0.0000186351 -0.0010320227
v 0.0218565670 0.0000268633 0.0019475869
v 0.0216419271 -0.0022221676 0.0019692101
v 0.0249623408 0.0000190594 -0.0013721937
v 0.0215658393 0.0000270949 0.0016173183
v 0.0249835580 -0.0024831362 -0.0004025741
v 0.0247064895 -0.0026018385 -0.0007231093
f 5 8 6
f 5 8 2
f 3 1 6
f 3 1 2
f 3 5 6
f 3 5 2
f 4 8 6
f 4 1 6
f 4 1 8
f 7 8 2
f 7 1 2
f 7 1 8
