# Coarse convex scoop prism generated from adjacent fine prisms
# Source fine prisms: 138,139
v 0.0412479760 0.0025752478 -0.0060215647
v 0.0444315400 0.0001649511 -0.0060374972
v 0.0446152380 0.0028062481 -0.0056686794
v 0.0412695845 0.0026622673 -0.0064523323
v 0.0444819947 0.0001861986 -0.0064740781
v 0.0446702767 0.0029279404 -0.0060879189
v 0.0411428940 0.0000063727 -0.0062893034
v 0.0411592928 0.0000066935 -0.0067289976
f 5 3 6
f 1 3 7
f 1 3 6
f 1 8 7
f 2 8 7
f 2 5 8
f 2 3 7
f 2 5 3
f 4 1 6
f 4 1 8
f 4 5 6
f 4 5 8
