# Coarse convex scoop prism generated from adjacent fine prisms
# Source fine prisms: 99,100
v 0.0445377200 -0.0077297945 -0.0031771761
v 0.0411538560 -0.0051817463 -0.0051323247
v 0.0411706160 -0.0079862917 -0.0034227904
v 0.0446033337 -0.0079928961 -0.0035236907
v 0.0411783977 -0.0053779735 -0.0055253802
v 0.0411948541 -0.0082496302 -0.0037744513
v 0.0444759960 -0.0050427430 -0.0048712691
v 0.0445347870 -0.0052325636 -0.0052638398
f 5 6 2
f 8 5 2
f 8 6 4
f 8 5 6
f 3 6 2
f 3 6 4
f 7 8 2
f 7 8 4
f 1 3 4
f 1 7 4
f 1 3 2
f 1 7 2
