# Coarse convex scoop prism generated from adjacent fine prisms
# Source fine prisms: 196,197
v 0.0249835580 -0.0024831362 -0.0004025741
v 0.0219310960 -0.0021313897 0.0022881783
v 0.0222319950 -0.0040801300 0.0030307920
v 0.0247064895 -0.0026018385 -0.0007231093
v 0.0216419271 -0.0022221676 0.0019692101
v 0.0219496302 -0.0042328380 0.0027298761
v 0.0252131310 -0.0048785325 0.0006367183
v 0.0249481508 -0.0050537194 0.0003322597
f 6 4 5
f 6 8 4
f 1 4 5
f 1 8 7
f 1 8 4
f 2 1 5
f 3 1 7
f 3 2 1
f 3 8 7
f 3 6 8
f 3 6 5
f 3 2 5
