# Coarse convex scoop prism generated from adjacent fine prisms
# Source fine prisms: 128,130
v 0.0504061010 0.0072136224 -0.0017414360
v 0.0536968420 0.0075037890 0.0002763278
v 0.0534752390 0.0084859476 0.0009487595
v 0.0505450124 0.0074800836 -0.0020628423
v 0.0538716107 0.0077660493 -0.0000307153
v 0.0536384730 0.0087481375 0.0006353730
v 0.0560297880 0.0068626344 0.0011284521
v 0.0561782541 0.0070434216 0.0007557943
f 7 8 1
f 7 6 8
f 4 8 1
f 3 7 1
f 3 7 6
f 3 4 1
f 3 4 6
f 5 6 8
f 5 4 8
f 5 4 6
