# Coarse convex scoop prism generated from adjacent fine prisms
# Source fine prisms: 209,210
v 0.0564712410 -0.0000530239 -0.0027399550
v 0.0586019960 0.0017176420 -0.0004407639
v 0.0565500630 0.0019404326 -0.0022091302
v 0.0567181378 -0.0000573995 -0.0031041292
v 0.0588970645 0.0018404353 -0.0007431815
v 0.0567835169 0.0020881231 -0.0025516018
v 0.0585601580 -0.0000039588 -0.0011025667
v 0.0588816895 -0.0000027424 -0.0014029265
f 4 6 1
f 8 6 5
f 8 4 6
f 2 6 5
f 2 8 5
f 7 4 1
f 7 8 4
f 7 2 1
f 7 2 8
f 3 6 1
f 3 2 1
f 3 2 6
