# Coarse convex scoop prism generated from adjacent fine prisms
# Source fine prisms: 84,85
v 0.0379248670 0.0080167387 -0.0034198839
v 0.0379253840 0.0052013002 -0.0051236344
v 0.0411704290 0.0079869488 -0.0034235710
v 0.0378998351 0.0082902074 -0.0037636691
v 0.0378987054 0.0054014613 -0.0055145612
v 0.0411971778 0.0082474720 -0.0037771416
v 0.0411538930 0.0051819836 -0.0051327305
v 0.0411732762 0.0053566220 -0.0055361232
f 4 1 5
f 8 7 6
f 8 4 5
f 8 4 6
f 2 1 5
f 2 8 5
f 2 8 7
f 3 7 6
f 3 4 6
f 3 4 1
f 3 2 7
f 3 2 1
