# Coarse convex scoop prism generated from adjacent fine prisms
# Source fine prisms: 65,76
v 0.0444946030 0.0053463500 -0.0047045048
v 0.0475567790 0.0048964931 -0.0043420294
v 0.0471851440 0.0072633718 -0.0029105863
v 0.0445535875 0.0055568477 -0.0050863576
v 0.0476528715 0.0050951228 -0.0047227031
v 0.0472820974 0.0075223060 -0.0032528627
v 0.0445642880 0.0080167828 -0.0029232221
v 0.0446329779 0.0082910886 -0.0032603245
f 4 5 1
f 2 5 1
f 7 3 8
f 7 4 1
f 7 4 8
f 7 2 1
f 7 2 3
f 6 3 8
f 6 4 5
f 6 4 8
f 6 2 5
f 6 2 3
