# Coarse convex scoop prism generated from adjacent fine prisms
# Source fine prisms: 93,94
v 0.0410428100 -0.0025728141 -0.0060309603
v 0.0444759960 -0.0050427430 -0.0048712691
v 0.0444778320 -0.0024305235 -0.0057811179
v 0.0410573528 -0.0026742172 -0.0064588691
v 0.0445347870 -0.0052325636 -0.0052638398
v 0.0445326021 -0.0025204853 -0.0062083264
v 0.0411538560 -0.0051817463 -0.0051323247
v 0.0411783977 -0.0053779735 -0.0055253802
f 2 3 1
f 2 3 5
f 2 8 5
f 6 3 1
f 6 4 1
f 6 3 5
f 6 8 5
f 6 8 4
f 7 2 1
f 7 2 8
f 7 4 1
f 7 8 4
