# Coarse convex scoop prism generated from adjacent fine prisms
# Source fine prisms: 205,238
v 0.0285515360 0.0022976851 -0.0031956307
v 0.0251408810 0.0025447191 -0.0005306940
v 0.0252414170 0.0000186351 -0.0010320227
v 0.0283221333 0.0023741982 -0.0035632176
v 0.0248656691 0.0026655376 -0.0008520370
v 0.0249623408 0.0000190594 -0.0013721937
v 0.0285535590 -0.0000389327 -0.0034689618
v 0.0283307111 -0.0000479323 -0.0038482477
f 6 2 5
f 4 6 5
f 4 6 8
f 3 2 7
f 3 6 2
f 3 8 7
f 3 6 8
f 1 8 7
f 1 4 8
f 1 2 7
f 1 2 5
f 1 4 5
