# Coarse convex scoop prism generated from adjacent fine prisms
# Source fine prisms: 114,115
v 0.0506769630 -0.0000096682 -0.0048892918
v 0.0476737630 -0.0024664433 -0.0052504058
v 0.0508746380 -0.0024138542 -0.0044717395
v 0.0507887867 -0.0000219046 -0.0053146690
v 0.0477657378 -0.0025758994 -0.0056665308
v 0.0510084882 -0.0025418312 -0.0048708711
v 0.0474339410 -0.0000076557 -0.0055956850
v 0.0475150395 -0.0000046403 -0.0060281361
f 4 5 6
f 4 8 5
f 2 5 6
f 2 8 7
f 2 8 5
f 1 8 7
f 1 4 8
f 1 4 6
f 3 2 6
f 3 1 6
f 3 2 7
f 3 1 7
