# Coarse convex scoop prism generated from adjacent fine prisms
# Source fine prisms: 154,222
v 0.0347935080 0.0051065189 -0.0047431057
v 0.0380731710 0.0025829548 -0.0060228620
v 0.0379253840 0.0052013002 -0.0051236344
v 0.0347065110 0.0052897137 -0.0051335813
v 0.0380496012 0.0026834793 -0.0064505760
v 0.0378987054 0.0054014613 -0.0055145612
v 0.0347551900 0.0024641342 -0.0056259881
v 0.0346625066 0.0025505899 -0.0060473374
f 4 1 8
f 4 1 6
f 5 2 8
f 5 6 2
f 5 4 8
f 5 4 6
f 7 2 8
f 7 1 8
f 7 1 2
f 3 6 2
f 3 1 2
f 3 1 6
