# Coarse convex scoop prism generated from adjacent fine prisms
# Source fine prisms: 52,54
v 0.0563480710 -0.0059276507 0.0006712319
v 0.0562359740 -0.0042587670 -0.0008304588
v 0.0535379300 -0.0052034144 -0.0018635357
v 0.0565620497 -0.0061641218 0.0003680908
v 0.0564528748 -0.0044883753 -0.0011367822
v 0.0537183327 -0.0054371403 -0.0021897673
v 0.0580242120 -0.0051086740 0.0012291854
v 0.0582317015 -0.0053594000 0.0009330696
f 6 2 3
f 7 2 3
f 5 6 2
f 5 7 8
f 5 7 2
f 5 4 8
f 5 4 6
f 1 4 8
f 1 7 8
f 1 7 3
f 1 6 3
f 1 4 6
