# Coarse convex scoop prism generated from adjacent fine prisms
# Source fine prisms: 116,191
v 0.0467113240 -0.0113890720 0.0005714890
v 0.0503320330 -0.0100734360 0.0007636442
v 0.0473125430 -0.0098494611 -0.0004551577
v 0.0468026117 -0.0116570293 0.0002346427
v 0.0504584688 -0.0103328652 0.0004315140
v 0.0474145182 -0.0101260972 -0.0007817668
v 0.0505263980 -0.0092384955 0.0001973907
v 0.0506564121 -0.0095136785 -0.0001203681
f 7 6 8
f 2 7 1
f 2 7 8
f 3 7 1
f 3 7 6
f 3 4 1
f 3 4 6
f 5 6 8
f 5 4 6
f 5 2 8
f 5 2 1
f 5 4 1
