# Coarse convex scoop prism generated from adjacent fine prisms
# Source fine prisms: 213,214
v 0.0585601580 -0.0000039588 -0.0011025667
v 0.0564712410 -0.0000530239 -0.0027399550
v 0.0585766700 -0.0016836236 -0.0004952332
v 0.0588816895 -0.0000027424 -0.0014029265
v 0.0567181378 -0.0000573995 -0.0031041292
v 0.0588722986 -0.0018078157 -0.0007965305
v 0.0564347170 -0.0021337130 -0.0021780919
v 0.0566638573 -0.0022867992 -0.0025211070
f 8 5 4
f 6 8 4
f 2 5 4
f 2 8 7
f 2 8 5
f 3 6 4
f 3 2 7
f 3 8 7
f 3 6 8
f 1 2 4
f 1 3 4
f 1 3 2
