# Coarse convex scoop prism generated from adjacent fine prisms
# Source fine prisms: 55,169
v 0.0583742300 -0.0033034611 0.0003962296
v 0.0562359740 -0.0042587670 -0.0008304588
v 0.0582305400 -0.0049145875 0.0011747088
v 0.0586263503 -0.0034684267 0.0000755714
v 0.0564528748 -0.0044883753 -0.0011367822
v 0.0584545821 -0.0051286204 0.0008623068
v 0.0564347170 -0.0021337130 -0.0021780919
v 0.0566638573 -0.0022867992 -0.0025211070
f 8 7 4
f 6 8 4
f 1 7 2
f 1 7 4
f 5 6 8
f 5 7 2
f 5 8 7
f 3 6 4
f 3 1 4
f 3 1 2
f 3 5 2
f 3 5 6
