# Coarse convex scoop prism generated from adjacent fine prisms
# Source fine prisms: 109,110
v 0.0316489550 -0.0097957213 -0.0001785512
v 0.0286293990 -0.0095038772 0.0013149479
v 0.0323299440 -0.0113581850 0.0007497695
v 0.0315029792 -0.0100631989 -0.0004959576
v 0.0284198246 -0.0097483932 0.0010151304
v 0.0322022501 -0.0116197692 0.0004198181
v 0.0286884950 -0.0090656845 0.0009264899
v 0.0284828875 -0.0093140486 0.0006270891
f 6 3 5
f 6 4 5
f 2 3 5
f 2 7 5
f 2 7 3
f 8 4 5
f 8 7 5
f 1 7 3
f 1 6 3
f 1 6 4
f 1 8 4
f 1 8 7
