# Coarse convex scoop prism generated from adjacent fine prisms
# Source fine prisms: 103,159
v 0.0285449430 -0.0045421014 -0.0023569890
v 0.0286018700 -0.0069565523 -0.0007775200
v 0.0317036610 -0.0047632563 -0.0039593076
v 0.0283178823 -0.0047136687 -0.0026925603
v 0.0283868934 -0.0071808721 -0.0010890737
v 0.0315457699 -0.0049404815 -0.0043297959
v 0.0317048880 -0.0072912418 -0.0024278239
v 0.0315514206 -0.0075356149 -0.0027599828
f 8 6 4
f 5 8 4
f 3 6 4
f 3 8 7
f 3 8 6
f 2 5 4
f 2 3 7
f 2 8 7
f 2 5 8
f 1 3 4
f 1 2 4
f 1 2 3
