# Coarse convex scoop prism generated from adjacent fine prisms
# Source fine prisms: 34,83
v 0.0476737630 -0.0024664433 -0.0052504058
v 0.0474339410 -0.0000076557 -0.0055956850
v 0.0444778320 -0.0024305235 -0.0057811179
v 0.0477657378 -0.0025758994 -0.0056665308
v 0.0475150395 -0.0000046403 -0.0060281361
v 0.0445326021 -0.0025204853 -0.0062083264
v 0.0444315400 0.0001649511 -0.0060374972
v 0.0444819947 0.0001861986 -0.0064740781
f 5 6 4
f 5 6 8
f 3 1 4
f 3 6 4
f 3 1 7
f 3 8 7
f 3 6 8
f 2 1 7
f 2 8 7
f 2 5 8
f 2 1 4
f 2 5 4
