# Coarse convex scoop prism generated from adjacent fine prisms
# Source fine prisms: 171,180
v 0.0475567790 0.0048964931 -0.0043420294
v 0.0475026560 0.0024721882 -0.0052792744
v 0.0509463570 0.0046571276 -0.0034647117
v 0.0476528715 0.0050951228 -0.0047227031
v 0.0475889604 0.0025796694 -0.0056971253
v 0.0510758994 0.0048609815 -0.0038324920
v 0.0507350090 0.0022877497 -0.0045565643
v 0.0508531537 0.0023870189 -0.0049686170
f 8 5 2
f 8 4 6
f 8 5 4
f 1 4 6
f 1 5 2
f 1 5 4
f 7 8 2
f 7 8 6
f 3 1 6
f 3 7 6
f 3 1 2
f 3 7 2
