# Coarse convex scoop prism generated from adjacent fine prisms
# Source fine prisms: 162,163
v 0.0597718210 -0.0013325365 0.0008181673
v 0.0585766700 -0.0016836236 -0.0004952332
v 0.0599068920 -0.0018900947 0.0010799250
v 0.0601121251 -0.0013991725 0.0005473301
v 0.0588722986 -0.0018078157 -0.0007965305
v 0.0601733876 -0.0019612587 0.0007371192
v 0.0600296230 0.0000123351 0.0008629027
v 0.0603797307 0.0000123926 0.0005963984
f 3 6 8
f 5 8 2
f 5 3 2
f 5 3 6
f 7 8 2
f 7 3 2
f 7 3 8
f 4 6 8
f 4 5 8
f 4 5 6
