# Coarse convex scoop prism generated from adjacent fine prisms
# Source fine prisms: 185,202
v 0.0347930990 -0.0001608042 -0.0058850971
v 0.0317598420 -0.0023078880 -0.0048009537
v 0.0345775780 -0.0028292761 -0.0055022405
v 0.0347049797 -0.0001789685 -0.0063158001
v 0.0315953752 -0.0023906986 -0.0052005699
v 0.0344886814 -0.0029445112 -0.0059174733
v 0.0317035480 0.0001436929 -0.0050150781
v 0.0315447133 0.0001614456 -0.0054250249
f 5 2 6
f 4 1 8
f 4 6 1
f 4 5 8
f 4 5 6
f 7 1 8
f 7 5 8
f 7 5 2
f 3 6 1
f 3 2 6
f 3 7 1
f 3 7 2
