# Coarse convex scoop prism generated from adjacent fine prisms
# Source fine prisms: 82,92
v 0.0444315400 0.0001649511 -0.0060374972
v 0.0411428940 0.0000063727 -0.0062893034
v 0.0444778320 -0.0024305235 -0.0057811179
v 0.0444819947 0.0001861986 -0.0064740781
v 0.0411592928 0.0000066935 -0.0067289976
v 0.0445326021 -0.0025204853 -0.0062083264
v 0.0410428100 -0.0025728141 -0.0060309603
v 0.0410573528 -0.0026742172 -0.0064588691
f 5 8 7
f 5 4 6
f 5 8 6
f 3 8 7
f 3 8 6
f 2 5 7
f 2 5 4
f 1 4 6
f 1 3 6
f 1 2 4
f 1 3 7
f 1 2 7
