# Coarse convex scoop prism generated from adjacent fine prisms
# Source fine prisms: 7,8
v 0.0359183950 0.0122771960 0.0004613881
v 0.0379091210 0.0107638190 -0.0009312268
v 0.0394848570 0.0124688950 0.0003788810
v 0.0358614638 0.0125483156 0.0001195505
v 0.0378854361 0.0110430359 -0.0012704567
v 0.0394872709 0.0127449024 0.0000362236
v 0.0347593240 0.0105913420 -0.0005946508
v 0.0346801342 0.0108673230 -0.0009280626
f 1 7 8
f 4 5 8
f 4 5 6
f 4 1 8
f 4 1 6
f 2 5 8
f 2 7 8
f 2 5 6
f 3 1 7
f 3 2 7
f 3 1 6
f 3 2 6
