# Coarse convex scoop prism generated from adjacent fine prisms
# Source fine prisms: 102,140
v 0.0445377200 -0.0077297945 -0.0031771761
v 0.0446641880 -0.0104556670 -0.0006498928
v 0.0473125430 -0.0098494611 -0.0004551577
v 0.0446033337 -0.0079928961 -0.0035236907
v 0.0447298578 -0.0107363173 -0.0009823426
v 0.0474145182 -0.0101260972 -0.0007817668
v 0.0474813640 -0.0073448703 -0.0027298195
v 0.0475841169 -0.0076084078 -0.0030668504
f 4 5 1
f 4 5 8
f 7 3 1
f 7 3 8
f 7 4 1
f 7 4 8
f 2 5 1
f 2 3 1
f 6 5 8
f 6 3 8
f 6 2 5
f 6 2 3
