# Coarse convex scoop prism generated from adjacent fine prisms
# Source fine prisms: 43,97
v 0.0432113960 -0.0121607960 0.0004300107
v 0.0412164860 -0.0107513350 -0.0009068128
v 0.0393588710 -0.0125032690 0.0003768651
v 0.0432622410 -0.0124336350 0.0000885818
v 0.0412394255 -0.0110334723 -0.0012436693
v 0.0393613273 -0.0127767131 0.0000321590
v 0.0446641880 -0.0104556670 -0.0006498928
v 0.0447298578 -0.0107363173 -0.0009823426
f 7 1 3
f 7 1 8
f 2 7 3
f 4 1 3
f 4 1 8
f 5 4 8
f 5 7 8
f 5 2 7
f 6 4 3
f 6 5 4
f 6 2 3
f 6 5 2
