# Coarse convex scoop prism generated from adjacent fine prisms
# Source fine prisms: 199,226
v 0.0316926220 0.0075026848 -0.0022460569
v 0.0347935080 0.0051065189 -0.0047431057
v 0.0347940030 0.0078301065 -0.0030812499
v 0.0315395594 0.0077481537 -0.0025775940
v 0.0347065110 0.0052897137 -0.0051335813
v 0.0347087767 0.0080871551 -0.0034280387
v 0.0316953170 0.0049894900 -0.0038384879
v 0.0315388973 0.0051717433 -0.0042071566
f 6 5 8
f 4 6 8
f 2 6 3
f 2 6 5
f 7 5 8
f 7 2 5
f 1 4 8
f 1 7 8
f 1 6 3
f 1 4 6
f 1 2 3
f 1 7 2
