# Coarse convex scoop prism generated from adjacent fine prisms
# Source fine prisms: 37,232
v 0.0317910030 0.0098722707 -0.0001751220
v 0.0323299790 0.0113741030 0.0007516247
v 0.0286305390 0.0095198576 0.0013248182
v 0.0316462877 0.0101402640 -0.0004926705
v 0.0322022984 0.0116352791 0.0004213449
v 0.0284229959 0.0097636766 0.0010230266
v 0.0287979860 0.0091078628 0.0008832578
v 0.0285941076 0.0093580254 0.0005841720
f 5 2 6
f 3 2 6
f 3 7 6
f 8 7 6
f 8 5 6
f 8 5 4
f 1 5 2
f 1 5 4
f 1 3 2
f 1 3 7
f 1 8 4
f 1 8 7
