# Coarse convex scoop prism generated from adjacent fine prisms
# Source fine prisms: 27,72
v 0.0599361410 0.0018952691 0.0010989414
v 0.0597207850 0.0013320239 0.0007465119
v 0.0600296230 0.0000123351 0.0008629027
v 0.0601997743 0.0019635834 0.0007533540
v 0.0600597452 0.0013996281 0.0004742333
v 0.0603797307 0.0000123926 0.0005963984
v 0.0586019960 0.0017176420 -0.0004407639
v 0.0588970645 0.0018404353 -0.0007431815
f 1 4 6
f 8 6 7
f 8 1 7
f 8 1 4
f 3 6 7
f 3 1 7
f 3 1 6
f 5 4 6
f 5 8 6
f 5 8 4
