# Coarse convex scoop prism generated from adjacent fine prisms
# Source fine prisms: 74,75
v 0.0445642880 0.0080167828 -0.0029232221
v 0.0474174620 0.0097502810 -0.0005160747
v 0.0444993010 0.0105516120 -0.0005926505
v 0.0446329779 0.0082910886 -0.0032603245
v 0.0475211864 0.0100297185 -0.0008397349
v 0.0445644975 0.0108320520 -0.0009253708
v 0.0471851440 0.0072633718 -0.0029105863
v 0.0472820974 0.0075223060 -0.0032528627
f 8 7 5
f 2 5 3
f 2 7 5
f 6 5 3
f 6 8 5
f 6 8 4
f 1 2 3
f 1 2 7
f 1 6 3
f 1 6 4
f 1 8 7
f 1 8 4
