# Coarse convex scoop prism generated from adjacent fine prisms
# Source fine prisms: 239,240
v 0.0317598420 -0.0023078880 -0.0048009537
v 0.0285535590 -0.0000389327 -0.0034689618
v 0.0282731610 -0.0023297083 -0.0030091438
v 0.0315953752 -0.0023906986 -0.0052005699
v 0.0283307111 -0.0000479323 -0.0038482477
v 0.0280302295 -0.0024268298 -0.0033629117
v 0.0317035480 0.0001436929 -0.0050150781
v 0.0315447133 0.0001614456 -0.0054250249
f 3 1 6
f 4 1 6
f 4 8 1
f 4 5 6
f 4 5 8
f 7 8 1
f 7 3 1
f 2 7 3
f 2 3 6
f 2 5 6
f 2 5 8
f 2 7 8
