# Coarse convex scoop prism generated from adjacent fine prisms
# Source fine prisms: 160,161
v 0.0286884950 -0.0090656845 0.0009264899
v 0.0317048880 -0.0072912418 -0.0024278239
v 0.0286018700 -0.0069565523 -0.0007775200
v 0.0284828875 -0.0093140486 0.0006270891
v 0.0315514206 -0.0075356149 -0.0027599828
v 0.0283868934 -0.0071808721 -0.0010890737
v 0.0316489550 -0.0097957213 -0.0001785512
v 0.0315029792 -0.0100631989 -0.0004959576
f 5 2 6
f 5 8 2
f 3 2 6
f 3 1 6
f 4 1 6
f 4 1 8
f 4 5 6
f 4 5 8
f 7 8 2
f 7 1 8
f 7 3 2
f 7 3 1
