# Coarse convex scoop prism generated from adjacent fine prisms
# Source fine prisms: 176,178
v 0.0564200020 0.0039794926 -0.0009113208
v 0.0562893230 0.0057919535 0.0005102884
v 0.0537564110 0.0052646408 -0.0016994014
v 0.0566331943 0.0042133704 -0.0012170171
v 0.0565050112 0.0060301766 0.0002097416
v 0.0539414230 0.0055083639 -0.0020155811
v 0.0579840060 0.0051425611 0.0012289488
v 0.0581035509 0.0053255086 0.0008470597
f 6 1 3
f 7 1 3
f 7 5 8
f 4 6 1
f 4 7 8
f 4 7 1
f 4 5 8
f 4 5 6
f 2 7 3
f 2 7 5
f 2 6 3
f 2 5 6
