# Coarse convex scoop prism generated from adjacent fine prisms
# Source fine prisms: 108,156
v 0.0347765390 -0.0081020639 -0.0028459782
v 0.0316489550 -0.0097957213 -0.0001785512
v 0.0349349890 -0.0106990250 -0.0005416747
v 0.0346855893 -0.0083686330 -0.0031840153
v 0.0315029792 -0.0100631989 -0.0004959576
v 0.0348564724 -0.0109745331 -0.0008756364
v 0.0317048880 -0.0072912418 -0.0024278239
v 0.0315514206 -0.0075356149 -0.0027599828
f 8 4 5
f 2 3 5
f 2 7 3
f 2 8 5
f 2 8 7
f 6 3 5
f 6 4 5
f 1 7 3
f 1 6 3
f 1 6 4
f 1 8 7
f 1 8 4
