# Coarse convex scoop prism generated from adjacent fine prisms
# Source fine prisms: 90,91
v 0.0377763070 -0.0025851227 -0.0060072850
v 0.0410428100 -0.0025728141 -0.0060309603
v 0.0379250540 -0.0000055738 -0.0062788411
v 0.0377408151 -0.0026716166 -0.0064372375
v 0.0410573528 -0.0026742172 -0.0064588691
v 0.0378967511 -0.0000057384 -0.0067179298
v 0.0411428940 0.0000063727 -0.0062893034
v 0.0411592928 0.0000066935 -0.0067289976
f 1 5 4
f 3 1 4
f 6 5 4
f 6 5 8
f 6 3 4
f 6 3 8
f 7 5 8
f 7 3 8
f 7 3 1
f 2 1 5
f 2 7 5
f 2 7 1
