# Coarse convex scoop prism generated from adjacent fine prisms
# Source fine prisms: 17,47
v 0.0349349890 -0.0106990250 -0.0005416747
v 0.0379252760 -0.0108199970 -0.0008864873
v 0.0379248560 -0.0080168388 -0.0034200558
v 0.0348564724 -0.0109745331 -0.0008756364
v 0.0379015123 -0.0110973161 -0.0012272650
v 0.0378957864 -0.0082849926 -0.0037676885
v 0.0347765390 -0.0081020639 -0.0028459782
v 0.0346855893 -0.0083686330 -0.0031840153
f 5 3 2
f 4 5 2
f 7 3 8
f 7 3 2
f 6 3 8
f 6 5 3
f 6 4 8
f 6 4 5
f 1 4 2
f 1 7 2
f 1 4 8
f 1 7 8
