# Coarse convex scoop prism generated from adjacent fine prisms
# Source fine prisms: 1,77
v 0.0444993010 0.0105516120 -0.0005926505
v 0.0412285570 0.0107235120 -0.0009288275
v 0.0411704290 0.0079869488 -0.0034235710
v 0.0445644975 0.0108320520 -0.0009253708
v 0.0412510744 0.0110060595 -0.0012653686
v 0.0411971778 0.0082474720 -0.0037771416
v 0.0445642880 0.0080167828 -0.0029232221
v 0.0446329779 0.0082910886 -0.0032603245
f 6 5 3
f 6 5 8
f 7 1 3
f 7 1 8
f 7 6 3
f 7 6 8
f 2 5 3
f 2 1 3
f 2 1 5
f 4 5 8
f 4 1 8
f 4 1 5
