# Coarse convex scoop prism generated from adjacent fine prisms
# Source fine prisms: 9,30
v 0.0466759220 0.0113811750 0.0005686168
v 0.0432841280 0.0121797380 0.0004389031
v 0.0444993010 0.0105516120 -0.0005926505
v 0.0467660457 0.0116499064 0.0002320738
v 0.0433352813 0.0124505431 0.0000959046
v 0.0445644975 0.0108320520 -0.0009253708
v 0.0474174620 0.0097502810 -0.0005160747
v 0.0475211864 0.0100297185 -0.0008397349
f 7 1 2
f 7 1 8
f 3 7 2
f 4 1 2
f 4 1 8
f 5 4 2
f 5 3 2
f 6 4 8
f 6 5 4
f 6 5 3
f 6 7 8
f 6 3 7
