# Coarse convex scoop prism generated from adjacent fine prisms
# Source fine prisms: 144,146
v 0.0285449430 -0.0045421014 -0.0023569890
v 0.0252131310 -0.0048785325 0.0006367183
v 0.0256735180 -0.0070182290 0.0017814482
v 0.0283178823 -0.0047136687 -0.0026925603
v 0.0249481508 -0.0050537194 0.0003322597
v 0.0254276653 -0.0072387508 0.0014907136
v 0.0250983830 -0.0070689265 0.0023156761
v 0.0248461621 -0.0072863613 0.0020280883
f 5 7 8
f 5 4 1
f 6 7 8
f 6 4 1
f 6 5 8
f 6 5 4
f 2 7 1
f 2 5 1
f 2 5 7
f 3 7 1
f 3 6 1
f 3 6 7
