# Coarse convex scoop prism generated from adjacent fine prisms
# Source fine prisms: 98,101
v 0.0412164860 -0.0107513350 -0.0009068128
v 0.0446641880 -0.0104556670 -0.0006498928
v 0.0411706160 -0.0079862917 -0.0034227904
v 0.0412394255 -0.0110334723 -0.0012436693
v 0.0447298578 -0.0107363173 -0.0009823426
v 0.0411948541 -0.0082496302 -0.0037744513
v 0.0445377200 -0.0077297945 -0.0031771761
v 0.0446033337 -0.0079928961 -0.0035236907
f 6 4 3
f 8 4 5
f 8 6 4
f 2 8 5
f 7 6 3
f 7 8 6
f 7 2 3
f 7 2 8
f 1 4 5
f 1 2 5
f 1 4 3
f 1 2 3
