# Coarse convex scoop prism generated from adjacent fine prisms
# Source fine prisms: 120,211
v 0.0538868780 0.0025949134 -0.0033309745
v 0.0537819640 0.0000446542 -0.0039027360
v 0.0565500630 0.0019404326 -0.0022091302
v 0.0540605576 0.0027606169 -0.0036997261
v 0.0539446364 0.0000446548 -0.0043115608
v 0.0567835169 0.0020881231 -0.0025516018
v 0.0564712410 -0.0000530239 -0.0027399550
v 0.0567181378 -0.0000573995 -0.0031041292
f 8 5 2
f 8 4 6
f 8 5 4
f 1 5 2
f 1 5 4
f 7 8 2
f 3 4 6
f 3 1 4
f 3 8 6
f 3 7 8
f 3 1 2
f 3 7 2
