# Coarse convex scoop prism generated from adjacent fine prisms
# Source fine prisms: 223,224
v 0.0380731710 0.0025829548 -0.0060228620
v 0.0347551900 0.0024641342 -0.0056259881
v 0.0379250540 -0.0000055738 -0.0062788411
v 0.0380496012 0.0026834793 -0.0064505760
v 0.0346625066 0.0025505899 -0.0060473374
v 0.0378967511 -0.0000057384 -0.0067179298
v 0.0347930990 -0.0001608042 -0.0058850971
v 0.0347049797 -0.0001789685 -0.0063158001
f 6 8 5
f 4 6 5
f 4 6 1
f 2 4 5
f 2 4 1
f 3 6 1
f 3 6 8
f 7 3 8
f 7 8 5
f 7 2 5
f 7 2 1
f 7 3 1
