# Coarse convex scoop prism generated from adjacent fine prisms
# Source fine prisms: 227,228
v 0.0316953170 0.0049894900 -0.0038384879
v 0.0284728060 0.0070536401 -0.0006141338
v 0.0284816620 0.0046957675 -0.0022436015
v 0.0315388973 0.0051717433 -0.0042071566
v 0.0282583422 0.0072813988 -0.0009235385
v 0.0282513328 0.0048703709 -0.0025753576
v 0.0316926220 0.0075026848 -0.0022460569
v 0.0315395594 0.0077481537 -0.0025775940
f 4 1 6
f 4 8 6
f 4 8 1
f 3 1 6
f 3 2 6
f 3 2 1
f 5 8 6
f 5 2 6
f 5 2 8
f 7 8 1
f 7 2 1
f 7 2 8
