# Coarse convex scoop prism generated from adjacent fine prisms
# Source fine prisms: 15,107
v 0.0359183570 -0.0122924430 0.0004621914
v 0.0349349890 -0.0106990250 -0.0005416747
v 0.0323299440 -0.0113581850 0.0007497695
v 0.0358602968 -0.0125606671 0.0001182658
v 0.0348564724 -0.0109745331 -0.0008756364
v 0.0322022501 -0.0116197692 0.0004198181
v 0.0316489550 -0.0097957213 -0.0001785512
v 0.0315029792 -0.0100631989 -0.0004959576
f 7 3 8
f 7 3 1
f 2 7 1
f 6 3 8
f 6 3 1
f 4 2 1
f 4 6 1
f 5 4 2
f 5 7 8
f 5 2 7
f 5 6 8
f 5 4 6
