# Coarse convex scoop prism generated from adjacent fine prisms
# Source fine prisms: 2,3
v 0.0379091210 0.0107638190 -0.0009312268
v 0.0412285570 0.0107235120 -0.0009288275
v 0.0394848570 0.0124688950 0.0003788810
v 0.0378854361 0.0110430359 -0.0012704567
v 0.0412510744 0.0110060595 -0.0012653686
v 0.0394872709 0.0127449024 0.0000362236
v 0.0432841280 0.0121797380 0.0004389031
v 0.0433352813 0.0124505431 0.0000959046
f 7 6 8
f 2 7 8
f 5 6 4
f 5 6 8
f 5 2 4
f 5 2 8
f 3 6 4
f 3 7 6
f 1 2 7
f 1 3 7
f 1 2 4
f 1 3 4
