# Coarse convex scoop prism generated from adjacent fine prisms
# Source fine prisms: 50,149
v 0.0250754740 0.0049389301 0.0008080422
v 0.0257015600 0.0070403190 0.0017712813
v 0.0250932080 0.0070754809 0.0023140012
v 0.0248094871 0.0051234374 0.0005100355
v 0.0254560818 0.0072605510 0.0014800111
v 0.0248408506 0.0072911944 0.0020252393
v 0.0284816620 0.0046957675 -0.0022436015
v 0.0282513328 0.0048703709 -0.0025753576
f 3 6 4
f 1 3 4
f 1 3 7
f 1 8 4
f 1 8 7
f 2 3 7
f 5 6 4
f 5 8 4
f 5 3 6
f 5 2 3
f 5 8 7
f 5 2 7
