# Coarse convex scoop prism generated from adjacent fine prisms
# Source fine prisms: 46,104
v 0.0286884950 -0.0090656845 0.0009264899
v 0.0286018700 -0.0069565523 -0.0007775200
v 0.0256735180 -0.0070182290 0.0017814482
v 0.0284828875 -0.0093140486 0.0006270891
v 0.0283868934 -0.0071808721 -0.0010890737
v 0.0254276653 -0.0072387508 0.0014907136
v 0.0285449430 -0.0045421014 -0.0023569890
v 0.0283178823 -0.0047136687 -0.0026925603
f 3 7 1
f 3 4 6
f 3 4 1
f 3 8 6
f 3 8 7
f 2 7 1
f 2 4 1
f 5 2 4
f 5 4 6
f 5 8 6
f 5 8 7
f 5 2 7
