# Coarse convex scoop prism generated from adjacent fine prisms
# Source fine prisms: 19,20
v 0.0250754740 0.0049389301 0.0008080422
v 0.0250932080 0.0070754809 0.0023140012
v 0.0225821190 0.0050627253 0.0032065061
v 0.0248094871 0.0051234374 0.0005100355
v 0.0248408506 0.0072911944 0.0020252393
v 0.0223085900 0.0052431263 0.0029128441
v 0.0222373150 0.0040284954 0.0029907122
v 0.0219560024 0.0041862423 0.0026914144
f 6 4 8
f 6 5 4
f 1 4 8
f 1 5 2
f 1 5 4
f 7 1 8
f 7 1 2
f 7 6 8
f 3 7 2
f 3 7 6
f 3 5 2
f 3 6 5
