# Coarse convex scoop prism generated from adjacent fine prisms
# Source fine prisms: 21,60
v 0.0537047010 -0.0074844362 0.0002671660
v 0.0534019650 -0.0085353835 0.0009470224
v 0.0561156790 -0.0068038165 0.0011332322
v 0.0538804932 -0.0077457740 -0.0000400792
v 0.0535649388 -0.0087971399 0.0006331384
v 0.0563160711 -0.0070450445 0.0008246028
v 0.0505908480 -0.0073040345 -0.0015826706
v 0.0507321607 -0.0075687766 -0.0019044506
f 8 6 7
f 2 5 6
f 2 8 7
f 2 8 5
f 4 5 6
f 4 8 6
f 4 8 5
f 3 6 7
f 3 2 7
f 3 2 6
