# Coarse convex scoop prism generated from adjacent fine prisms
# Source fine prisms: 95,96
v 0.0446641880 -0.0104556670 -0.0006498928
v 0.0467113240 -0.0113890720 0.0005714890
v 0.0473125430 -0.0098494611 -0.0004551577
v 0.0447298578 -0.0107363173 -0.0009823426
v 0.0468026117 -0.0116570293 0.0002346427
v 0.0474145182 -0.0101260972 -0.0007817668
v 0.0432113960 -0.0121607960 0.0004300107
v 0.0432622410 -0.0124336350 0.0000885818
f 3 2 7
f 3 2 6
f 1 3 7
f 5 2 7
f 5 2 6
f 8 5 7
f 8 1 7
f 4 5 6
f 4 8 5
f 4 8 1
f 4 3 6
f 4 1 3
