# Coarse convex scoop prism generated from adjacent fine prisms
# Source fine prisms: 173,174
v 0.0444315400 0.0001649511 -0.0060374972
v 0.0475026560 0.0024721882 -0.0052792744
v 0.0446152380 0.0028062481 -0.0056686794
v 0.0444819947 0.0001861986 -0.0064740781
v 0.0475889604 0.0025796694 -0.0056971253
v 0.0446702767 0.0029279404 -0.0060879189
v 0.0474339410 -0.0000076557 -0.0055956850
v 0.0475150395 -0.0000046403 -0.0060281361
f 4 6 1
f 4 6 5
f 8 4 1
f 8 4 5
f 2 6 5
f 3 6 1
f 3 2 6
f 7 8 5
f 7 2 5
f 7 8 1
f 7 3 1
f 7 3 2
