# Coarse convex scoop prism generated from adjacent fine prisms
# Source fine prisms: 126,127
v 0.0506208260 0.0092001200 0.0002046876
v 0.0534752390 0.0084859476 0.0009487595
v 0.0500936860 0.0102015100 0.0007623322
v 0.0507554480 0.0094710469 -0.0001148051
v 0.0536384730 0.0087481375 0.0006353730
v 0.0502206570 0.0104619553 0.0004312028
v 0.0504061010 0.0072136224 -0.0017414360
v 0.0505450124 0.0074800836 -0.0020628423
f 6 5 3
f 6 7 3
f 8 7 5
f 8 6 5
f 8 6 7
f 2 5 3
f 2 7 5
f 1 7 3
f 1 2 3
f 1 2 7
