# Coarse convex scoop prism generated from adjacent fine prisms
# Source fine prisms: 200,235
v 0.0284816620 0.0046957675 -0.0022436015
v 0.0284728060 0.0070536401 -0.0006141338
v 0.0257015600 0.0070403190 0.0017712813
v 0.0282513328 0.0048703709 -0.0025753576
v 0.0282583422 0.0072813988 -0.0009235385
v 0.0254560818 0.0072605510 0.0014800111
v 0.0287979860 0.0091078628 0.0008832578
v 0.0285941076 0.0093580254 0.0005841720
f 8 1 7
f 4 8 1
f 3 1 7
f 3 8 6
f 3 8 7
f 3 4 6
f 3 4 1
f 5 8 6
f 5 4 6
f 5 4 8
