# Coarse convex scoop prism generated from adjacent fine prisms
# Source fine prisms: 88,89
v 0.0410428100 -0.0025728141 -0.0060309603
v 0.0377763070 -0.0025851227 -0.0060072850
v 0.0379254440 -0.0052008346 -0.0051225738
v 0.0410573528 -0.0026742172 -0.0064588691
v 0.0377408151 -0.0026716166 -0.0064372375
v 0.0379016975 -0.0053822270 -0.0055227399
v 0.0411538560 -0.0051817463 -0.0051323247
v 0.0411783977 -0.0053779735 -0.0055253802
f 6 3 5
f 6 3 8
f 4 1 5
f 4 1 8
f 4 6 5
f 4 6 8
f 2 1 5
f 2 3 5
f 7 1 8
f 7 3 8
f 7 2 1
f 7 2 3
