# Coarse convex scoop prism generated from adjacent fine prisms
# Source fine prisms: 26,119
v 0.0584548710 0.0033537345 0.0005205676
v 0.0597488740 0.0031622940 0.0012080362
v 0.0582025230 0.0050254752 0.0011868155
v 0.0587050191 0.0035155358 0.0001967679
v 0.0598999159 0.0032460025 0.0008033398
v 0.0583342400 0.0051620188 0.0007898187
v 0.0564200020 0.0039794926 -0.0009113208
v 0.0566331943 0.0042133704 -0.0012170171
f 8 5 7
f 8 6 5
f 3 8 7
f 3 8 6
f 1 5 7
f 1 3 7
f 2 6 5
f 2 3 6
f 2 1 5
f 2 1 3
