# Coarse convex scoop prism generated from adjacent fine prisms
# Source fine prisms: 112,170
v 0.0585766700 -0.0016836236 -0.0004952332
v 0.0583742300 -0.0033034611 0.0003962296
v 0.0597018000 -0.0026621107 0.0011536983
v 0.0588722986 -0.0018078157 -0.0007965305
v 0.0586263503 -0.0034684267 0.0000755714
v 0.0599217474 -0.0027625716 0.0007860969
v 0.0564347170 -0.0021337130 -0.0021780919
v 0.0566638573 -0.0022867992 -0.0025211070
f 8 5 6
f 4 8 7
f 4 8 6
f 2 8 7
f 2 8 5
f 3 5 6
f 3 2 5
f 3 4 6
f 1 4 7
f 1 3 4
f 1 2 7
f 1 3 2
