# Coarse convex scoop prism generated from adjacent fine prisms
# Source fine prisms: 13,42
v 0.0379252760 -0.0108199970 -0.0008864873
v 0.0359183570 -0.0122924430 0.0004621914
v 0.0393588710 -0.0125032690 0.0003768651
v 0.0379015123 -0.0110973161 -0.0012272650
v 0.0358602968 -0.0125606671 0.0001182658
v 0.0393613273 -0.0127767131 0.0000321590
v 0.0412164860 -0.0107513350 -0.0009068128
v 0.0412394255 -0.0110334723 -0.0012436693
f 2 6 5
f 1 2 5
f 4 6 5
f 4 6 8
f 4 1 5
f 3 6 8
f 3 2 6
f 7 1 2
f 7 3 2
f 7 3 8
f 7 4 8
f 7 4 1
