# Coarse convex scoop prism generated from adjacent fine prisms
# Source fine prisms: 157,158
v 0.0317048880 -0.0072912418 -0.0024278239
v 0.0347797810 -0.0053982884 -0.0045861491
v 0.0317036610 -0.0047632563 -0.0039593076
v 0.0315514206 -0.0075356149 -0.0027599828
v 0.0346939987 -0.0056018523 -0.0049666792
v 0.0315457699 -0.0049404815 -0.0043297959
v 0.0347765390 -0.0081020639 -0.0028459782
v 0.0346855893 -0.0083686330 -0.0031840153
f 4 1 6
f 4 1 8
f 5 2 6
f 5 4 6
f 5 4 8
f 3 2 6
f 3 1 6
f 7 1 8
f 7 5 2
f 7 5 8
f 7 3 2
f 7 3 1
