# Coarse convex scoop prism generated from adjacent fine prisms
# Source fine prisms: 87,136
v 0.0379253840 0.0052013002 -0.0051236344
v 0.0380731710 0.0025829548 -0.0060228620
v 0.0411538930 0.0051819836 -0.0051327305
v 0.0378987054 0.0054014613 -0.0055145612
v 0.0380496012 0.0026834793 -0.0064505760
v 0.0411732762 0.0053566220 -0.0055361232
v 0.0412479760 0.0025752478 -0.0060215647
v 0.0412695845 0.0026622673 -0.0064523323
f 6 7 8
f 5 1 4
f 5 6 4
f 5 6 8
f 3 7 1
f 3 6 7
f 3 1 4
f 3 6 4
f 2 7 1
f 2 5 1
f 2 7 8
f 2 5 8
