# Coarse convex scoop prism generated from adjacent fine prisms
# Source fine prisms: 133,134
v 0.0317598420 -0.0023078880 -0.0048009537
v 0.0285449430 -0.0045421014 -0.0023569890
v 0.0317036610 -0.0047632563 -0.0039593076
v 0.0315953752 -0.0023906986 -0.0052005699
v 0.0283178823 -0.0047136687 -0.0026925603
v 0.0315457699 -0.0049404815 -0.0043297959
v 0.0282731610 -0.0023297083 -0.0030091438
v 0.0280302295 -0.0024268298 -0.0033629117
f 4 6 8
f 4 6 1
f 7 2 8
f 7 2 1
f 7 4 8
f 7 4 1
f 5 6 8
f 5 2 8
f 5 2 6
f 3 6 1
f 3 2 1
f 3 2 6
