# Coarse convex scoop prism generated from adjacent fine prisms
# Source fine prisms: 70,117
v 0.0586019960 0.0017176420 -0.0004407639
v 0.0584548710 0.0033537345 0.0005205676
v 0.0565500630 0.0019404326 -0.0022091302
v 0.0588970645 0.0018404353 -0.0007431815
v 0.0587050191 0.0035155358 0.0001967679
v 0.0567835169 0.0020881231 -0.0025516018
v 0.0564200020 0.0039794926 -0.0009113208
v 0.0566331943 0.0042133704 -0.0012170171
f 5 6 4
f 5 8 6
f 3 6 4
f 3 8 7
f 3 8 6
f 1 3 7
f 1 3 4
f 2 5 4
f 2 1 4
f 2 1 7
f 2 8 7
f 2 5 8
