# Coarse convex scoop prism generated from adjacent fine prisms
# Source fine prisms: 129,131
v 0.0536968420 0.0075037890 0.0002763278
v 0.0504061010 0.0072136224 -0.0017414360
v 0.0537564110 0.0052646408 -0.0016994014
v 0.0538716107 0.0077660493 -0.0000307153
v 0.0505450124 0.0074800836 -0.0020628423
v 0.0539414230 0.0055083639 -0.0020155811
v 0.0560297880 0.0068626344 0.0011284521
v 0.0561782541 0.0070434216 0.0007557943
f 5 3 2
f 7 3 2
f 7 3 8
f 7 4 8
f 6 3 8
f 6 5 3
f 6 4 8
f 6 4 5
f 1 7 2
f 1 7 4
f 1 5 2
f 1 4 5
