# https://github.com/mikedh/trimesh

o spoon_visual.obj
v -0.01947400 -0.00260528 0.00712000
v -0.01947400 -0.00305778 0.00703000
v -0.01536700 -0.00234628 0.00737000
v -0.01536700 -0.00274578 0.00730000
v -0.01121500 -0.00209178 0.00755000
v -0.01121500 -0.00243928 0.00749000
v -0.01947400 -0.00217188 0.00720000
v -0.01536700 -0.00196108 0.00744000
v -0.01121500 -0.00175388 0.00760000
v -0.01947400 -0.00175488 0.00727000
v -0.01536700 -0.00158798 0.00749000
v -0.01121500 -0.00142398 0.00764000
v -0.01947400 -0.00135108 0.00732000
v -0.01536700 -0.00122478 0.00754000
v -0.01121500 -0.00110078 0.00767000
v -0.01947400 -0.00095768 0.00736000
v -0.01536700 -0.00086938 0.00757000
v -0.01121500 -0.00078258 0.00770000
v -0.01947400 -0.00057168 0.00739000
v -0.01536700 -0.00051938 0.00759000
v -0.01121500 -0.00046808 0.00771000
v -0.01947400 -0.00019008 0.00740000
v -0.01536700 -0.00017278 0.00760000
v -0.01121500 -0.00015578 0.00772000
v -0.01947400 0.00019002 0.00740000
v -0.01536700 0.00017282 0.00760000
v -0.01121500 0.00015582 0.00772000
v -0.01947400 0.00057162 0.00739000
v -0.01536700 0.00051942 0.00759000
v -0.01121500 0.00046812 0.00771000
v -0.01947400 0.00095772 0.00736000
v -0.01536700 0.00086932 0.00757000
v -0.01121500 0.00078262 0.00770000
v -0.01947400 0.00135112 0.00732000
v -0.01536700 0.00122482 0.00754000
v -0.01121500 0.00110072 0.00767000
v -0.01947400 0.00175482 0.00727000
v -0.01536700 0.00158792 0.00749000
v -0.01121500 0.00142402 0.00764000
v -0.01947400 0.00217192 0.00720000
v -0.01536700 0.00196102 0.00744000
v -0.01121500 0.00175392 0.00760000
v -0.01947400 0.00260522 0.00712000
v -0.01536700 0.00234622 0.00737000
v -0.01121500 0.00209182 0.00755000
v -0.01947400 0.00305782 0.00703000
v -0.01536700 0.00274582 0.00730000
v -0.01121500 0.00243932 0.00749000
v -0.01947400 -0.00326728 0.00566000
v -0.01947400 -0.00315828 0.00565000
v -0.01536700 -0.00296468 0.00602000
v -0.01536700 -0.00286848 0.00600000
v -0.01121500 -0.00266748 0.00630000
v -0.01121500 -0.00258388 0.00628000
v -0.01947400 -0.00335788 0.00570000
v -0.01536700 -0.00304368 0.00606000
v -0.01121500 -0.00273518 0.00634000
v -0.01947400 -0.00343048 0.00576000
v -0.01536700 -0.00310608 0.00613000
v -0.01121600 -0.00278748 0.00641000
v -0.01947400 -0.00348568 0.00585000
v -0.01536700 -0.00315238 0.00621000
v -0.01121600 -0.00282498 0.00649000
v -0.01947400 -0.00352378 0.00596000
v -0.01536700 -0.00318298 0.00631000
v -0.01121600 -0.00284838 0.00659000
v -0.01947400 -0.00354518 0.00608000
v -0.01536700 -0.00319858 0.00643000
v -0.01121600 -0.00285828 0.00670000
v -0.01947400 -0.00355028 0.00621000
v -0.01536700 -0.00319958 0.00655000
v -0.01121600 -0.00285518 0.00681000
v -0.01947400 -0.00353968 0.00634000
v -0.01536700 -0.00318658 0.00667000
v -0.01121600 -0.00283988 0.00692000
v -0.01947400 -0.00351358 0.00648000
v -0.01536700 -0.00316008 0.00680000
v -0.01121600 -0.00281278 0.00704000
v -0.01947400 -0.00347258 0.00661000
v -0.01536700 -0.00312048 0.00692000
v -0.01121600 -0.00277468 0.00715000
v -0.01947400 -0.00341698 0.00673000
v -0.01536700 -0.00306848 0.00703000
v -0.01121600 -0.00272608 0.00725000
v -0.01947400 -0.00334738 0.00684000
v -0.01536700 -0.00300448 0.00713000
v -0.01121600 -0.00266768 0.00733000
v -0.01947400 -0.00326398 0.00693000
v -0.01536700 -0.00292898 0.00721000
v -0.01121600 -0.00259998 0.00741000
v -0.01947400 -0.00316728 0.00699000
v -0.01536700 -0.00284258 0.00727000
v -0.01121600 -0.00252368 0.00746000
v -0.01947400 0.00270382 0.00567000
v -0.01947400 0.00315832 0.00565000
v -0.01536700 0.00246662 0.00599000
v -0.01536700 0.00286852 0.00600000
v -0.01121500 0.00223372 0.00623000
v -0.01121500 0.00258392 0.00628000
v -0.01947400 0.00226492 0.00568000
v -0.01536700 0.00207472 0.00598000
v -0.01121500 0.00188782 0.00620000
v -0.01947400 0.00183922 0.00570000
v -0.01536700 0.00169102 0.00597000
v -0.01121600 0.00154552 0.00617000
v -0.01947400 0.00142412 0.00572000
v -0.01536700 0.00131402 0.00597000
v -0.01121600 0.00120592 0.00615000
v -0.01947400 0.00101722 0.00573000
v -0.01536700 0.00094202 0.00597000
v -0.01121600 0.00086832 0.00614000
v -0.01947400 0.00061582 0.00574000
v -0.01536700 0.00057342 0.00598000
v -0.01121600 0.00053172 0.00613000
v -0.01947400 0.00021752 0.00575000
v -0.01536700 0.00020642 0.00598000
v -0.01121600 0.00019542 0.00613000
v -0.01947400 -0.00018008 0.00575000
v -0.01536700 -0.00016058 0.00599000
v -0.01121600 -0.00014148 0.00614000
v -0.01947400 -0.00057968 0.00576000
v -0.01536700 -0.00052928 0.00599000
v -0.01121600 -0.00047968 0.00615000
v -0.01947400 -0.00098378 0.00575000
v -0.01536700 -0.00090118 0.00600000
v -0.01121600 -0.00082008 0.00617000
v -0.01947400 -0.00139468 0.00574000
v -0.01536700 -0.00127808 0.00601000
v -0.01121600 -0.00116358 0.00619000
v -0.01947400 -0.00181518 0.00573000
v -0.01536700 -0.00166168 0.00601000
v -0.01121600 -0.00151088 0.00621000
v -0.01947400 -0.00224758 0.00571000
v -0.01536700 -0.00205348 0.00601000
v -0.01121600 -0.00186278 0.00623000
v -0.01947400 -0.00269438 0.00568000
v -0.01536700 -0.00245518 0.00601000
v -0.01121600 -0.00222018 0.00626000
v -0.01947400 0.00316712 0.00699000
v -0.01536700 0.00284242 0.00727000
v -0.01121600 0.00252342 0.00746000
v -0.01947400 0.00326342 0.00693000
v -0.01536700 0.00292832 0.00721000
v -0.01121600 0.00259912 0.00741000
v -0.01947500 0.00334612 0.00684000
v -0.01536800 0.00300302 0.00713000
v -0.01121600 0.00266592 0.00734000
v -0.01947500 0.00341502 0.00673000
v -0.01536800 0.00306612 0.00703000
v -0.01121600 0.00272332 0.00725000
v -0.01947500 0.00346982 0.00661000
v -0.01536800 0.00311712 0.00692000
v -0.01121600 0.00277072 0.00715000
v -0.01947500 0.00351002 0.00649000
v -0.01536800 0.00315562 0.00681000
v -0.01121700 0.00280762 0.00705000
v -0.01947500 0.00353532 0.00635000
v -0.01536800 0.00318132 0.00668000
v -0.01121700 0.00283362 0.00694000
v -0.01947500 0.00354532 0.00622000
v -0.01536800 0.00319352 0.00656000
v -0.01121700 0.00284802 0.00682000
v -0.01947500 0.00353972 0.00609000
v -0.01536800 0.00319202 0.00644000
v -0.01121700 0.00285042 0.00671000
v -0.01947500 0.00351822 0.00597000
v -0.01536800 0.00317622 0.00633000
v -0.01121600 0.00284032 0.00660000
v -0.01947500 0.00348032 0.00586000
v -0.01536800 0.00314582 0.00623000
v -0.01121600 0.00281722 0.00651000
v -0.01947500 0.00342572 0.00577000
v -0.01536800 0.00310022 0.00614000
v -0.01121600 0.00278052 0.00642000
v -0.01947400 0.00335412 0.00570000
v -0.01536700 0.00303912 0.00607000
v -0.01121600 0.00272972 0.00635000
v -0.01947400 0.00326502 0.00566000
v -0.01536700 0.00296202 0.00602000
v -0.01121600 0.00266442 0.00631000
f 1 2 4
f 1 4 3
f 3 4 6
f 3 6 5
f 7 1 3
f 7 3 8
f 8 3 5
f 8 5 9
f 10 7 8
f 10 8 11
f 11 8 9
f 11 9 12
f 13 10 11
f 13 11 14
f 14 11 12
f 14 12 15
f 16 13 14
f 16 14 17
f 17 14 15
f 17 15 18
f 19 16 17
f 19 17 20
f 20 17 18
f 20 18 21
f 22 19 20
f 22 20 23
f 23 20 21
f 23 21 24
f 25 22 23
f 25 23 26
f 26 23 24
f 26 24 27
f 28 25 26
f 28 26 29
f 29 26 27
f 29 27 30
f 31 28 29
f 31 29 32
f 32 29 30
f 32 30 33
f 34 31 32
f 34 32 35
f 35 32 33
f 35 33 36
f 37 34 35
f 37 35 38
f 38 35 36
f 38 36 39
f 40 37 38
f 40 38 41
f 41 38 39
f 41 39 42
f 43 40 41
f 43 41 44
f 44 41 42
f 44 42 45
f 46 43 44
f 46 44 47
f 47 44 45
f 47 45 48
f 49 50 52
f 49 52 51
f 51 52 54
f 51 54 53
f 55 49 51
f 55 51 56
f 56 51 53
f 56 53 57
f 58 55 56
f 58 56 59
f 59 56 57
f 59 57 60
f 61 58 59
f 61 59 62
f 62 59 60
f 62 60 63
f 64 61 62
f 64 62 65
f 65 62 63
f 65 63 66
f 67 64 65
f 67 65 68
f 68 65 66
f 68 66 69
f 70 67 68
f 70 68 71
f 71 68 69
f 71 69 72
f 73 70 71
f 73 71 74
f 74 71 72
f 74 72 75
f 76 73 74
f 76 74 77
f 77 74 75
f 77 75 78
f 79 76 77
f 79 77 80
f 80 77 78
f 80 78 81
f 82 79 80
f 82 80 83
f 83 80 81
f 83 81 84
f 85 82 83
f 85 83 86
f 86 83 84
f 86 84 87
f 88 85 86
f 88 86 89
f 89 86 87
f 89 87 90
f 91 88 89
f 91 89 92
f 92 89 90
f 92 90 93
f 2 91 92
f 2 92 4
f 4 92 93
f 4 93 6
f 94 95 97
f 94 97 96
f 96 97 99
f 96 99 98
f 100 94 96
f 100 96 101
f 101 96 98
f 101 98 102
f 103 100 101
f 103 101 104
f 104 101 102
f 104 102 105
f 106 103 104
f 106 104 107
f 107 104 105
f 107 105 108
f 109 106 107
f 109 107 110
f 110 107 108
f 110 108 111
f 112 109 110
f 112 110 113
f 113 110 111
f 113 111 114
f 115 112 113
f 115 113 116
f 116 113 114
f 116 114 117
f 118 115 116
f 118 116 119
f 119 116 117
f 119 117 120
f 121 118 119
f 121 119 122
f 122 119 120
f 122 120 123
f 124 121 122
f 124 122 125
f 125 122 123
f 125 123 126
f 127 124 125
f 127 125 128
f 128 125 126
f 128 126 129
f 130 127 128
f 130 128 131
f 131 128 129
f 131 129 132
f 133 130 131
f 133 131 134
f 134 131 132
f 134 132 135
f 136 133 134
f 136 134 137
f 137 134 135
f 137 135 138
f 50 136 137
f 50 137 52
f 52 137 138
f 52 138 54
f 139 46 47
f 139 47 140
f 140 47 48
f 140 48 141
f 142 139 140
f 142 140 143
f 143 140 141
f 143 141 144
f 145 142 143
f 145 143 146
f 146 143 144
f 146 144 147
f 148 145 146
f 148 146 149
f 149 146 147
f 149 147 150
f 151 148 149
f 151 149 152
f 152 149 150
f 152 150 153
f 154 151 152
f 154 152 155
f 155 152 153
f 155 153 156
f 157 154 155
f 157 155 158
f 158 155 156
f 158 156 159
f 160 157 158
f 160 158 161
f 161 158 159
f 161 159 162
f 163 160 161
f 163 161 164
f 164 161 162
f 164 162 165
f 166 163 164
f 166 164 167
f 167 164 165
f 167 165 168
f 169 166 167
f 169 167 170
f 170 167 168
f 170 168 171
f 172 169 170
f 172 170 173
f 173 170 171
f 173 171 174
f 175 172 173
f 175 173 176
f 176 173 174
f 176 174 177
f 178 175 176
f 178 176 179
f 179 176 177
f 179 177 180
f 95 178 179
f 95 179 97
f 97 179 180
f 97 180 99

