# https://github.com/mikedh/trimesh

o spoon_visual.obj
v 0.01596500 -0.00128388 0.00569000
v 0.01596500 -0.00145868 0.00571000
v 0.01750600 -0.00157968 0.00520000
v 0.01750600 -0.00179488 0.00526000
v 0.01892600 -0.00203688 0.00461000
v 0.01892600 -0.00231428 0.00474000
v 0.02026000 -0.00262608 0.00393000
v 0.02026000 -0.00298368 0.00417000
v 0.02154400 -0.00331798 0.00320000
v 0.02154400 -0.00376988 0.00355000
v 0.02281200 -0.00408328 0.00243000
v 0.02281200 -0.00463928 0.00290000
v 0.01596500 -0.00110058 0.00568000
v 0.01750600 -0.00135418 0.00514000
v 0.01892600 -0.00174608 0.00449000
v 0.02026000 -0.00225128 0.00373000
v 0.02154400 -0.00284438 0.00290000
v 0.02281200 -0.00350038 0.00203000
v 0.01596500 -0.00091018 0.00566000
v 0.01750600 -0.00111988 0.00510000
v 0.01892600 -0.00144408 0.00439000
v 0.02026000 -0.00186178 0.00356000
v 0.02154400 -0.00235238 0.00266000
v 0.02281200 -0.00289488 0.00169000
v 0.01596500 -0.00071398 0.00565000
v 0.01750600 -0.00087848 0.00506000
v 0.01892600 -0.00113278 0.00431000
v 0.02026000 -0.00146048 0.00343000
v 0.02154400 -0.00184518 0.00246000
v 0.02281200 -0.00227078 0.00143000
v 0.01596500 -0.00051318 0.00565000
v 0.01750600 -0.00063148 0.00503000
v 0.01892600 -0.00081428 0.00425000
v 0.02026000 -0.00104978 0.00333000
v 0.02154400 -0.00132638 0.00231000
v 0.02281200 -0.00163228 0.00123000
v 0.01596500 -0.00030918 0.00564000
v 0.01750600 -0.00038048 0.00501000
v 0.01892600 -0.00049058 0.00421000
v 0.02026000 -0.00063248 0.00326000
v 0.02154400 -0.00079918 0.00221000
v 0.02281200 -0.00098348 0.00109000
v 0.01596500 -0.00010328 0.00564000
v 0.01750600 -0.00012708 0.00501000
v 0.01892600 -0.00016388 0.00419000
v 0.02026000 -0.00021128 0.00323000
v 0.02154400 -0.00026698 0.00216000
v 0.02281200 -0.00032848 0.00102000
v 0.01596500 0.00010332 0.00564000
v 0.01750600 0.00012712 0.00501000
v 0.01892600 0.00016392 0.00419000
v 0.02026000 0.00021132 0.00323000
v 0.02154400 0.00026692 0.00216000
v 0.02281200 0.00032852 0.00102000
v 0.01596500 0.00030922 0.00564000
v 0.01750600 0.00038052 0.00501000
v 0.01892600 0.00049062 0.00421000
v 0.02026000 0.00063252 0.00326000
v 0.02154400 0.00079922 0.00221000
v 0.02281200 0.00098352 0.00109000
v 0.01596500 0.00051322 0.00565000
v 0.01750600 0.00063152 0.00503000
v 0.01892600 0.00081422 0.00425000
v 0.02026000 0.00104982 0.00333000
v 0.02154400 0.00132642 0.00231000
v 0.02281200 0.00163232 0.00123000
v 0.01596500 0.00071402 0.00565000
v 0.01750600 0.00087852 0.00506000
v 0.01892600 0.00113282 0.00431000
v 0.02026000 0.00146042 0.00343000
v 0.02154400 0.00184522 0.00246000
v 0.02281200 0.00227082 0.00143000
v 0.01596500 0.00091022 0.00566000
v 0.01750600 0.00111992 0.00510000
v 0.01892600 0.00144412 0.00439000
v 0.02026000 0.00186182 0.00356000
v 0.02154400 0.00235232 0.00266000
v 0.02281200 0.00289492 0.00169000
v 0.01596500 0.00110062 0.00568000
v 0.01750600 0.00135422 0.00514000
v 0.01892600 0.00174612 0.00449000
v 0.02026000 0.00225122 0.00373000
v 0.02154400 0.00284442 0.00290000
v 0.02281200 0.00350042 0.00203000
v 0.01596500 0.00128392 0.00569000
v 0.01750600 0.00157972 0.00520000
v 0.01892600 0.00203692 0.00461000
v 0.02026000 0.00262612 0.00393000
v 0.02154400 0.00331802 0.00320000
v 0.02281200 0.00408322 0.00243000
v 0.01596500 0.00145872 0.00571000
v 0.01750600 0.00179482 0.00526000
v 0.01892600 0.00231432 0.00474000
v 0.02026000 0.00298372 0.00417000
v 0.02154400 0.00376982 0.00355000
v 0.02281200 0.00463932 0.00290000
v 0.01596500 -0.00174378 0.00487000
v 0.01596500 -0.00170188 0.00483000
v 0.01750600 -0.00214558 0.00447000
v 0.01750600 -0.00209398 0.00441000
v 0.01892600 -0.00276648 0.00402000
v 0.01892600 -0.00269998 0.00394000
v 0.02026000 -0.00356668 0.00353000
v 0.02026000 -0.00348098 0.00343000
v 0.02154400 -0.00450648 0.00302000
v 0.02154400 -0.00439818 0.00288000
v 0.02281200 -0.00554578 0.00249000
v 0.02281200 -0.00541248 0.00232000
v 0.01596500 -0.00177288 0.00493000
v 0.01750600 -0.00218138 0.00454000
v 0.01892600 -0.00281278 0.00411000
v 0.02026000 -0.00362638 0.00364000
v 0.02154400 -0.00458178 0.00315000
v 0.02281200 -0.00563848 0.00265000
v 0.01596500 -0.00179038 0.00500000
v 0.01750600 -0.00220288 0.00461000
v 0.01892600 -0.00284038 0.00419000
v 0.02026000 -0.00366198 0.00374000
v 0.02154400 -0.00462688 0.00327000
v 0.02281200 -0.00569398 0.00279000
v 0.01596500 -0.00179708 0.00507000
v 0.01750600 -0.00221118 0.00469000
v 0.01892600 -0.00285108 0.00428000
v 0.02026000 -0.00367578 0.00384000
v 0.02154400 -0.00464428 0.00337000
v 0.02281200 -0.00571538 0.00291000
v 0.01596500 -0.00179418 0.00515000
v 0.01750600 -0.00220758 0.00477000
v 0.01892600 -0.00284638 0.00436000
v 0.02026000 -0.00366978 0.00393000
v 0.02154400 -0.00463668 0.00347000
v 0.02281200 -0.00570598 0.00301000
v 0.01596500 -0.00178258 0.00523000
v 0.01750600 -0.00219328 0.00485000
v 0.01892600 -0.00282808 0.00444000
v 0.02026000 -0.00364608 0.00401000
v 0.02154400 -0.00460678 0.00355000
v 0.02281200 -0.00566918 0.00309000
v 0.01596500 -0.00176338 0.00531000
v 0.01750600 -0.00216968 0.00493000
v 0.01892600 -0.00279758 0.00452000
v 0.02026000 -0.00360688 0.00408000
v 0.02154400 -0.00455718 0.00362000
v 0.02281200 -0.00560818 0.00316000
v 0.01596500 -0.00173758 0.00539000
v 0.01750600 -0.00213798 0.00501000
v 0.01892600 -0.00275668 0.00459000
v 0.02026000 -0.00355408 0.00414000
v 0.02154400 -0.00449048 0.00368000
v 0.02281200 -0.00552618 0.00320000
v 0.01596500 -0.00170628 0.00546000
v 0.01750600 -0.00209938 0.00508000
v 0.01892600 -0.00270698 0.00465000
v 0.02026000 -0.00348998 0.00419000
v 0.02154400 -0.00440948 0.00371000
v 0.02281200 -0.00542638 0.00323000
v 0.01596500 -0.00167038 0.00553000
v 0.01750600 -0.00205518 0.00514000
v 0.01892600 -0.00264998 0.00470000
v 0.02026000 -0.00341658 0.00423000
v 0.02154400 -0.00431668 0.00374000
v 0.02281200 -0.00531228 0.00323000
v 0.01596500 -0.00163098 0.00559000
v 0.01750600 -0.00200668 0.00519000
v 0.01892600 -0.00258748 0.00474000
v 0.02026000 -0.00333598 0.00425000
v 0.02154400 -0.00421488 0.00374000
v 0.02281200 -0.00518698 0.00321000
v 0.01596500 -0.00158908 0.00564000
v 0.01750600 -0.00195518 0.00524000
v 0.01892600 -0.00252108 0.00477000
v 0.02026000 -0.00325028 0.00426000
v 0.02154400 -0.00410658 0.00372000
v 0.02281200 -0.00505378 0.00317000
v 0.01596500 -0.00154568 0.00568000
v 0.01750600 -0.00190188 0.00526000
v 0.01892600 -0.00245228 0.00478000
v 0.02026000 -0.00316158 0.00425000
v 0.02154400 -0.00399458 0.00368000
v 0.02281200 -0.00491588 0.00310000
v 0.01596500 -0.00150188 0.00570000
v 0.01750600 -0.00184798 0.00527000
v 0.01892600 -0.00238278 0.00477000
v 0.02026000 -0.00307208 0.00422000
v 0.02154400 -0.00388148 0.00363000
v 0.02281200 -0.00477658 0.00301000
v 0.01596500 0.00152032 0.00464000
v 0.01596500 0.00170182 0.00483000
v 0.01750600 0.00186552 0.00418000
v 0.01750600 0.00209402 0.00441000
v 0.01892600 0.00239902 0.00362000
v 0.01892600 0.00270002 0.00394000
v 0.02026000 0.00308652 0.00300000
v 0.02026000 0.00348102 0.00343000
v 0.02154400 0.00389392 0.00233000
v 0.02154400 0.00439812 0.00288000
v 0.02281200 0.00478682 0.00163000
v 0.02281200 0.00541252 0.00232000
v 0.01596500 0.00132232 0.00449000
v 0.01750600 0.00161812 0.00398000
v 0.01892600 0.00207542 0.00335000
v 0.02026000 0.00266462 0.00264000
v 0.02154400 0.00335662 0.00186000
v 0.02281200 0.00412192 0.00104000
v 0.01596500 0.00111002 0.00437000
v 0.01750600 0.00135452 0.00382000
v 0.01892600 0.00173242 0.00313000
v 0.02026000 0.00221942 0.00234000
v 0.02154400 0.00279122 0.00147000
v 0.02281200 0.00342372 0.00055000
v 0.01596500 0.00088592 0.00428000
v 0.01750600 0.00107742 0.00370000
v 0.01892600 0.00137332 0.00296000
v 0.02026000 0.00175482 0.00211000
v 0.02154400 0.00220262 0.00116000
v 0.02281200 0.00269802 0.00016000
v 0.01596500 0.00065222 0.00421000
v 0.01750600 0.00078942 0.00361000
v 0.01892600 0.00100152 0.00284000
v 0.02026000 0.00127482 0.00194000
v 0.02154400 0.00159582 0.00094000
v 0.02281200 0.00195082 -0.00013000
v 0.01596500 0.00041122 0.00417000
v 0.01750600 0.00049332 0.00355000
v 0.01892600 0.00062022 0.00276000
v 0.02026000 0.00078362 0.00182000
v 0.02154400 0.00097562 0.00079000
v 0.02281200 0.00118792 -0.00031000
v 0.01596500 0.00016532 0.00416000
v 0.01750600 0.00019172 0.00353000
v 0.01892600 0.00023262 0.00272000
v 0.02026000 0.00028522 0.00177000
v 0.02154400 0.00034692 0.00072000
v 0.02281200 0.00041522 -0.00041000
v 0.01596500 -0.00008318 0.00417000
v 0.01750600 -0.00011258 0.00354000
v 0.01892600 -0.00015798 0.00273000
v 0.02026000 -0.00021658 0.00178000
v 0.02154400 -0.00028528 0.00073000
v 0.02281200 -0.00036128 -0.00040000
v 0.01596500 -0.00033198 0.00421000
v 0.01750600 -0.00041698 0.00358000
v 0.01892600 -0.00054828 0.00279000
v 0.02026000 -0.00071748 0.00185000
v 0.02154400 -0.00091618 0.00081000
v 0.02281200 -0.00113588 -0.00029000
v 0.01596500 -0.00057888 0.00426000
v 0.01750600 -0.00071878 0.00365000
v 0.01892600 -0.00093498 0.00288000
v 0.02026000 -0.00121358 0.00198000
v 0.02154400 -0.00154078 0.00097000
v 0.02281200 -0.00190268 -0.00009000
v 0.01596500 -0.00082138 0.00434000
v 0.01750600 -0.00101518 0.00375000
v 0.01892600 -0.00131478 0.00302000
v 0.02026000 -0.00170088 0.00216000
v 0.02154400 -0.00215418 0.00121000
v 0.02281200 -0.00265568 0.00020000
v 0.01596500 -0.00105718 0.00443000
v 0.01750600 -0.00130368 0.00388000
v 0.01892600 -0.00168448 0.00319000
v 0.02026000 -0.00217528 0.00239000
v 0.02154400 -0.00275158 0.00152000
v 0.02281200 -0.00338898 0.00059000
v 0.01596500 -0.00128418 0.00455000
v 0.01750600 -0.00158138 0.00403000
v 0.01892600 -0.00204078 0.00341000
v 0.02026000 -0.00263278 0.00269000
v 0.02154400 -0.00332798 0.00190000
v 0.02281200 -0.00409688 0.00108000
v 0.01596500 -0.00149978 0.00468000
v 0.01750600 -0.00184568 0.00421000
v 0.01892600 -0.00238038 0.00366000
v 0.02026000 -0.00306938 0.00303000
v 0.02154400 -0.00387848 0.00236000
v 0.02281200 -0.00477328 0.00165000
v 0.01596500 0.00150162 0.00570000
v 0.01750600 0.00184772 0.00527000
v 0.01892600 0.00238252 0.00477000
v 0.02026000 0.00307182 0.00422000
v 0.02154400 0.00388122 0.00363000
v 0.02281200 0.00477642 0.00302000
v 0.01596500 0.00154442 0.00568000
v 0.01750600 0.00190062 0.00526000
v 0.01892600 0.00245112 0.00478000
v 0.02026000 0.00316062 0.00425000
v 0.02154400 0.00399362 0.00369000
v 0.02281200 0.00491502 0.00311000
v 0.01596500 0.00158642 0.00565000
v 0.01750600 0.00195262 0.00524000
v 0.01892600 0.00251862 0.00477000
v 0.02026000 0.00324812 0.00426000
v 0.02154400 0.00410462 0.00373000
v 0.02281200 0.00505202 0.00317000
v 0.01596500 0.00162662 0.00560000
v 0.01750600 0.00200262 0.00520000
v 0.01892600 0.00258362 0.00475000
v 0.02026000 0.00333242 0.00426000
v 0.02154400 0.00421172 0.00374000
v 0.02281200 0.00518412 0.00322000
v 0.01596500 0.00166422 0.00555000
v 0.01750600 0.00204932 0.00515000
v 0.01892600 0.00264452 0.00472000
v 0.02026000 0.00341152 0.00424000
v 0.02154400 0.00431212 0.00374000
v 0.02281200 0.00530832 0.00324000
v 0.01596500 0.00169832 0.00548000
v 0.01750600 0.00209172 0.00510000
v 0.01892600 0.00269982 0.00467000
v 0.02026000 0.00348342 0.00421000
v 0.02154400 0.00440352 0.00373000
v 0.02281200 0.00542122 0.00324000
v 0.01596500 0.00172802 0.00541000
v 0.01750600 0.00212872 0.00503000
v 0.01892600 0.00274802 0.00461000
v 0.02026000 0.00354612 0.00416000
v 0.02154400 0.00448332 0.00369000
v 0.02281200 0.00551982 0.00322000
v 0.01596500 0.00175242 0.00533000
v 0.01750600 0.00215912 0.00496000
v 0.01892600 0.00278772 0.00454000
v 0.02026000 0.00359772 0.00410000
v 0.02154400 0.00454892 0.00364000
v 0.02281200 0.00560102 0.00317000
v 0.01596500 0.00177072 0.00525000
v 0.01750600 0.00218192 0.00488000
v 0.01892600 0.00281732 0.00447000
v 0.02026000 0.00363622 0.00403000
v 0.02154400 0.00459782 0.00357000
v 0.02281200 0.00566142 0.00311000
v 0.01596500 0.00178192 0.00517000
v 0.01750600 0.00219582 0.00480000
v 0.01892600 0.00283532 0.00439000
v 0.02026000 0.00365962 0.00395000
v 0.02154400 0.00462752 0.00349000
v 0.02281200 0.00569802 0.00303000
v 0.01596500 0.00178532 0.00509000
v 0.01750600 0.00219982 0.00472000
v 0.01892600 0.00284032 0.00430000
v 0.02026000 0.00366592 0.00385000
v 0.02154400 0.00463542 0.00339000
v 0.02281200 0.00570762 0.00292000
v 0.01596500 0.00177982 0.00502000
v 0.01750600 0.00219272 0.00463000
v 0.01892600 0.00283082 0.00421000
v 0.02026000 0.00365322 0.00376000
v 0.02154400 0.00461892 0.00328000
v 0.02281200 0.00568702 0.00280000
v 0.01596500 0.00176462 0.00495000
v 0.01750600 0.00217352 0.00456000
v 0.01892600 0.00280522 0.00412000
v 0.02026000 0.00361952 0.00365000
v 0.02154400 0.00457562 0.00316000
v 0.02281200 0.00563312 0.00266000
v 0.01596500 0.00173902 0.00488000
v 0.01750600 0.00214092 0.00448000
v 0.01892600 0.00276212 0.00403000
v 0.02026000 0.00356272 0.00354000
v 0.02154400 0.00450282 0.00303000
v 0.02281200 0.00554262 0.00250000
f 1 2 4
f 1 4 3
f 3 4 6
f 3 6 5
f 5 6 8
f 5 8 7
f 7 8 10
f 7 10 9
f 9 10 12
f 9 12 11
f 13 1 3
f 13 3 14
f 14 3 5
f 14 5 15
f 15 5 7
f 15 7 16
f 16 7 9
f 16 9 17
f 17 9 11
f 17 11 18
f 19 13 14
f 19 14 20
f 20 14 15
f 20 15 21
f 21 15 16
f 21 16 22
f 22 16 17
f 22 17 23
f 23 17 18
f 23 18 24
f 25 19 20
f 25 20 26
f 26 20 21
f 26 21 27
f 27 21 22
f 27 22 28
f 28 22 23
f 28 23 29
f 29 23 24
f 29 24 30
f 31 25 26
f 31 26 32
f 32 26 27
f 32 27 33
f 33 27 28
f 33 28 34
f 34 28 29
f 34 29 35
f 35 29 30
f 35 30 36
f 37 31 32
f 37 32 38
f 38 32 33
f 38 33 39
f 39 33 34
f 39 34 40
f 40 34 35
f 40 35 41
f 41 35 36
f 41 36 42
f 43 37 38
f 43 38 44
f 44 38 39
f 44 39 45
f 45 39 40
f 45 40 46
f 46 40 41
f 46 41 47
f 47 41 42
f 47 42 48
f 49 43 44
f 49 44 50
f 50 44 45
f 50 45 51
f 51 45 46
f 51 46 52
f 52 46 47
f 52 47 53
f 53 47 48
f 53 48 54
f 55 49 50
f 55 50 56
f 56 50 51
f 56 51 57
f 57 51 52
f 57 52 58
f 58 52 53
f 58 53 59
f 59 53 54
f 59 54 60
f 61 55 56
f 61 56 62
f 62 56 57
f 62 57 63
f 63 57 58
f 63 58 64
f 64 58 59
f 64 59 65
f 65 59 60
f 65 60 66
f 67 61 62
f 67 62 68
f 68 62 63
f 68 63 69
f 69 63 64
f 69 64 70
f 70 64 65
f 70 65 71
f 71 65 66
f 71 66 72
f 73 67 68
f 73 68 74
f 74 68 69
f 74 69 75
f 75 69 70
f 75 70 76
f 76 70 71
f 76 71 77
f 77 71 72
f 77 72 78
f 79 73 74
f 79 74 80
f 80 74 75
f 80 75 81
f 81 75 76
f 81 76 82
f 82 76 77
f 82 77 83
f 83 77 78
f 83 78 84
f 85 79 80
f 85 80 86
f 86 80 81
f 86 81 87
f 87 81 82
f 87 82 88
f 88 82 83
f 88 83 89
f 89 83 84
f 89 84 90
f 91 85 86
f 91 86 92
f 92 86 87
f 92 87 93
f 93 87 88
f 93 88 94
f 94 88 89
f 94 89 95
f 95 89 90
f 95 90 96
f 97 98 100
f 97 100 99
f 99 100 102
f 99 102 101
f 101 102 104
f 101 104 103
f 103 104 106
f 103 106 105
f 105 106 108
f 105 108 107
f 109 97 99
f 109 99 110
f 110 99 101
f 110 101 111
f 111 101 103
f 111 103 112
f 112 103 105
f 112 105 113
f 113 105 107
f 113 107 114
f 115 109 110
f 115 110 116
f 116 110 111
f 116 111 117
f 117 111 112
f 117 112 118
f 118 112 113
f 118 113 119
f 119 113 114
f 119 114 120
f 121 115 116
f 121 116 122
f 122 116 117
f 122 117 123
f 123 117 118
f 123 118 124
f 124 118 119
f 124 119 125
f 125 119 120
f 125 120 126
f 127 121 122
f 127 122 128
f 128 122 123
f 128 123 129
f 129 123 124
f 129 124 130
f 130 124 125
f 130 125 131
f 131 125 126
f 131 126 132
f 133 127 128
f 133 128 134
f 134 128 129
f 134 129 135
f 135 129 130
f 135 130 136
f 136 130 131
f 136 131 137
f 137 131 132
f 137 132 138
f 139 133 134
f 139 134 140
f 140 134 135
f 140 135 141
f 141 135 136
f 141 136 142
f 142 136 137
f 142 137 143
f 143 137 138
f 143 138 144
f 145 139 140
f 145 140 146
f 146 140 141
f 146 141 147
f 147 141 142
f 147 142 148
f 148 142 143
f 148 143 149
f 149 143 144
f 149 144 150
f 151 145 146
f 151 146 152
f 152 146 147
f 152 147 153
f 153 147 148
f 153 148 154
f 154 148 149
f 154 149 155
f 155 149 150
f 155 150 156
f 157 151 152
f 157 152 158
f 158 152 153
f 158 153 159
f 159 153 154
f 159 154 160
f 160 154 155
f 160 155 161
f 161 155 156
f 161 156 162
f 163 157 158
f 163 158 164
f 164 158 159
f 164 159 165
f 165 159 160
f 165 160 166
f 166 160 161
f 166 161 167
f 167 161 162
f 167 162 168
f 169 163 164
f 169 164 170
f 170 164 165
f 170 165 171
f 171 165 166
f 171 166 172
f 172 166 167
f 172 167 173
f 173 167 168
f 173 168 174
f 175 169 170
f 175 170 176
f 176 170 171
f 176 171 177
f 177 171 172
f 177 172 178
f 178 172 173
f 178 173 179
f 179 173 174
f 179 174 180
f 181 175 176
f 181 176 182
f 182 176 177
f 182 177 183
f 183 177 178
f 183 178 184
f 184 178 179
f 184 179 185
f 185 179 180
f 185 180 186
f 2 181 182
f 2 182 4
f 4 182 183
f 4 183 6
f 6 183 184
f 6 184 8
f 8 184 185
f 8 185 10
f 10 185 186
f 10 186 12
f 187 188 190
f 187 190 189
f 189 190 192
f 189 192 191
f 191 192 194
f 191 194 193
f 193 194 196
f 193 196 195
f 195 196 198
f 195 198 197
f 199 187 189
f 199 189 200
f 200 189 191
f 200 191 201
f 201 191 193
f 201 193 202
f 202 193 195
f 202 195 203
f 203 195 197
f 203 197 204
f 205 199 200
f 205 200 206
f 206 200 201
f 206 201 207
f 207 201 202
f 207 202 208
f 208 202 203
f 208 203 209
f 209 203 204
f 209 204 210
f 211 205 206
f 211 206 212
f 212 206 207
f 212 207 213
f 213 207 208
f 213 208 214
f 214 208 209
f 214 209 215
f 215 209 210
f 215 210 216
f 217 211 212
f 217 212 218
f 218 212 213
f 218 213 219
f 219 213 214
f 219 214 220
f 220 214 215
f 220 215 221
f 221 215 216
f 221 216 222
f 223 217 218
f 223 218 224
f 224 218 219
f 224 219 225
f 225 219 220
f 225 220 226
f 226 220 221
f 226 221 227
f 227 221 222
f 227 222 228
f 229 223 224
f 229 224 230
f 230 224 225
f 230 225 231
f 231 225 226
f 231 226 232
f 232 226 227
f 232 227 233
f 233 227 228
f 233 228 234
f 235 229 230
f 235 230 236
f 236 230 231
f 236 231 237
f 237 231 232
f 237 232 238
f 238 232 233
f 238 233 239
f 239 233 234
f 239 234 240
f 241 235 236
f 241 236 242
f 242 236 237
f 242 237 243
f 243 237 238
f 243 238 244
f 244 238 239
f 244 239 245
f 245 239 240
f 245 240 246
f 247 241 242
f 247 242 248
f 248 242 243
f 248 243 249
f 249 243 244
f 249 244 250
f 250 244 245
f 250 245 251
f 251 245 246
f 251 246 252
f 253 247 248
f 253 248 254
f 254 248 249
f 254 249 255
f 255 249 250
f 255 250 256
f 256 250 251
f 256 251 257
f 257 251 252
f 257 252 258
f 259 253 254
f 259 254 260
f 260 254 255
f 260 255 261
f 261 255 256
f 261 256 262
f 262 256 257
f 262 257 263
f 263 257 258
f 263 258 264
f 265 259 260
f 265 260 266
f 266 260 261
f 266 261 267
f 267 261 262
f 267 262 268
f 268 262 263
f 268 263 269
f 269 263 264
f 269 264 270
f 271 265 266
f 271 266 272
f 272 266 267
f 272 267 273
f 273 267 268
f 273 268 274
f 274 268 269
f 274 269 275
f 275 269 270
f 275 270 276
f 98 271 272
f 98 272 100
f 100 272 273
f 100 273 102
f 102 273 274
f 102 274 104
f 104 274 275
f 104 275 106
f 106 275 276
f 106 276 108
f 277 91 92
f 277 92 278
f 278 92 93
f 278 93 279
f 279 93 94
f 279 94 280
f 280 94 95
f 280 95 281
f 281 95 96
f 281 96 282
f 283 277 278
f 283 278 284
f 284 278 279
f 284 279 285
f 285 279 280
f 285 280 286
f 286 280 281
f 286 281 287
f 287 281 282
f 287 282 288
f 289 283 284
f 289 284 290
f 290 284 285
f 290 285 291
f 291 285 286
f 291 286 292
f 292 286 287
f 292 287 293
f 293 287 288
f 293 288 294
f 295 289 290
f 295 290 296
f 296 290 291
f 296 291 297
f 297 291 292
f 297 292 298
f 298 292 293
f 298 293 299
f 299 293 294
f 299 294 300
f 301 295 296
f 301 296 302
f 302 296 297
f 302 297 303
f 303 297 298
f 303 298 304
f 304 298 299
f 304 299 305
f 305 299 300
f 305 300 306
f 307 301 302
f 307 302 308
f 308 302 303
f 308 303 309
f 309 303 304
f 309 304 310
f 310 304 305
f 310 305 311
f 311 305 306
f 311 306 312
f 313 307 308
f 313 308 314
f 314 308 309
f 314 309 315
f 315 309 310
f 315 310 316
f 316 310 311
f 316 311 317
f 317 311 312
f 317 312 318
f 319 313 314
f 319 314 320
f 320 314 315
f 320 315 321
f 321 315 316
f 321 316 322
f 322 316 317
f 322 317 323
f 323 317 318
f 323 318 324
f 325 319 320
f 325 320 326
f 326 320 321
f 326 321 327
f 327 321 322
f 327 322 328
f 328 322 323
f 328 323 329
f 329 323 324
f 329 324 330
f 331 325 326
f 331 326 332
f 332 326 327
f 332 327 333
f 333 327 328
f 333 328 334
f 334 328 329
f 334 329 335
f 335 329 330
f 335 330 336
f 337 331 332
f 337 332 338
f 338 332 333
f 338 333 339
f 339 333 334
f 339 334 340
f 340 334 335
f 340 335 341
f 341 335 336
f 341 336 342
f 343 337 338
f 343 338 344
f 344 338 339
f 344 339 345
f 345 339 340
f 345 340 346
f 346 340 341
f 346 341 347
f 347 341 342
f 347 342 348
f 349 343 344
f 349 344 350
f 350 344 345
f 350 345 351
f 351 345 346
f 351 346 352
f 352 346 347
f 352 347 353
f 353 347 348
f 353 348 354
f 355 349 350
f 355 350 356
f 356 350 351
f 356 351 357
f 357 351 352
f 357 352 358
f 358 352 353
f 358 353 359
f 359 353 354
f 359 354 360
f 188 355 356
f 188 356 190
f 190 356 357
f 190 357 192
f 192 357 358
f 192 358 194
f 194 358 359
f 194 359 196
f 196 359 360
f 196 360 198

