# https://github.com/mikedh/trimesh

o spoon_visual.obj
v -0.06063200 -0.00080708 0.00250000
v -0.06063200 -0.00099018 0.00250000
v -0.06073100 0.00000002 0.00249000
v -0.06035600 -0.00149188 0.00255000
v -0.06035600 -0.00182648 0.00254000
v -0.05991800 -0.00206468 0.00262000
v -0.05991800 -0.00252148 0.00260000
v -0.05932800 -0.00253528 0.00272000
v -0.05932800 -0.00308788 0.00269000
v -0.05859900 -0.00291358 0.00283000
v -0.05859900 -0.00353838 0.00279000
v -0.05774400 -0.00320918 0.00297000
v -0.05774400 -0.00388568 0.00291000
v -0.05677600 -0.00343208 0.00312000
v -0.05677600 -0.00414258 0.00304000
v -0.05570700 -0.00359208 0.00328000
v -0.05570700 -0.00432168 0.00318000
v -0.05455000 -0.00369888 0.00344000
v -0.05455000 -0.00443568 0.00334000
v -0.05331600 -0.00376228 0.00362000
v -0.05331600 -0.00449738 0.00349000
v -0.06063200 -0.00064668 0.00250000
v -0.06035600 -0.00119718 0.00256000
v -0.05991800 -0.00166038 0.00264000
v -0.05932800 -0.00204388 0.00274000
v -0.05859900 -0.00235498 0.00287000
v -0.05774400 -0.00260118 0.00302000
v -0.05677600 -0.00278988 0.00318000
v -0.05570700 -0.00292858 0.00335000
v -0.05455000 -0.00302458 0.00354000
v -0.05331600 -0.00308548 0.00372000
v -0.06063200 -0.00050548 0.00251000
v -0.06035600 -0.00093598 0.00256000
v -0.05991800 -0.00130038 0.00265000
v -0.05932800 -0.00160398 0.00276000
v -0.05859900 -0.00185238 0.00290000
v -0.05774400 -0.00205098 0.00306000
v -0.05677600 -0.00220538 0.00323000
v -0.05570700 -0.00232098 0.00342000
v -0.05455000 -0.00240338 0.00361000
v -0.05331600 -0.00245798 0.00381000
v -0.06063200 -0.00037968 0.00251000
v -0.06035600 -0.00070218 0.00257000
v -0.05991800 -0.00097638 0.00266000
v -0.05932800 -0.00120608 0.00278000
v -0.05859900 -0.00139538 0.00293000
v -0.05774400 -0.00154798 0.00309000
v -0.05677600 -0.00166788 0.00328000
v -0.05570700 -0.00175908 0.00347000
v -0.05455000 -0.00182538 0.00368000
v -0.05331600 -0.00187068 0.00388000
v -0.06063200 -0.00026578 0.00251000
v -0.06035600 -0.00048948 0.00257000
v -0.05991800 -0.00068028 0.00267000
v -0.05932800 -0.00084078 0.00279000
v -0.05859900 -0.00097368 0.00295000
v -0.05774400 -0.00108158 0.00312000
v -0.05677600 -0.00116698 0.00331000
v -0.05570700 -0.00123258 0.00351000
v -0.05455000 -0.00128088 0.00372000
v -0.05331600 -0.00131468 0.00393000
v -0.06063200 -0.00016008 0.00251000
v -0.06035600 -0.00029148 0.00257000
v -0.05991800 -0.00040378 0.00267000
v -0.05932800 -0.00049848 0.00280000
v -0.05859900 -0.00057708 0.00296000
v -0.05774400 -0.00064108 0.00314000
v -0.05677600 -0.00069198 0.00333000
v -0.05570700 -0.00073118 0.00354000
v -0.05455000 -0.00076038 0.00375000
v -0.05331600 -0.00078088 0.00397000
v -0.06063200 -0.00005888 0.00251000
v -0.06035600 -0.00010198 0.00257000
v -0.05991800 -0.00013878 0.00267000
v -0.05932800 -0.00016968 0.00281000
v -0.05859900 -0.00019528 0.00296000
v -0.05774400 -0.00021598 0.00314000
v -0.05677600 -0.00023228 0.00334000
v -0.05570700 -0.00024478 0.00355000
v -0.05455000 -0.00025398 0.00377000
v -0.05331600 -0.00026038 0.00399000
v -0.06063200 0.00004142 0.00251000
v -0.06035600 0.00008522 0.00257000
v -0.05991800 0.00012302 0.00267000
v -0.05932800 0.00015512 0.00281000
v -0.05859900 0.00018222 0.00296000
v -0.05774400 0.00020452 0.00314000
v -0.05677600 0.00022262 0.00334000
v -0.05570700 0.00023692 0.00355000
v -0.05455000 0.00024782 0.00377000
v -0.05331600 0.00025582 0.00399000
v -0.06063200 0.00014452 0.00251000
v -0.06035600 0.00027652 0.00257000
v -0.05991800 0.00038972 0.00267000
v -0.05932800 0.00048552 0.00280000
v -0.05859900 0.00056542 0.00296000
v -0.05774400 0.00063092 0.00314000
v -0.05677600 0.00068332 0.00333000
v -0.05570700 0.00072412 0.00354000
v -0.05455000 0.00075482 0.00375000
v -0.05331600 0.00077682 0.00397000
v -0.06063200 0.00025402 0.00251000
v -0.06035600 0.00047812 0.00257000
v -0.05991800 0.00066962 0.00267000
v -0.05932800 0.00083102 0.00279000
v -0.05859900 0.00096492 0.00295000
v -0.05774400 0.00107382 0.00312000
v -0.05677600 0.00116042 0.00331000
v -0.05570700 0.00122712 0.00351000
v -0.05455000 0.00127672 0.00372000
v -0.05331600 0.00131162 0.00393000
v -0.06063200 0.00037362 0.00251000
v -0.06035600 0.00069632 0.00257000
v -0.05991800 0.00097082 0.00266000
v -0.05932800 0.00120102 0.00278000
v -0.05859900 0.00139072 0.00293000
v -0.05774400 0.00154392 0.00309000
v -0.05677600 0.00166452 0.00328000
v -0.05570700 0.00175622 0.00347000
v -0.05455000 0.00182312 0.00368000
v -0.05331600 0.00186912 0.00388000
v -0.06063200 0.00050682 0.00251000
v -0.06035600 0.00093742 0.00256000
v -0.05991800 0.00130162 0.00265000
v -0.05932800 0.00160512 0.00276000
v -0.05859900 0.00185342 0.00290000
v -0.05774400 0.00205192 0.00306000
v -0.05677600 0.00220612 0.00323000
v -0.05570700 0.00232162 0.00342000
v -0.05455000 0.00240382 0.00361000
v -0.05331600 0.00245832 0.00381000
v -0.06073100 0.00001252 0.00249000
v -0.06063200 0.00065752 0.00250000
v -0.06035600 0.00120752 0.00256000
v -0.05991800 0.00167022 0.00264000
v -0.05932800 0.00205292 0.00274000
v -0.05859900 0.00236312 0.00287000
v -0.05774400 0.00260822 0.00302000
v -0.05677600 0.00279592 0.00318000
v -0.05570700 0.00293352 0.00335000
v -0.05455000 0.00302842 0.00354000
v -0.05331600 0.00308832 0.00372000
v -0.06073100 0.00002282 0.00249000
v -0.06063200 0.00082912 0.00250000
v -0.06035600 0.00151312 0.00255000
v -0.05991800 0.00208472 0.00262000
v -0.05932800 0.00255372 0.00272000
v -0.05859900 0.00293012 0.00283000
v -0.05774400 0.00322372 0.00297000
v -0.05677600 0.00344442 0.00312000
v -0.05570700 0.00360212 0.00328000
v -0.05455000 0.00370672 0.00344000
v -0.05331600 0.00376812 0.00362000
v -0.06073100 0.00003572 0.00249000
v -0.06063200 0.00102542 0.00250000
v -0.06035600 0.00186042 0.00254000
v -0.05991800 0.00255342 0.00260000
v -0.05932800 0.00311732 0.00269000
v -0.05859900 0.00356482 0.00279000
v -0.05774400 0.00390882 0.00291000
v -0.05677600 0.00416222 0.00304000
v -0.05570700 0.00433772 0.00318000
v -0.05455000 0.00444832 0.00334000
v -0.05331600 0.00450662 0.00349000
v -0.06073100 -0.00003528 0.00072000
v -0.06063200 -0.00107068 0.00074000
v -0.06063200 -0.00102548 0.00072000
v -0.06035600 -0.00194318 0.00078000
v -0.06035600 -0.00186048 0.00076000
v -0.05991800 -0.00266638 0.00084000
v -0.05991800 -0.00255348 0.00082000
v -0.05932800 -0.00325368 0.00092000
v -0.05932800 -0.00311728 0.00090000
v -0.05859900 -0.00371878 0.00102000
v -0.05859900 -0.00356478 0.00101000
v -0.05774400 -0.00407528 0.00113000
v -0.05774400 -0.00390888 0.00112000
v -0.05677600 -0.00433658 0.00126000
v -0.05677600 -0.00416228 0.00126000
v -0.05570700 -0.00451638 0.00140000
v -0.05570700 -0.00433778 0.00140000
v -0.05455000 -0.00462818 0.00155000
v -0.05455000 -0.00444828 0.00155000
v -0.05331600 -0.00468548 0.00170000
v -0.05331600 -0.00450658 0.00171000
v -0.06073100 -0.00003398 0.00079000
v -0.06063200 -0.00110858 0.00080000
v -0.06035600 -0.00201328 0.00084000
v -0.05991800 -0.00276238 0.00090000
v -0.05932800 -0.00336988 0.00098000
v -0.05859900 -0.00385008 0.00107000
v -0.05774400 -0.00421728 0.00118000
v -0.05677600 -0.00448548 0.00131000
v -0.05570700 -0.00466898 0.00144000
v -0.05455000 -0.00478198 0.00159000
v -0.05331600 -0.00483858 0.00174000
v -0.06073100 -0.00003198 0.00089000
v -0.06063200 -0.00113928 0.00090000
v -0.06035600 -0.00207088 0.00094000
v -0.05991800 -0.00284158 0.00099000
v -0.05932800 -0.00346598 0.00107000
v -0.05859900 -0.00395888 0.00116000
v -0.05774400 -0.00433498 0.00127000
v -0.05677600 -0.00460908 0.00139000
v -0.05570700 -0.00479578 0.00153000
v -0.05455000 -0.00490988 0.00167000
v -0.05331600 -0.00496598 0.00181000
v -0.06073100 -0.00002948 0.00101000
v -0.06063200 -0.00116288 0.00103000
v -0.06035600 -0.00211598 0.00106000
v -0.05991800 -0.00290398 0.00112000
v -0.05932800 -0.00354198 0.00119000
v -0.05859900 -0.00404518 0.00128000
v -0.05774400 -0.00442858 0.00139000
v -0.05677600 -0.00470748 0.00151000
v -0.05570700 -0.00489678 0.00164000
v -0.05455000 -0.00501178 0.00178000
v -0.05331600 -0.00506758 0.00192000
v -0.06073100 -0.00002648 0.00116000
v -0.06063200 -0.00117948 0.00118000
v -0.06035600 -0.00214878 0.00121000
v -0.05991800 -0.00294988 0.00127000
v -0.05932800 -0.00359818 0.00134000
v -0.05859900 -0.00410908 0.00143000
v -0.05774400 -0.00449808 0.00153000
v -0.05677600 -0.00478058 0.00165000
v -0.05570700 -0.00497208 0.00178000
v -0.05455000 -0.00508788 0.00192000
v -0.05331600 -0.00514358 0.00206000
v -0.06073100 -0.00002318 0.00133000
v -0.06063200 -0.00118928 0.00134000
v -0.06035600 -0.00216938 0.00138000
v -0.05991800 -0.00297928 0.00143000
v -0.05932800 -0.00363458 0.00150000
v -0.05859900 -0.00415078 0.00159000
v -0.05774400 -0.00454358 0.00170000
v -0.05677600 -0.00482868 0.00181000
v -0.05570700 -0.00502168 0.00194000
v -0.05455000 -0.00513818 0.00207000
v -0.05331600 -0.00519388 0.00222000
v -0.06073100 -0.00001968 0.00151000
v -0.06063200 -0.00119228 0.00152000
v -0.06035600 -0.00217798 0.00155000
v -0.05991800 -0.00299238 0.00160000
v -0.05932800 -0.00365118 0.00168000
v -0.05859900 -0.00417018 0.00177000
v -0.05774400 -0.00456508 0.00187000
v -0.05677600 -0.00485168 0.00198000
v -0.05570700 -0.00504558 0.00211000
v -0.05455000 -0.00516258 0.00225000
v -0.05331600 -0.00521848 0.00239000
v -0.06073100 -0.00001608 0.00168000
v -0.06063200 -0.00118878 0.00170000
v -0.06035600 -0.00217458 0.00173000
v -0.05991800 -0.00298918 0.00178000
v -0.05932800 -0.00364828 0.00186000
v -0.05859900 -0.00416758 0.00194000
v -0.05774400 -0.00456278 0.00205000
v -0.05677600 -0.00484968 0.00216000
v -0.05570700 -0.00504398 0.00229000
v -0.05455000 -0.00516138 0.00242000
v -0.05331600 -0.00521758 0.00257000
v -0.06073100 -0.00001258 0.00186000
v -0.06063200 -0.00117878 0.00187000
v -0.06035600 -0.00215938 0.00190000
v -0.05991800 -0.00296988 0.00196000
v -0.05932800 -0.00362578 0.00203000
v -0.05859900 -0.00414288 0.00212000
v -0.05774400 -0.00453668 0.00222000
v -0.05677600 -0.00482288 0.00234000
v -0.05570700 -0.00501688 0.00247000
v -0.05455000 -0.00513438 0.00260000
v -0.05331600 -0.00519108 0.00274000
v -0.06073100 -0.00000928 0.00202000
v -0.06063200 -0.00116248 0.00204000
v -0.06035600 -0.00213248 0.00207000
v -0.05991800 -0.00293448 0.00213000
v -0.05932800 -0.00358398 0.00220000
v -0.05859900 -0.00409638 0.00229000
v -0.05774400 -0.00448698 0.00239000
v -0.05677600 -0.00477118 0.00251000
v -0.05570700 -0.00496428 0.00264000
v -0.05455000 -0.00508188 0.00278000
v -0.05331600 -0.00513908 0.00292000
v -0.06073100 -0.00000628 0.00217000
v -0.06063200 -0.00113998 0.00219000
v -0.06035600 -0.00209398 0.00222000
v -0.05991800 -0.00288328 0.00228000
v -0.05932800 -0.00352288 0.00235000
v -0.05859900 -0.00402798 0.00244000
v -0.05774400 -0.00441358 0.00255000
v -0.05677600 -0.00469468 0.00267000
v -0.05570700 -0.00488638 0.00280000
v -0.05455000 -0.00500368 0.00294000
v -0.05331600 -0.00506158 0.00308000
v -0.06073100 -0.00000368 0.00230000
v -0.06063200 -0.00111138 0.00231000
v -0.06035600 -0.00204398 0.00235000
v -0.05991800 -0.00281618 0.00241000
v -0.05932800 -0.00344268 0.00248000
v -0.05859900 -0.00393798 0.00258000
v -0.05774400 -0.00431668 0.00269000
v -0.05677600 -0.00459348 0.00281000
v -0.05570700 -0.00478308 0.00294000
v -0.05455000 -0.00489988 0.00308000
v -0.05331600 -0.00495868 0.00323000
v -0.06073100 -0.00000178 0.00240000
v -0.06063200 -0.00107678 0.00241000
v -0.06035600 -0.00198268 0.00245000
v -0.05991800 -0.00273348 0.00251000
v -0.05932800 -0.00334328 0.00259000
v -0.05859900 -0.00382628 0.00268000
v -0.05774400 -0.00419638 0.00280000
v -0.05677600 -0.00446778 0.00292000
v -0.05570700 -0.00465448 0.00306000
v -0.05455000 -0.00477058 0.00320000
v -0.05331600 -0.00483028 0.00335000
v -0.06073100 -0.00000048 0.00246000
v -0.06063200 -0.00103638 0.00248000
v -0.06035600 -0.00191008 0.00252000
v -0.05991800 -0.00263518 0.00258000
v -0.05932800 -0.00322498 0.00266000
v -0.05859900 -0.00369298 0.00276000
v -0.05774400 -0.00405268 0.00287000
v -0.05677600 -0.00431738 0.00300000
v -0.05570700 -0.00450068 0.00314000
v -0.05455000 -0.00461588 0.00329000
v -0.05331600 -0.00467648 0.00344000
v -0.06063200 0.00084102 0.00072000
v -0.06063200 0.00102542 0.00072000
v -0.06073100 0.00003572 0.00070000
v -0.06035600 0.00152452 0.00076000
v -0.06035600 0.00186042 0.00076000
v -0.05991800 0.00209552 0.00084000
v -0.05991800 0.00255342 0.00082000
v -0.05932800 0.00256362 0.00093000
v -0.05932800 0.00311732 0.00090000
v -0.05859900 0.00293902 0.00105000
v -0.05859900 0.00356482 0.00101000
v -0.05774400 0.00323152 0.00118000
v -0.05774400 0.00390882 0.00112000
v -0.05677600 0.00345102 0.00133000
v -0.05677600 0.00416222 0.00126000
v -0.05570700 0.00360752 0.00149000
v -0.05570700 0.00433772 0.00140000
v -0.05455000 0.00371092 0.00166000
v -0.05455000 0.00444832 0.00155000
v -0.05331600 0.00377122 0.00183000
v -0.05331600 0.00450662 0.00171000
v -0.06063200 0.00067692 0.00072000
v -0.06035600 0.00122632 0.00077000
v -0.05991800 0.00168792 0.00085000
v -0.05932800 0.00206912 0.00096000
v -0.05859900 0.00237772 0.00109000
v -0.05774400 0.00262102 0.00123000
v -0.05677600 0.00280672 0.00140000
v -0.05570700 0.00294232 0.00157000
v -0.05455000 0.00303542 0.00175000
v -0.05331600 0.00309342 0.00194000
v -0.06063200 0.00053022 0.00072000
v -0.06035600 0.00095992 0.00078000
v -0.05991800 0.00132292 0.00086000
v -0.05932800 0.00162472 0.00098000
v -0.05859900 0.00187092 0.00112000
v -0.05774400 0.00206722 0.00128000
v -0.05677600 0.00221912 0.00145000
v -0.05570700 0.00233232 0.00163000
v -0.05455000 0.00241222 0.00183000
v -0.05331600 0.00246452 0.00202000
v -0.06073100 0.00002322 0.00070000
v -0.06063200 0.00039772 0.00072000
v -0.06035600 0.00071962 0.00078000
v -0.05991800 0.00099272 0.00087000
v -0.05932800 0.00122122 0.00099000
v -0.05859900 0.00140892 0.00114000
v -0.05774400 0.00155982 0.00131000
v -0.05677600 0.00167792 0.00149000
v -0.05570700 0.00176722 0.00169000
v -0.05455000 0.00183172 0.00189000
v -0.05331600 0.00187542 0.00209000
v -0.06063200 0.00027622 0.00072000
v -0.06035600 0.00049952 0.00078000
v -0.05991800 0.00068972 0.00088000
v -0.05932800 0.00084952 0.00101000
v -0.05859900 0.00098152 0.00116000
v -0.05774400 0.00108842 0.00133000
v -0.05677600 0.00117272 0.00152000
v -0.05570700 0.00123732 0.00173000
v -0.05455000 0.00128462 0.00194000
v -0.05331600 0.00131742 0.00215000
v -0.06073100 0.00001052 0.00070000
v -0.06063200 0.00016262 0.00072000
v -0.06035600 0.00029392 0.00079000
v -0.05991800 0.00040612 0.00089000
v -0.05932800 0.00050062 0.00102000
v -0.05859900 0.00057902 0.00117000
v -0.05774400 0.00064272 0.00135000
v -0.05677600 0.00069332 0.00155000
v -0.05570700 0.00073232 0.00175000
v -0.05455000 0.00076122 0.00197000
v -0.05331600 0.00078162 0.00218000
v -0.06063200 0.00005362 0.00072000
v -0.06035600 0.00009702 0.00079000
v -0.05991800 0.00013412 0.00089000
v -0.05932800 0.00016532 0.00102000
v -0.05859900 0.00019132 0.00118000
v -0.05774400 0.00021252 0.00136000
v -0.05677600 0.00022942 0.00156000
v -0.05570700 0.00024242 0.00177000
v -0.05455000 0.00025212 0.00198000
v -0.05331600 0.00025902 0.00220000
v -0.06063200 -0.00005368 0.00072000
v -0.06035600 -0.00009698 0.00079000
v -0.05991800 -0.00013408 0.00089000
v -0.05932800 -0.00016538 0.00102000
v -0.05859900 -0.00019138 0.00118000
v -0.05774400 -0.00021258 0.00136000
v -0.05677600 -0.00022938 0.00156000
v -0.05570700 -0.00024248 0.00177000
v -0.05455000 -0.00025218 0.00198000
v -0.05331600 -0.00025908 0.00220000
v -0.06073100 -0.00001058 0.00070000
v -0.06063200 -0.00016258 0.00072000
v -0.06035600 -0.00029398 0.00079000
v -0.05991800 -0.00040608 0.00089000
v -0.05932800 -0.00050058 0.00102000
v -0.05859900 -0.00057898 0.00117000
v -0.05774400 -0.00064278 0.00135000
v -0.05677600 -0.00069338 0.00155000
v -0.05570700 -0.00073238 0.00175000
v -0.05455000 -0.00076128 0.00197000
v -0.05331600 -0.00078158 0.00218000
v -0.06063200 -0.00027628 0.00072000
v -0.06035600 -0.00049958 0.00078000
v -0.05991800 -0.00068978 0.00088000
v -0.05932800 -0.00084958 0.00101000
v -0.05859900 -0.00098158 0.00116000
v -0.05774400 -0.00108838 0.00133000
v -0.05677600 -0.00117278 0.00152000
v -0.05570700 -0.00123728 0.00173000
v -0.05455000 -0.00128458 0.00194000
v -0.05331600 -0.00131738 0.00215000
v -0.06073100 -0.00002318 0.00070000
v -0.06063200 -0.00039778 0.00072000
v -0.06035600 -0.00071958 0.00078000
v -0.05991800 -0.00099278 0.00087000
v -0.05932800 -0.00122118 0.00099000
v -0.05859900 -0.00140888 0.00114000
v -0.05774400 -0.00155978 0.00131000
v -0.05677600 -0.00167798 0.00149000
v -0.05570700 -0.00176728 0.00169000
v -0.05455000 -0.00183178 0.00189000
v -0.05331600 -0.00187538 0.00209000
v -0.06063200 -0.00053028 0.00072000
v -0.06035600 -0.00095998 0.00078000
v -0.05991800 -0.00132288 0.00086000
v -0.05932800 -0.00162468 0.00098000
v -0.05859900 -0.00187098 0.00112000
v -0.05774400 -0.00206728 0.00128000
v -0.05677600 -0.00221918 0.00145000
v -0.05570700 -0.00233228 0.00163000
v -0.05455000 -0.00241218 0.00183000
v -0.05331600 -0.00246448 0.00202000
v -0.06063200 -0.00067698 0.00072000
v -0.06035600 -0.00122638 0.00077000
v -0.05991800 -0.00168788 0.00085000
v -0.05932800 -0.00206918 0.00096000
v -0.05859900 -0.00237768 0.00109000
v -0.05774400 -0.00262108 0.00123000
v -0.05677600 -0.00280678 0.00140000
v -0.05570700 -0.00294238 0.00157000
v -0.05455000 -0.00303538 0.00175000
v -0.05331600 -0.00309348 0.00194000
v -0.06073100 -0.00003478 0.00070000
v -0.06063200 -0.00084098 0.00072000
v -0.06035600 -0.00152458 0.00076000
v -0.05991800 -0.00209548 0.00084000
v -0.05932800 -0.00256368 0.00093000
v -0.05859900 -0.00293898 0.00105000
v -0.05774400 -0.00323148 0.00118000
v -0.05677600 -0.00345098 0.00133000
v -0.05570700 -0.00360748 0.00149000
v -0.05455000 -0.00371098 0.00166000
v -0.05331600 -0.00377118 0.00183000
v -0.06073100 0.00003882 0.00246000
v -0.06063200 0.00107422 0.00248000
v -0.06035600 0.00194662 0.00252000
v -0.05991800 0.00266952 0.00258000
v -0.05932800 0.00325662 0.00266000
v -0.05859900 0.00372142 0.00276000
v -0.05774400 0.00407752 0.00287000
v -0.05677600 0.00433852 0.00300000
v -0.05570700 0.00451792 0.00314000
v -0.05455000 0.00462942 0.00329000
v -0.05331600 0.00468642 0.00344000
v -0.06073100 0.00004112 0.00240000
v -0.06063200 0.00111562 0.00241000
v -0.06035600 0.00202002 0.00245000
v -0.05991800 0.00276872 0.00251000
v -0.05932800 0.00337572 0.00259000
v -0.05859900 0.00385542 0.00268000
v -0.05774400 0.00422182 0.00280000
v -0.05677600 0.00448942 0.00292000
v -0.05570700 0.00467222 0.00306000
v -0.05455000 0.00478442 0.00320000
v -0.05331600 0.00484042 0.00335000
v -0.06073100 0.00004252 0.00230000
v -0.06063200 0.00114972 0.00231000
v -0.06035600 0.00208092 0.00235000
v -0.05991800 0.00285102 0.00241000
v -0.05932800 0.00347472 0.00248000
v -0.05859900 0.00396672 0.00258000
v -0.05774400 0.00434182 0.00269000
v -0.05677600 0.00461492 0.00281000
v -0.05570700 0.00480052 0.00294000
v -0.05455000 0.00491352 0.00308000
v -0.05331600 0.00496872 0.00323000
v -0.06073100 0.00004342 0.00217000
v -0.06063200 0.00117662 0.00219000
v -0.06035600 0.00212922 0.00222000
v -0.05991800 0.00291652 0.00228000
v -0.05932800 0.00355352 0.00235000
v -0.05859900 0.00405552 0.00244000
v -0.05774400 0.00443762 0.00255000
v -0.05677600 0.00471512 0.00267000
v -0.05570700 0.00490302 0.00280000
v -0.05455000 0.00501672 0.00294000
v -0.05331600 0.00507122 0.00308000
v -0.06073100 0.00004362 0.00202000
v -0.06063200 0.00119642 0.00204000
v -0.06035600 0.00216512 0.00207000
v -0.05991800 0.00296532 0.00213000
v -0.05932800 0.00361232 0.00220000
v -0.05859900 0.00412182 0.00229000
v -0.05774400 0.00450922 0.00239000
v -0.05677600 0.00479002 0.00251000
v -0.05570700 0.00497982 0.00264000
v -0.05455000 0.00509392 0.00278000
v -0.05331600 0.00514802 0.00292000
v -0.06073100 0.00004342 0.00186000
v -0.06063200 0.00120932 0.00187000
v -0.06035600 0.00218872 0.00190000
v -0.05991800 0.00299752 0.00196000
v -0.05932800 0.00365122 0.00203000
v -0.05859900 0.00416572 0.00212000
v -0.05774400 0.00455672 0.00222000
v -0.05677600 0.00483982 0.00234000
v -0.05570700 0.00503072 0.00247000
v -0.05455000 0.00514532 0.00260000
v -0.05331600 0.00519912 0.00274000
v -0.06073100 0.00004282 0.00168000
v -0.06063200 0.00121522 0.00170000
v -0.06035600 0.00220002 0.00173000
v -0.05991800 0.00301312 0.00178000
v -0.05932800 0.00367032 0.00186000
v -0.05859900 0.00418732 0.00194000
v -0.05774400 0.00458012 0.00205000
v -0.05677600 0.00486442 0.00216000
v -0.05570700 0.00505602 0.00229000
v -0.05455000 0.00517082 0.00242000
v -0.05331600 0.00522452 0.00257000
v -0.06073100 0.00004192 0.00151000
v -0.06063200 0.00121432 0.00152000
v -0.06035600 0.00219922 0.00155000
v -0.05991800 0.00301232 0.00160000
v -0.05932800 0.00366952 0.00168000
v -0.05859900 0.00418672 0.00177000
v -0.05774400 0.00457952 0.00187000
v -0.05677600 0.00486392 0.00198000
v -0.05570700 0.00505562 0.00211000
v -0.05455000 0.00517052 0.00225000
v -0.05331600 0.00522432 0.00239000
v -0.06073100 0.00004082 0.00133000
v -0.06063200 0.00120672 0.00134000
v -0.06035600 0.00218632 0.00138000
v -0.05991800 0.00299522 0.00143000
v -0.05932800 0.00364912 0.00150000
v -0.05859900 0.00416382 0.00159000
v -0.05774400 0.00455502 0.00170000
v -0.05677600 0.00483842 0.00181000
v -0.05570700 0.00502962 0.00194000
v -0.05455000 0.00514442 0.00207000
v -0.05331600 0.00519842 0.00222000
v -0.06073100 0.00003972 0.00116000
v -0.06063200 0.00119252 0.00118000
v -0.06035600 0.00216142 0.00121000
v -0.05991800 0.00296172 0.00127000
v -0.05932800 0.00360912 0.00134000
v -0.05859900 0.00411892 0.00143000
v -0.05774400 0.00450662 0.00153000
v -0.05677600 0.00478782 0.00165000
v -0.05570700 0.00497802 0.00178000
v -0.05455000 0.00509252 0.00192000
v -0.05331600 0.00514692 0.00206000
v -0.06073100 0.00003852 0.00101000
v -0.06063200 0.00117182 0.00103000
v -0.06035600 0.00212462 0.00106000
v -0.05991800 0.00291212 0.00112000
v -0.05932800 0.00354952 0.00119000
v -0.05859900 0.00405192 0.00128000
v -0.05774400 0.00443452 0.00139000
v -0.05677600 0.00471242 0.00151000
v -0.05570700 0.00490082 0.00164000
v -0.05455000 0.00501502 0.00178000
v -0.05331600 0.00506992 0.00192000
v -0.06073100 0.00003742 0.00089000
v -0.06063200 0.00114462 0.00090000
v -0.06035600 0.00207602 0.00094000
v -0.05991800 0.00284642 0.00099000
v -0.05932800 0.00347042 0.00107000
v -0.05859900 0.00396292 0.00116000
v -0.05774400 0.00433852 0.00127000
v -0.05677600 0.00461202 0.00139000
v -0.05570700 0.00479822 0.00153000
v -0.05455000 0.00491172 0.00167000
v -0.05331600 0.00496742 0.00181000
v -0.06073100 0.00003652 0.00079000
v -0.06063200 0.00111112 0.00080000
v -0.06035600 0.00201572 0.00084000
v -0.05991800 0.00276462 0.00090000
v -0.05932800 0.00337202 0.00098000
v -0.05859900 0.00385202 0.00107000
v -0.05774400 0.00421892 0.00118000
v -0.05677600 0.00448692 0.00131000
v -0.05570700 0.00467012 0.00144000
v -0.05455000 0.00478282 0.00159000
v -0.05331600 0.00483932 0.00174000
v -0.06073100 0.00003592 0.00072000
v -0.06063200 0.00107132 0.00074000
v -0.06035600 0.00194382 0.00078000
v -0.05991800 0.00266692 0.00084000
v -0.05932800 0.00325422 0.00092000
v -0.05859900 0.00371932 0.00102000
v -0.05774400 0.00407562 0.00113000
v -0.05677600 0.00433692 0.00126000
v -0.05570700 0.00451662 0.00140000
v -0.05455000 0.00462832 0.00155000
v -0.05331600 0.00468572 0.00170000
f 3 2 1
f 1 2 5
f 1 5 4
f 4 5 7
f 4 7 6
f 6 7 9
f 6 9 8
f 8 9 11
f 8 11 10
f 10 11 13
f 10 13 12
f 12 13 15
f 12 15 14
f 14 15 17
f 14 17 16
f 16 17 19
f 16 19 18
f 18 19 21
f 18 21 20
f 3 1 22
f 22 1 4
f 22 4 23
f 23 4 6
f 23 6 24
f 24 6 8
f 24 8 25
f 25 8 10
f 25 10 26
f 26 10 12
f 26 12 27
f 27 12 14
f 27 14 28
f 28 14 16
f 28 16 29
f 29 16 18
f 29 18 30
f 30 18 20
f 30 20 31
f 3 22 32
f 32 22 23
f 32 23 33
f 33 23 24
f 33 24 34
f 34 24 25
f 34 25 35
f 35 25 26
f 35 26 36
f 36 26 27
f 36 27 37
f 37 27 28
f 37 28 38
f 38 28 29
f 38 29 39
f 39 29 30
f 39 30 40
f 40 30 31
f 40 31 41
f 3 32 42
f 42 32 33
f 42 33 43
f 43 33 34
f 43 34 44
f 44 34 35
f 44 35 45
f 45 35 36
f 45 36 46
f 46 36 37
f 46 37 47
f 47 37 38
f 47 38 48
f 48 38 39
f 48 39 49
f 49 39 40
f 49 40 50
f 50 40 41
f 50 41 51
f 3 42 52
f 52 42 43
f 52 43 53
f 53 43 44
f 53 44 54
f 54 44 45
f 54 45 55
f 55 45 46
f 55 46 56
f 56 46 47
f 56 47 57
f 57 47 48
f 57 48 58
f 58 48 49
f 58 49 59
f 59 49 50
f 59 50 60
f 60 50 51
f 60 51 61
f 3 52 62
f 62 52 53
f 62 53 63
f 63 53 54
f 63 54 64
f 64 54 55
f 64 55 65
f 65 55 56
f 65 56 66
f 66 56 57
f 66 57 67
f 67 57 58
f 67 58 68
f 68 58 59
f 68 59 69
f 69 59 60
f 69 60 70
f 70 60 61
f 70 61 71
f 3 62 72
f 72 62 63
f 72 63 73
f 73 63 64
f 73 64 74
f 74 64 65
f 74 65 75
f 75 65 66
f 75 66 76
f 76 66 67
f 76 67 77
f 77 67 68
f 77 68 78
f 78 68 69
f 78 69 79
f 79 69 70
f 79 70 80
f 80 70 71
f 80 71 81
f 3 72 82
f 82 72 73
f 82 73 83
f 83 73 74
f 83 74 84
f 84 74 75
f 84 75 85
f 85 75 76
f 85 76 86
f 86 76 77
f 86 77 87
f 87 77 78
f 87 78 88
f 88 78 79
f 88 79 89
f 89 79 80
f 89 80 90
f 90 80 81
f 90 81 91
f 3 82 92
f 92 82 83
f 92 83 93
f 93 83 84
f 93 84 94
f 94 84 85
f 94 85 95
f 95 85 86
f 95 86 96
f 96 86 87
f 96 87 97
f 97 87 88
f 97 88 98
f 98 88 89
f 98 89 99
f 99 89 90
f 99 90 100
f 100 90 91
f 100 91 101
f 3 92 102
f 102 92 93
f 102 93 103
f 103 93 94
f 103 94 104
f 104 94 95
f 104 95 105
f 105 95 96
f 105 96 106
f 106 96 97
f 106 97 107
f 107 97 98
f 107 98 108
f 108 98 99
f 108 99 109
f 109 99 100
f 109 100 110
f 110 100 101
f 110 101 111
f 3 102 112
f 112 102 103
f 112 103 113
f 113 103 104
f 113 104 114
f 114 104 105
f 114 105 115
f 115 105 106
f 115 106 116
f 116 106 107
f 116 107 117
f 117 107 108
f 117 108 118
f 118 108 109
f 118 109 119
f 119 109 110
f 119 110 120
f 120 110 111
f 120 111 121
f 132 3 112
f 132 112 122
f 122 112 113
f 122 113 123
f 123 113 114
f 123 114 124
f 124 114 115
f 124 115 125
f 125 115 116
f 125 116 126
f 126 116 117
f 126 117 127
f 127 117 118
f 127 118 128
f 128 118 119
f 128 119 129
f 129 119 120
f 129 120 130
f 130 120 121
f 130 121 131
f 132 122 133
f 133 122 123
f 133 123 134
f 134 123 124
f 134 124 135
f 135 124 125
f 135 125 136
f 136 125 126
f 136 126 137
f 137 126 127
f 137 127 138
f 138 127 128
f 138 128 139
f 139 128 129
f 139 129 140
f 140 129 130
f 140 130 141
f 141 130 131
f 141 131 142
f 143 132 133
f 143 133 144
f 144 133 134
f 144 134 145
f 145 134 135
f 145 135 146
f 146 135 136
f 146 136 147
f 147 136 137
f 147 137 148
f 148 137 138
f 148 138 149
f 149 138 139
f 149 139 150
f 150 139 140
f 150 140 151
f 151 140 141
f 151 141 152
f 152 141 142
f 152 142 153
f 154 143 144
f 154 144 155
f 155 144 145
f 155 145 156
f 156 145 146
f 156 146 157
f 157 146 147
f 157 147 158
f 158 147 148
f 158 148 159
f 159 148 149
f 159 149 160
f 160 149 150
f 160 150 161
f 161 150 151
f 161 151 162
f 162 151 152
f 162 152 163
f 163 152 153
f 163 153 164
f 165 474 167
f 165 167 166
f 166 167 169
f 166 169 168
f 168 169 171
f 168 171 170
f 170 171 173
f 170 173 172
f 172 173 175
f 172 175 174
f 174 175 177
f 174 177 176
f 176 177 179
f 176 179 178
f 178 179 181
f 178 181 180
f 180 181 183
f 180 183 182
f 182 183 185
f 182 185 184
f 186 165 166
f 186 166 187
f 187 166 168
f 187 168 188
f 188 168 170
f 188 170 189
f 189 170 172
f 189 172 190
f 190 172 174
f 190 174 191
f 191 174 176
f 191 176 192
f 192 176 178
f 192 178 193
f 193 178 180
f 193 180 194
f 194 180 182
f 194 182 195
f 195 182 184
f 195 184 196
f 197 186 187
f 197 187 198
f 198 187 188
f 198 188 199
f 199 188 189
f 199 189 200
f 200 189 190
f 200 190 201
f 201 190 191
f 201 191 202
f 202 191 192
f 202 192 203
f 203 192 193
f 203 193 204
f 204 193 194
f 204 194 205
f 205 194 195
f 205 195 206
f 206 195 196
f 206 196 207
f 208 197 198
f 208 198 209
f 209 198 199
f 209 199 210
f 210 199 200
f 210 200 211
f 211 200 201
f 211 201 212
f 212 201 202
f 212 202 213
f 213 202 203
f 213 203 214
f 214 203 204
f 214 204 215
f 215 204 205
f 215 205 216
f 216 205 206
f 216 206 217
f 217 206 207
f 217 207 218
f 219 208 209
f 219 209 220
f 220 209 210
f 220 210 221
f 221 210 211
f 221 211 222
f 222 211 212
f 222 212 223
f 223 212 213
f 223 213 224
f 224 213 214
f 224 214 225
f 225 214 215
f 225 215 226
f 226 215 216
f 226 216 227
f 227 216 217
f 227 217 228
f 228 217 218
f 228 218 229
f 230 219 220
f 230 220 231
f 231 220 221
f 231 221 232
f 232 221 222
f 232 222 233
f 233 222 223
f 233 223 234
f 234 223 224
f 234 224 235
f 235 224 225
f 235 225 236
f 236 225 226
f 236 226 237
f 237 226 227
f 237 227 238
f 238 227 228
f 238 228 239
f 239 228 229
f 239 229 240
f 241 230 231
f 241 231 242
f 242 231 232
f 242 232 243
f 243 232 233
f 243 233 244
f 244 233 234
f 244 234 245
f 245 234 235
f 245 235 246
f 246 235 236
f 246 236 247
f 247 236 237
f 247 237 248
f 248 237 238
f 248 238 249
f 249 238 239
f 249 239 250
f 250 239 240
f 250 240 251
f 252 241 242
f 252 242 253
f 253 242 243
f 253 243 254
f 254 243 244
f 254 244 255
f 255 244 245
f 255 245 256
f 256 245 246
f 256 246 257
f 257 246 247
f 257 247 258
f 258 247 248
f 258 248 259
f 259 248 249
f 259 249 260
f 260 249 250
f 260 250 261
f 261 250 251
f 261 251 262
f 263 252 253
f 263 253 264
f 264 253 254
f 264 254 265
f 265 254 255
f 265 255 266
f 266 255 256
f 266 256 267
f 267 256 257
f 267 257 268
f 268 257 258
f 268 258 269
f 269 258 259
f 269 259 270
f 270 259 260
f 270 260 271
f 271 260 261
f 271 261 272
f 272 261 262
f 272 262 273
f 274 263 264
f 274 264 275
f 275 264 265
f 275 265 276
f 276 265 266
f 276 266 277
f 277 266 267
f 277 267 278
f 278 267 268
f 278 268 279
f 279 268 269
f 279 269 280
f 280 269 270
f 280 270 281
f 281 270 271
f 281 271 282
f 282 271 272
f 282 272 283
f 283 272 273
f 283 273 284
f 285 274 275
f 285 275 286
f 286 275 276
f 286 276 287
f 287 276 277
f 287 277 288
f 288 277 278
f 288 278 289
f 289 278 279
f 289 279 290
f 290 279 280
f 290 280 291
f 291 280 281
f 291 281 292
f 292 281 282
f 292 282 293
f 293 282 283
f 293 283 294
f 294 283 284
f 294 284 295
f 296 285 286
f 296 286 297
f 297 286 287
f 297 287 298
f 298 287 288
f 298 288 299
f 299 288 289
f 299 289 300
f 300 289 290
f 300 290 301
f 301 290 291
f 301 291 302
f 302 291 292
f 302 292 303
f 303 292 293
f 303 293 304
f 304 293 294
f 304 294 305
f 305 294 295
f 305 295 306
f 307 296 297
f 307 297 308
f 308 297 298
f 308 298 309
f 309 298 299
f 309 299 310
f 310 299 300
f 310 300 311
f 311 300 301
f 311 301 312
f 312 301 302
f 312 302 313
f 313 302 303
f 313 303 314
f 314 303 304
f 314 304 315
f 315 304 305
f 315 305 316
f 316 305 306
f 316 306 317
f 318 307 308
f 318 308 319
f 319 308 309
f 319 309 320
f 320 309 310
f 320 310 321
f 321 310 311
f 321 311 322
f 322 311 312
f 322 312 323
f 323 312 313
f 323 313 324
f 324 313 314
f 324 314 325
f 325 314 315
f 325 315 326
f 326 315 316
f 326 316 327
f 327 316 317
f 327 317 328
f 3 318 319
f 3 319 2
f 2 319 320
f 2 320 5
f 5 320 321
f 5 321 7
f 7 321 322
f 7 322 9
f 9 322 323
f 9 323 11
f 11 323 324
f 11 324 13
f 13 324 325
f 13 325 15
f 15 325 326
f 15 326 17
f 17 326 327
f 17 327 19
f 19 327 328
f 19 328 21
f 331 330 329
f 329 330 333
f 329 333 332
f 332 333 335
f 332 335 334
f 334 335 337
f 334 337 336
f 336 337 339
f 336 339 338
f 338 339 341
f 338 341 340
f 340 341 343
f 340 343 342
f 342 343 345
f 342 345 344
f 344 345 347
f 344 347 346
f 346 347 349
f 346 349 348
f 331 329 350
f 350 329 332
f 350 332 351
f 351 332 334
f 351 334 352
f 352 334 336
f 352 336 353
f 353 336 338
f 353 338 354
f 354 338 340
f 354 340 355
f 355 340 342
f 355 342 356
f 356 342 344
f 356 344 357
f 357 344 346
f 357 346 358
f 358 346 348
f 358 348 359
f 331 350 360
f 360 350 351
f 360 351 361
f 361 351 352
f 361 352 362
f 362 352 353
f 362 353 363
f 363 353 354
f 363 354 364
f 364 354 355
f 364 355 365
f 365 355 356
f 365 356 366
f 366 356 357
f 366 357 367
f 367 357 358
f 367 358 368
f 368 358 359
f 368 359 369
f 370 331 360
f 370 360 371
f 371 360 361
f 371 361 372
f 372 361 362
f 372 362 373
f 373 362 363
f 373 363 374
f 374 363 364
f 374 364 375
f 375 364 365
f 375 365 376
f 376 365 366
f 376 366 377
f 377 366 367
f 377 367 378
f 378 367 368
f 378 368 379
f 379 368 369
f 379 369 380
f 391 370 371
f 391 371 381
f 381 371 372
f 381 372 382
f 382 372 373
f 382 373 383
f 383 373 374
f 383 374 384
f 384 374 375
f 384 375 385
f 385 375 376
f 385 376 386
f 386 376 377
f 386 377 387
f 387 377 378
f 387 378 388
f 388 378 379
f 388 379 389
f 389 379 380
f 389 380 390
f 391 381 392
f 392 381 382
f 392 382 393
f 393 382 383
f 393 383 394
f 394 383 384
f 394 384 395
f 395 384 385
f 395 385 396
f 396 385 386
f 396 386 397
f 397 386 387
f 397 387 398
f 398 387 388
f 398 388 399
f 399 388 389
f 399 389 400
f 400 389 390
f 400 390 401
f 391 392 402
f 402 392 393
f 402 393 403
f 403 393 394
f 403 394 404
f 404 394 395
f 404 395 405
f 405 395 396
f 405 396 406
f 406 396 397
f 406 397 407
f 407 397 398
f 407 398 408
f 408 398 399
f 408 399 409
f 409 399 400
f 409 400 410
f 410 400 401
f 410 401 411
f 422 391 402
f 422 402 412
f 412 402 403
f 412 403 413
f 413 403 404
f 413 404 414
f 414 404 405
f 414 405 415
f 415 405 406
f 415 406 416
f 416 406 407
f 416 407 417
f 417 407 408
f 417 408 418
f 418 408 409
f 418 409 419
f 419 409 410
f 419 410 420
f 420 410 411
f 420 411 421
f 422 412 423
f 423 412 413
f 423 413 424
f 424 413 414
f 424 414 425
f 425 414 415
f 425 415 426
f 426 415 416
f 426 416 427
f 427 416 417
f 427 417 428
f 428 417 418
f 428 418 429
f 429 418 419
f 429 419 430
f 430 419 420
f 430 420 431
f 431 420 421
f 431 421 432
f 422 423 433
f 433 423 424
f 433 424 434
f 434 424 425
f 434 425 435
f 435 425 426
f 435 426 436
f 436 426 427
f 436 427 437
f 437 427 428
f 437 428 438
f 438 428 429
f 438 429 439
f 439 429 430
f 439 430 440
f 440 430 431
f 440 431 441
f 441 431 432
f 441 432 442
f 443 422 433
f 443 433 444
f 444 433 434
f 444 434 445
f 445 434 435
f 445 435 446
f 446 435 436
f 446 436 447
f 447 436 437
f 447 437 448
f 448 437 438
f 448 438 449
f 449 438 439
f 449 439 450
f 450 439 440
f 450 440 451
f 451 440 441
f 451 441 452
f 452 441 442
f 452 442 453
f 443 444 454
f 454 444 445
f 454 445 455
f 455 445 446
f 455 446 456
f 456 446 447
f 456 447 457
f 457 447 448
f 457 448 458
f 458 448 449
f 458 449 459
f 459 449 450
f 459 450 460
f 460 450 451
f 460 451 461
f 461 451 452
f 461 452 462
f 462 452 453
f 462 453 463
f 443 454 464
f 464 454 455
f 464 455 465
f 465 455 456
f 465 456 466
f 466 456 457
f 466 457 467
f 467 457 458
f 467 458 468
f 468 458 459
f 468 459 469
f 469 459 460
f 469 460 470
f 470 460 461
f 470 461 471
f 471 461 462
f 471 462 472
f 472 462 463
f 472 463 473
f 474 443 464
f 474 464 475
f 475 464 465
f 475 465 476
f 476 465 466
f 476 466 477
f 477 466 467
f 477 467 478
f 478 467 468
f 478 468 479
f 479 468 469
f 479 469 480
f 480 469 470
f 480 470 481
f 481 470 471
f 481 471 482
f 482 471 472
f 482 472 483
f 483 472 473
f 483 473 484
f 474 475 167
f 167 475 476
f 167 476 169
f 169 476 477
f 169 477 171
f 171 477 478
f 171 478 173
f 173 478 479
f 173 479 175
f 175 479 480
f 175 480 177
f 177 480 481
f 177 481 179
f 179 481 482
f 179 482 181
f 181 482 483
f 181 483 183
f 183 483 484
f 183 484 185
f 485 154 155
f 485 155 486
f 486 155 156
f 486 156 487
f 487 156 157
f 487 157 488
f 488 157 158
f 488 158 489
f 489 158 159
f 489 159 490
f 490 159 160
f 490 160 491
f 491 160 161
f 491 161 492
f 492 161 162
f 492 162 493
f 493 162 163
f 493 163 494
f 494 163 164
f 494 164 495
f 496 485 486
f 496 486 497
f 497 486 487
f 497 487 498
f 498 487 488
f 498 488 499
f 499 488 489
f 499 489 500
f 500 489 490
f 500 490 501
f 501 490 491
f 501 491 502
f 502 491 492
f 502 492 503
f 503 492 493
f 503 493 504
f 504 493 494
f 504 494 505
f 505 494 495
f 505 495 506
f 507 496 497
f 507 497 508
f 508 497 498
f 508 498 509
f 509 498 499
f 509 499 510
f 510 499 500
f 510 500 511
f 511 500 501
f 511 501 512
f 512 501 502
f 512 502 513
f 513 502 503
f 513 503 514
f 514 503 504
f 514 504 515
f 515 504 505
f 515 505 516
f 516 505 506
f 516 506 517
f 518 507 508
f 518 508 519
f 519 508 509
f 519 509 520
f 520 509 510
f 520 510 521
f 521 510 511
f 521 511 522
f 522 511 512
f 522 512 523
f 523 512 513
f 523 513 524
f 524 513 514
f 524 514 525
f 525 514 515
f 525 515 526
f 526 515 516
f 526 516 527
f 527 516 517
f 527 517 528
f 529 518 519
f 529 519 530
f 530 519 520
f 530 520 531
f 531 520 521
f 531 521 532
f 532 521 522
f 532 522 533
f 533 522 523
f 533 523 534
f 534 523 524
f 534 524 535
f 535 524 525
f 535 525 536
f 536 525 526
f 536 526 537
f 537 526 527
f 537 527 538
f 538 527 528
f 538 528 539
f 540 529 530
f 540 530 541
f 541 530 531
f 541 531 542
f 542 531 532
f 542 532 543
f 543 532 533
f 543 533 544
f 544 533 534
f 544 534 545
f 545 534 535
f 545 535 546
f 546 535 536
f 546 536 547
f 547 536 537
f 547 537 548
f 548 537 538
f 548 538 549
f 549 538 539
f 549 539 550
f 551 540 541
f 551 541 552
f 552 541 542
f 552 542 553
f 553 542 543
f 553 543 554
f 554 543 544
f 554 544 555
f 555 544 545
f 555 545 556
f 556 545 546
f 556 546 557
f 557 546 547
f 557 547 558
f 558 547 548
f 558 548 559
f 559 548 549
f 559 549 560
f 560 549 550
f 560 550 561
f 562 551 552
f 562 552 563
f 563 552 553
f 563 553 564
f 564 553 554
f 564 554 565
f 565 554 555
f 565 555 566
f 566 555 556
f 566 556 567
f 567 556 557
f 567 557 568
f 568 557 558
f 568 558 569
f 569 558 559
f 569 559 570
f 570 559 560
f 570 560 571
f 571 560 561
f 571 561 572
f 573 562 563
f 573 563 574
f 574 563 564
f 574 564 575
f 575 564 565
f 575 565 576
f 576 565 566
f 576 566 577
f 577 566 567
f 577 567 578
f 578 567 568
f 578 568 579
f 579 568 569
f 579 569 580
f 580 569 570
f 580 570 581
f 581 570 571
f 581 571 582
f 582 571 572
f 582 572 583
f 584 573 574
f 584 574 585
f 585 574 575
f 585 575 586
f 586 575 576
f 586 576 587
f 587 576 577
f 587 577 588
f 588 577 578
f 588 578 589
f 589 578 579
f 589 579 590
f 590 579 580
f 590 580 591
f 591 580 581
f 591 581 592
f 592 581 582
f 592 582 593
f 593 582 583
f 593 583 594
f 595 584 585
f 595 585 596
f 596 585 586
f 596 586 597
f 597 586 587
f 597 587 598
f 598 587 588
f 598 588 599
f 599 588 589
f 599 589 600
f 600 589 590
f 600 590 601
f 601 590 591
f 601 591 602
f 602 591 592
f 602 592 603
f 603 592 593
f 603 593 604
f 604 593 594
f 604 594 605
f 606 595 596
f 606 596 607
f 607 596 597
f 607 597 608
f 608 597 598
f 608 598 609
f 609 598 599
f 609 599 610
f 610 599 600
f 610 600 611
f 611 600 601
f 611 601 612
f 612 601 602
f 612 602 613
f 613 602 603
f 613 603 614
f 614 603 604
f 614 604 615
f 615 604 605
f 615 605 616
f 617 606 607
f 617 607 618
f 618 607 608
f 618 608 619
f 619 608 609
f 619 609 620
f 620 609 610
f 620 610 621
f 621 610 611
f 621 611 622
f 622 611 612
f 622 612 623
f 623 612 613
f 623 613 624
f 624 613 614
f 624 614 625
f 625 614 615
f 625 615 626
f 626 615 616
f 626 616 627
f 628 617 618
f 628 618 629
f 629 618 619
f 629 619 630
f 630 619 620
f 630 620 631
f 631 620 621
f 631 621 632
f 632 621 622
f 632 622 633
f 633 622 623
f 633 623 634
f 634 623 624
f 634 624 635
f 635 624 625
f 635 625 636
f 636 625 626
f 636 626 637
f 637 626 627
f 637 627 638
f 331 628 629
f 331 629 330
f 330 629 630
f 330 630 333
f 333 630 631
f 333 631 335
f 335 631 632
f 335 632 337
f 337 632 633
f 337 633 339
f 339 633 634
f 339 634 341
f 341 634 635
f 341 635 343
f 343 635 636
f 343 636 345
f 345 636 637
f 345 637 347
f 347 637 638
f 347 638 349

