# https://github.com/mikedh/trimesh

o spoon_visual.obj
v -0.04644600 -0.00377278 0.00444000
v -0.04282700 -0.00373968 0.00482000
v -0.04282700 -0.00442448 0.00465000
v -0.04644600 -0.00446428 0.00427000
v -0.03912000 -0.00364668 0.00522000
v -0.03912000 -0.00431248 0.00506000
v -0.04644600 -0.00312248 0.00458000
v -0.04282800 -0.00309558 0.00496000
v -0.03912000 -0.00301988 0.00536000
v -0.04644600 -0.00250718 0.00470000
v -0.04282800 -0.00248588 0.00507000
v -0.03912000 -0.00242588 0.00547000
v -0.04644600 -0.00192038 0.00480000
v -0.04282700 -0.00190428 0.00517000
v -0.03912000 -0.00185888 0.00556000
v -0.04644600 -0.00135578 0.00487000
v -0.04282800 -0.00134458 0.00524000
v -0.03912000 -0.00131288 0.00563000
v -0.04644600 -0.00080718 0.00492000
v -0.04282800 -0.00080048 0.00529000
v -0.03912000 -0.00078168 0.00567000
v -0.04644600 -0.00026798 0.00494000
v -0.04282700 -0.00026578 0.00531000
v -0.03912000 -0.00025958 0.00570000
v -0.04644600 0.00026802 0.00494000
v -0.04282700 0.00026582 0.00531000
v -0.03912000 0.00025962 0.00570000
v -0.04644600 0.00080712 0.00492000
v -0.04282800 0.00080052 0.00529000
v -0.03912000 0.00078172 0.00567000
v -0.04644600 0.00135582 0.00487000
v -0.04282800 0.00134452 0.00524000
v -0.03912000 0.00131282 0.00563000
v -0.04644600 0.00192042 0.00480000
v -0.04282800 0.00190422 0.00517000
v -0.03912000 0.00185892 0.00556000
v -0.04644600 0.00250712 0.00470000
v -0.04282800 0.00248582 0.00507000
v -0.03912000 0.00242592 0.00547000
v -0.04644600 0.00312252 0.00458000
v -0.04282700 0.00309562 0.00496000
v -0.03912000 0.00301982 0.00536000
v -0.04644600 0.00377272 0.00444000
v -0.04282800 0.00373972 0.00482000
v -0.03912000 0.00364672 0.00522000
v -0.04644600 0.00446432 0.00427000
v -0.04282800 0.00442452 0.00465000
v -0.03912000 0.00431242 0.00506000
v -0.04644600 -0.00463098 0.00247000
v -0.04282700 -0.00459238 0.00286000
v -0.04282700 -0.00442728 0.00288000
v -0.04644600 -0.00446428 0.00249000
v -0.03912000 -0.00448368 0.00330000
v -0.03912000 -0.00432328 0.00332000
v -0.04644600 -0.00477378 0.00250000
v -0.04282700 -0.00473368 0.00289000
v -0.03912000 -0.00462098 0.00333000
v -0.04644600 -0.00489288 0.00257000
v -0.04282700 -0.00485148 0.00296000
v -0.03912100 -0.00473498 0.00340000
v -0.04644600 -0.00498808 0.00267000
v -0.04282700 -0.00494558 0.00306000
v -0.03912100 -0.00482588 0.00350000
v -0.04644600 -0.00505948 0.00280000
v -0.04282800 -0.00501608 0.00319000
v -0.03912100 -0.00489368 0.00363000
v -0.04644600 -0.00510718 0.00296000
v -0.04282800 -0.00506288 0.00334000
v -0.03912100 -0.00493848 0.00378000
v -0.04644600 -0.00513098 0.00312000
v -0.04282800 -0.00508618 0.00351000
v -0.03912100 -0.00496028 0.00395000
v -0.04644600 -0.00513098 0.00330000
v -0.04282800 -0.00508588 0.00369000
v -0.03912100 -0.00495918 0.00412000
v -0.04644600 -0.00510718 0.00348000
v -0.04282800 -0.00506208 0.00387000
v -0.03912100 -0.00493508 0.00430000
v -0.04644600 -0.00505948 0.00366000
v -0.04282800 -0.00501458 0.00404000
v -0.03912100 -0.00488818 0.00447000
v -0.04644600 -0.00498808 0.00383000
v -0.04282800 -0.00494358 0.00421000
v -0.03912100 -0.00481848 0.00463000
v -0.04644600 -0.00489288 0.00398000
v -0.04282800 -0.00484908 0.00436000
v -0.03912100 -0.00472598 0.00478000
v -0.04644600 -0.00477378 0.00411000
v -0.04282800 -0.00473108 0.00449000
v -0.03912100 -0.00461078 0.00490000
v -0.04644600 -0.00463098 0.00421000
v -0.04282800 -0.00458948 0.00459000
v -0.03912100 -0.00447298 0.00500000
v -0.04644600 0.00377272 0.00265000
v -0.04282700 0.00374252 0.00304000
v -0.04282800 0.00442732 0.00288000
v -0.04644600 0.00446432 0.00249000
v -0.03912000 0.00365732 0.00347000
v -0.03912000 0.00432332 0.00332000
v -0.04644600 0.00312252 0.00280000
v -0.04282800 0.00309822 0.00318000
v -0.03912000 0.00302992 0.00360000
v -0.04644600 0.00250712 0.00292000
v -0.04282800 0.00248822 0.00329000
v -0.03912100 0.00243502 0.00371000
v -0.04644600 0.00192042 0.00301000
v -0.04282800 0.00190632 0.00339000
v -0.03912100 0.00186682 0.00379000
v -0.04644600 0.00135582 0.00308000
v -0.04282800 0.00134622 0.00346000
v -0.03912100 0.00131922 0.00386000
v -0.04644600 0.00080712 0.00313000
v -0.04282800 0.00080172 0.00350000
v -0.03912100 0.00078652 0.00390000
v -0.04644600 0.00026802 0.00315000
v -0.04282800 0.00026652 0.00353000
v -0.03912100 0.00026252 0.00392000
v -0.04644600 -0.00026798 0.00315000
v -0.04282800 -0.00026548 0.00353000
v -0.03912100 -0.00025848 0.00393000
v -0.04644600 -0.00080718 0.00313000
v -0.04282800 -0.00080068 0.00350000
v -0.03912100 -0.00078258 0.00390000
v -0.04644600 -0.00135578 0.00308000
v -0.04282800 -0.00134528 0.00346000
v -0.03912100 -0.00131568 0.00386000
v -0.04644600 -0.00192038 0.00301000
v -0.04282800 -0.00190548 0.00339000
v -0.03912100 -0.00186358 0.00380000
v -0.04644600 -0.00250718 0.00292000
v -0.04282800 -0.00248758 0.00330000
v -0.03912100 -0.00243248 0.00371000
v -0.04644600 -0.00312248 0.00280000
v -0.04282800 -0.00309768 0.00318000
v -0.03912100 -0.00302798 0.00360000
v -0.04644600 -0.00377278 0.00265000
v -0.04282800 -0.00374218 0.00304000
v -0.03912100 -0.00365638 0.00347000
v -0.04644600 0.00463092 0.00421000
v -0.04282800 0.00458952 0.00459000
v -0.03912100 0.00447292 0.00500000
v -0.04644600 0.00477382 0.00411000
v -0.04282800 0.00473102 0.00449000
v -0.03912100 0.00461072 0.00490000
v -0.04644600 0.00489282 0.00398000
v -0.04282800 0.00484912 0.00436000
v -0.03912100 0.00472582 0.00478000
v -0.04644600 0.00498812 0.00383000
v -0.04282800 0.00494352 0.00421000
v -0.03912100 0.00481822 0.00463000
v -0.04644600 0.00505952 0.00366000
v -0.04282800 0.00501452 0.00404000
v -0.03912100 0.00488792 0.00447000
v -0.04644600 0.00510712 0.00348000
v -0.04282800 0.00506192 0.00387000
v -0.03912100 0.00493472 0.00430000
v -0.04644600 0.00513092 0.00330000
v -0.04282800 0.00508582 0.00369000
v -0.03912100 0.00495872 0.00412000
v -0.04644600 0.00513092 0.00312000
v -0.04282800 0.00508602 0.00351000
v -0.03912100 0.00495972 0.00395000
v -0.04644600 0.00510712 0.00296000
v -0.04282800 0.00506282 0.00334000
v -0.03912100 0.00493792 0.00378000
v -0.04644600 0.00505952 0.00280000
v -0.04282800 0.00501592 0.00319000
v -0.03912100 0.00489312 0.00363000
v -0.04644600 0.00498812 0.00267000
v -0.04282800 0.00494542 0.00306000
v -0.03912100 0.00482532 0.00350000
v -0.04644600 0.00489282 0.00257000
v -0.04282800 0.00485132 0.00296000
v -0.03912100 0.00473442 0.00340000
v -0.04644600 0.00477382 0.00250000
v -0.04282800 0.00473362 0.00289000
v -0.03912100 0.00462052 0.00333000
v -0.04644600 0.00463092 0.00247000
v -0.04282800 0.00459232 0.00286000
v -0.03912100 0.00448352 0.00330000
v -0.04928400 -0.00379068 0.00413000
v -0.04928400 -0.00449498 0.00397000
v -0.04787200 -0.00377888 0.00429000
v -0.04787200 -0.00447408 0.00413000
v -0.04928400 -0.00313148 0.00427000
v -0.04787200 -0.00312598 0.00443000
v -0.04928400 -0.00251028 0.00438000
v -0.04787200 -0.00250888 0.00455000
v -0.04928400 -0.00192028 0.00447000
v -0.04787200 -0.00192098 0.00464000
v -0.04928400 -0.00135448 0.00454000
v -0.04787200 -0.00135588 0.00471000
v -0.04928400 -0.00080598 0.00458000
v -0.04787200 -0.00080708 0.00476000
v -0.04928400 -0.00026778 0.00461000
v -0.04787200 -0.00026798 0.00478000
v -0.04928400 0.00026692 0.00461000
v -0.04787200 0.00026782 0.00478000
v -0.04928400 0.00080522 0.00458000
v -0.04787200 0.00080692 0.00476000
v -0.04928400 0.00135392 0.00454000
v -0.04787200 0.00135572 0.00471000
v -0.04928400 0.00191992 0.00447000
v -0.04787200 0.00192092 0.00464000
v -0.04928400 0.00251032 0.00438000
v -0.04787200 0.00250882 0.00455000
v -0.04928400 0.00313202 0.00427000
v -0.04787200 0.00312612 0.00443000
v -0.04928400 0.00379182 0.00413000
v -0.04787200 0.00377912 0.00429000
v -0.04928400 0.00449672 0.00397000
v -0.04787200 0.00447452 0.00413000
v -0.04928400 -0.00466678 0.00217000
v -0.04928400 -0.00449668 0.00219000
v -0.04787200 -0.00464218 0.00232000
v -0.04787200 -0.00447458 0.00234000
v -0.04928400 -0.00481258 0.00220000
v -0.04787200 -0.00478588 0.00235000
v -0.04928400 -0.00493398 0.00227000
v -0.04787200 -0.00490558 0.00242000
v -0.04928400 -0.00503108 0.00237000
v -0.04787200 -0.00500138 0.00252000
v -0.04928400 -0.00510388 0.00251000
v -0.04787200 -0.00507318 0.00266000
v -0.04928400 -0.00515228 0.00266000
v -0.04787200 -0.00512108 0.00281000
v -0.04928400 -0.00517638 0.00283000
v -0.04787200 -0.00514498 0.00298000
v -0.04928400 -0.00517628 0.00301000
v -0.04787200 -0.00514488 0.00316000
v -0.04928400 -0.00515178 0.00319000
v -0.04787200 -0.00512088 0.00334000
v -0.04928400 -0.00510298 0.00337000
v -0.04787200 -0.00507298 0.00352000
v -0.04928400 -0.00502998 0.00353000
v -0.04787200 -0.00500108 0.00368000
v -0.04928400 -0.00493258 0.00368000
v -0.04787200 -0.00490528 0.00383000
v -0.04928400 -0.00481098 0.00381000
v -0.04787200 -0.00478548 0.00396000
v -0.04928400 -0.00466508 0.00391000
v -0.04787200 -0.00464178 0.00406000
v -0.04928400 0.00379232 0.00234000
v -0.04928400 0.00449672 0.00219000
v -0.04787200 0.00377932 0.00250000
v -0.04787200 0.00447452 0.00234000
v -0.04928400 0.00313292 0.00248000
v -0.04787200 0.00312632 0.00265000
v -0.04928400 0.00251152 0.00259000
v -0.04787200 0.00250912 0.00276000
v -0.04928400 0.00192112 0.00268000
v -0.04787200 0.00192122 0.00286000
v -0.04928400 0.00135502 0.00275000
v -0.04787200 0.00135602 0.00293000
v -0.04928400 0.00080612 0.00280000
v -0.04787200 0.00080712 0.00297000
v -0.04928400 0.00026752 0.00282000
v -0.04787200 0.00026792 0.00300000
v -0.04928400 -0.00026758 0.00282000
v -0.04787200 -0.00026798 0.00300000
v -0.04928400 -0.00080608 0.00280000
v -0.04787200 -0.00080708 0.00297000
v -0.04928400 -0.00135498 0.00275000
v -0.04787200 -0.00135608 0.00293000
v -0.04928400 -0.00192118 0.00268000
v -0.04787200 -0.00192118 0.00286000
v -0.04928400 -0.00251148 0.00259000
v -0.04787200 -0.00250918 0.00276000
v -0.04928400 -0.00313298 0.00248000
v -0.04787200 -0.00312638 0.00265000
v -0.04928400 -0.00379238 0.00234000
v -0.04787200 -0.00377928 0.00250000
v -0.04928400 0.00466702 0.00391000
v -0.04787200 0.00464222 0.00406000
v -0.04928400 0.00481292 0.00381000
v -0.04787200 0.00478592 0.00396000
v -0.04928400 0.00493452 0.00368000
v -0.04787200 0.00490572 0.00383000
v -0.04928400 0.00503172 0.00353000
v -0.04787200 0.00500152 0.00368000
v -0.04928400 0.00510472 0.00337000
v -0.04787200 0.00507342 0.00352000
v -0.04928400 0.00515332 0.00319000
v -0.04787200 0.00512132 0.00334000
v -0.04928400 0.00517752 0.00301000
v -0.04787200 0.00514522 0.00316000
v -0.04928400 0.00517752 0.00283000
v -0.04787200 0.00514522 0.00298000
v -0.04928400 0.00515312 0.00266000
v -0.04787200 0.00512122 0.00281000
v -0.04928400 0.00510452 0.00251000
v -0.04787200 0.00507332 0.00266000
v -0.04928400 0.00503152 0.00237000
v -0.04787200 0.00500152 0.00252000
v -0.04928400 0.00493422 0.00227000
v -0.04787200 0.00490562 0.00242000
v -0.04928400 0.00481272 0.00220000
v -0.04787200 0.00478592 0.00235000
v -0.04928400 0.00466682 0.00217000
v -0.04787200 0.00464222 0.00232000
f 1 4 3
f 1 3 2
f 2 3 6
f 2 6 5
f 7 1 2
f 7 2 8
f 8 2 5
f 8 5 9
f 10 7 8
f 10 8 11
f 11 8 9
f 11 9 12
f 13 10 11
f 13 11 14
f 14 11 12
f 14 12 15
f 16 13 14
f 16 14 17
f 17 14 15
f 17 15 18
f 19 16 17
f 19 17 20
f 20 17 18
f 20 18 21
f 22 19 20
f 22 20 23
f 23 20 21
f 23 21 24
f 25 22 23
f 25 23 26
f 26 23 24
f 26 24 27
f 28 25 26
f 28 26 29
f 29 26 27
f 29 27 30
f 31 28 29
f 31 29 32
f 32 29 30
f 32 30 33
f 34 31 32
f 34 32 35
f 35 32 33
f 35 33 36
f 37 34 35
f 37 35 38
f 38 35 36
f 38 36 39
f 40 37 38
f 40 38 41
f 41 38 39
f 41 39 42
f 43 40 41
f 43 41 44
f 44 41 42
f 44 42 45
f 46 43 44
f 46 44 47
f 47 44 45
f 47 45 48
f 49 52 51
f 49 51 50
f 50 51 54
f 50 54 53
f 55 49 50
f 55 50 56
f 56 50 53
f 56 53 57
f 58 55 56
f 58 56 59
f 59 56 57
f 59 57 60
f 61 58 59
f 61 59 62
f 62 59 60
f 62 60 63
f 64 61 62
f 64 62 65
f 65 62 63
f 65 63 66
f 67 64 65
f 67 65 68
f 68 65 66
f 68 66 69
f 70 67 68
f 70 68 71
f 71 68 69
f 71 69 72
f 73 70 71
f 73 71 74
f 74 71 72
f 74 72 75
f 76 73 74
f 76 74 77
f 77 74 75
f 77 75 78
f 79 76 77
f 79 77 80
f 80 77 78
f 80 78 81
f 82 79 80
f 82 80 83
f 83 80 81
f 83 81 84
f 85 82 83
f 85 83 86
f 86 83 84
f 86 84 87
f 88 85 86
f 88 86 89
f 89 86 87
f 89 87 90
f 91 88 89
f 91 89 92
f 92 89 90
f 92 90 93
f 4 91 92
f 4 92 3
f 3 92 93
f 3 93 6
f 94 97 96
f 94 96 95
f 95 96 99
f 95 99 98
f 100 94 95
f 100 95 101
f 101 95 98
f 101 98 102
f 103 100 101
f 103 101 104
f 104 101 102
f 104 102 105
f 106 103 104
f 106 104 107
f 107 104 105
f 107 105 108
f 109 106 107
f 109 107 110
f 110 107 108
f 110 108 111
f 112 109 110
f 112 110 113
f 113 110 111
f 113 111 114
f 115 112 113
f 115 113 116
f 116 113 114
f 116 114 117
f 118 115 116
f 118 116 119
f 119 116 117
f 119 117 120
f 121 118 119
f 121 119 122
f 122 119 120
f 122 120 123
f 124 121 122
f 124 122 125
f 125 122 123
f 125 123 126
f 127 124 125
f 127 125 128
f 128 125 126
f 128 126 129
f 130 127 128
f 130 128 131
f 131 128 129
f 131 129 132
f 133 130 131
f 133 131 134
f 134 131 132
f 134 132 135
f 136 133 134
f 136 134 137
f 137 134 135
f 137 135 138
f 52 136 137
f 52 137 51
f 51 137 138
f 51 138 54
f 139 46 47
f 139 47 140
f 140 47 48
f 140 48 141
f 142 139 140
f 142 140 143
f 143 140 141
f 143 141 144
f 145 142 143
f 145 143 146
f 146 143 144
f 146 144 147
f 148 145 146
f 148 146 149
f 149 146 147
f 149 147 150
f 151 148 149
f 151 149 152
f 152 149 150
f 152 150 153
f 154 151 152
f 154 152 155
f 155 152 153
f 155 153 156
f 157 154 155
f 157 155 158
f 158 155 156
f 158 156 159
f 160 157 158
f 160 158 161
f 161 158 159
f 161 159 162
f 163 160 161
f 163 161 164
f 164 161 162
f 164 162 165
f 166 163 164
f 166 164 167
f 167 164 165
f 167 165 168
f 169 166 167
f 169 167 170
f 170 167 168
f 170 168 171
f 172 169 170
f 172 170 173
f 173 170 171
f 173 171 174
f 175 172 173
f 175 173 176
f 176 173 174
f 176 174 177
f 178 175 176
f 178 176 179
f 179 176 177
f 179 177 180
f 97 178 179
f 97 179 96
f 96 179 180
f 96 180 99
f 181 182 184
f 181 184 183
f 183 184 4
f 183 4 1
f 185 181 183
f 185 183 186
f 186 183 1
f 186 1 7
f 187 185 186
f 187 186 188
f 188 186 7
f 188 7 10
f 189 187 188
f 189 188 190
f 190 188 10
f 190 10 13
f 191 189 190
f 191 190 192
f 192 190 13
f 192 13 16
f 193 191 192
f 193 192 194
f 194 192 16
f 194 16 19
f 195 193 194
f 195 194 196
f 196 194 19
f 196 19 22
f 197 195 196
f 197 196 198
f 198 196 22
f 198 22 25
f 199 197 198
f 199 198 200
f 200 198 25
f 200 25 28
f 201 199 200
f 201 200 202
f 202 200 28
f 202 28 31
f 203 201 202
f 203 202 204
f 204 202 31
f 204 31 34
f 205 203 204
f 205 204 206
f 206 204 34
f 206 34 37
f 207 205 206
f 207 206 208
f 208 206 37
f 208 37 40
f 209 207 208
f 209 208 210
f 210 208 40
f 210 40 43
f 211 209 210
f 211 210 212
f 212 210 43
f 212 43 46
f 213 214 216
f 213 216 215
f 215 216 52
f 215 52 49
f 217 213 215
f 217 215 218
f 218 215 49
f 218 49 55
f 219 217 218
f 219 218 220
f 220 218 55
f 220 55 58
f 221 219 220
f 221 220 222
f 222 220 58
f 222 58 61
f 223 221 222
f 223 222 224
f 224 222 61
f 224 61 64
f 225 223 224
f 225 224 226
f 226 224 64
f 226 64 67
f 227 225 226
f 227 226 228
f 228 226 67
f 228 67 70
f 229 227 228
f 229 228 230
f 230 228 70
f 230 70 73
f 231 229 230
f 231 230 232
f 232 230 73
f 232 73 76
f 233 231 232
f 233 232 234
f 234 232 76
f 234 76 79
f 235 233 234
f 235 234 236
f 236 234 79
f 236 79 82
f 237 235 236
f 237 236 238
f 238 236 82
f 238 82 85
f 239 237 238
f 239 238 240
f 240 238 85
f 240 85 88
f 241 239 240
f 241 240 242
f 242 240 88
f 242 88 91
f 182 241 242
f 182 242 184
f 184 242 91
f 184 91 4
f 243 244 246
f 243 246 245
f 245 246 97
f 245 97 94
f 247 243 245
f 247 245 248
f 248 245 94
f 248 94 100
f 249 247 248
f 249 248 250
f 250 248 100
f 250 100 103
f 251 249 250
f 251 250 252
f 252 250 103
f 252 103 106
f 253 251 252
f 253 252 254
f 254 252 106
f 254 106 109
f 255 253 254
f 255 254 256
f 256 254 109
f 256 109 112
f 257 255 256
f 257 256 258
f 258 256 112
f 258 112 115
f 259 257 258
f 259 258 260
f 260 258 115
f 260 115 118
f 261 259 260
f 261 260 262
f 262 260 118
f 262 118 121
f 263 261 262
f 263 262 264
f 264 262 121
f 264 121 124
f 265 263 264
f 265 264 266
f 266 264 124
f 266 124 127
f 267 265 266
f 267 266 268
f 268 266 127
f 268 127 130
f 269 267 268
f 269 268 270
f 270 268 130
f 270 130 133
f 271 269 270
f 271 270 272
f 272 270 133
f 272 133 136
f 214 271 272
f 214 272 216
f 216 272 136
f 216 136 52
f 273 211 212
f 273 212 274
f 274 212 46
f 274 46 139
f 275 273 274
f 275 274 276
f 276 274 139
f 276 139 142
f 277 275 276
f 277 276 278
f 278 276 142
f 278 142 145
f 279 277 278
f 279 278 280
f 280 278 145
f 280 145 148
f 281 279 280
f 281 280 282
f 282 280 148
f 282 148 151
f 283 281 282
f 283 282 284
f 284 282 151
f 284 151 154
f 285 283 284
f 285 284 286
f 286 284 154
f 286 154 157
f 287 285 286
f 287 286 288
f 288 286 157
f 288 157 160
f 289 287 288
f 289 288 290
f 290 288 160
f 290 160 163
f 291 289 290
f 291 290 292
f 292 290 163
f 292 163 166
f 293 291 292
f 293 292 294
f 294 292 166
f 294 166 169
f 295 293 294
f 295 294 296
f 296 294 169
f 296 169 172
f 297 295 296
f 297 296 298
f 298 296 172
f 298 172 175
f 299 297 298
f 299 298 300
f 300 298 175
f 300 175 178
f 244 299 300
f 244 300 246
f 246 300 178
f 246 178 97

