# https://github.com/mikedh/trimesh

o spoon_visual.obj
v -0.00280500 -0.00163378 0.00759000
v -0.00280500 -0.00188748 0.00756000
v 0.00144200 -0.00144848 0.00743000
v 0.00144200 -0.00166428 0.00742000
v 0.00570700 -0.00130478 0.00714000
v 0.00570700 -0.00149118 0.00713000
v -0.00280500 -0.00138088 0.00762000
v 0.00144200 -0.00123008 0.00745000
v 0.00570700 -0.00111308 0.00714000
v -0.00280500 -0.00112888 0.00764000
v 0.00144200 -0.00100948 0.00746000
v 0.00570700 -0.00091688 0.00715000
v -0.00280500 -0.00087738 0.00765000
v 0.00144200 -0.00078708 0.00747000
v 0.00570700 -0.00071698 0.00715000
v -0.00280500 -0.00062638 0.00767000
v 0.00144200 -0.00056318 0.00748000
v 0.00570700 -0.00051418 0.00716000
v -0.00280500 -0.00037568 0.00767000
v 0.00144200 -0.00033828 0.00748000
v 0.00570700 -0.00030928 0.00716000
v -0.00280500 -0.00012518 0.00768000
v 0.00144200 -0.00011288 0.00749000
v 0.00570700 -0.00010328 0.00716000
v -0.00280500 0.00012522 0.00768000
v 0.00144200 0.00011282 0.00749000
v 0.00570700 0.00010322 0.00716000
v -0.00280500 0.00037572 0.00767000
v 0.00144200 0.00033832 0.00748000
v 0.00570700 0.00030932 0.00716000
v -0.00280500 0.00062632 0.00767000
v 0.00144200 0.00056322 0.00748000
v 0.00570700 0.00051422 0.00716000
v -0.00280500 0.00087742 0.00765000
v 0.00144200 0.00078702 0.00747000
v 0.00570700 0.00071702 0.00715000
v -0.00280500 0.00112882 0.00764000
v 0.00144200 0.00100952 0.00746000
v 0.00570700 0.00091692 0.00715000
v -0.00280500 0.00138092 0.00762000
v 0.00144200 0.00123012 0.00745000
v 0.00570700 0.00111312 0.00714000
v -0.00280500 0.00163372 0.00759000
v 0.00144200 0.00144852 0.00743000
v 0.00570700 0.00130482 0.00714000
v -0.00280500 0.00188742 0.00756000
v 0.00144200 0.00166432 0.00742000
v 0.00570700 0.00149112 0.00713000
v -0.00280500 -0.00213248 0.00654000
v -0.00280500 -0.00207148 0.00651000
v 0.00144200 -0.00191608 0.00646000
v 0.00144200 -0.00186428 0.00643000
v 0.00570700 -0.00174818 0.00623000
v 0.00570700 -0.00170348 0.00619000
v -0.00280500 -0.00217958 0.00659000
v 0.00144100 -0.00195488 0.00651000
v 0.00570700 -0.00178058 0.00628000
v -0.00280500 -0.00221368 0.00666000
v 0.00144100 -0.00198168 0.00658000
v 0.00570700 -0.00180158 0.00634000
v -0.00280500 -0.00223548 0.00673000
v 0.00144100 -0.00199708 0.00665000
v 0.00570700 -0.00181218 0.00642000
v -0.00280500 -0.00224578 0.00682000
v 0.00144100 -0.00200208 0.00674000
v 0.00570700 -0.00181308 0.00650000
v -0.00280500 -0.00224538 0.00691000
v 0.00144100 -0.00199758 0.00683000
v 0.00570700 -0.00180528 0.00658000
v -0.00280500 -0.00223498 0.00701000
v 0.00144100 -0.00198418 0.00692000
v 0.00570600 -0.00178968 0.00667000
v -0.00280500 -0.00221548 0.00711000
v 0.00144100 -0.00196298 0.00701000
v 0.00570600 -0.00176708 0.00675000
v -0.00280600 -0.00218758 0.00720000
v 0.00144100 -0.00193478 0.00710000
v 0.00570600 -0.00173858 0.00684000
v -0.00280600 -0.00215208 0.00729000
v 0.00144100 -0.00190028 0.00718000
v 0.00570600 -0.00170488 0.00691000
v -0.00280500 -0.00210968 0.00738000
v 0.00144100 -0.00186038 0.00725000
v 0.00570600 -0.00166698 0.00698000
v -0.00280500 -0.00206128 0.00745000
v 0.00144100 -0.00181608 0.00732000
v 0.00570600 -0.00162578 0.00704000
v -0.00280500 -0.00200758 0.00750000
v 0.00144100 -0.00176798 0.00737000
v 0.00570700 -0.00158218 0.00709000
v -0.00280500 -0.00194938 0.00754000
v 0.00144100 -0.00171718 0.00740000
v 0.00570700 -0.00153698 0.00712000
v -0.00280500 0.00181432 0.00641000
v -0.00280500 0.00207152 0.00651000
v 0.00144200 0.00164472 0.00630000
v 0.00144200 0.00186432 0.00643000
v 0.00570700 0.00151312 0.00604000
v 0.00570700 0.00170352 0.00619000
v -0.00280500 0.00155132 0.00632000
v 0.00144100 0.00141532 0.00619000
v 0.00570700 0.00130972 0.00592000
v -0.00280500 0.00128342 0.00625000
v 0.00144100 0.00117752 0.00611000
v 0.00570700 0.00109522 0.00582000
v -0.00280500 0.00101122 0.00620000
v 0.00144100 0.00093252 0.00605000
v 0.00570700 0.00087142 0.00575000
v -0.00280500 0.00073542 0.00617000
v 0.00144100 0.00068172 0.00600000
v 0.00570700 0.00064002 0.00570000
v -0.00280500 0.00045662 0.00615000
v 0.00144100 0.00042632 0.00598000
v 0.00570700 0.00040272 0.00567000
v -0.00280500 0.00017562 0.00614000
v 0.00144100 0.00016762 0.00597000
v 0.00570600 0.00016142 0.00566000
v -0.00280500 -0.00010698 0.00615000
v 0.00144100 -0.00009308 0.00598000
v 0.00570600 -0.00008218 0.00567000
v -0.00280600 -0.00039048 0.00617000
v 0.00144100 -0.00035438 0.00601000
v 0.00570600 -0.00032638 0.00570000
v -0.00280600 -0.00067418 0.00621000
v 0.00144100 -0.00061508 0.00605000
v 0.00570600 -0.00056928 0.00575000
v -0.00280500 -0.00095728 0.00625000
v 0.00144100 -0.00087388 0.00610000
v 0.00570600 -0.00080918 0.00581000
v -0.00280500 -0.00123938 0.00630000
v 0.00144100 -0.00112958 0.00617000
v 0.00570600 -0.00104438 0.00589000
v -0.00280500 -0.00151948 0.00637000
v 0.00144100 -0.00138068 0.00624000
v 0.00570700 -0.00127298 0.00598000
v -0.00280500 -0.00179708 0.00644000
v 0.00144100 -0.00162598 0.00633000
v 0.00570700 -0.00149328 0.00608000
v -0.00280500 0.00194912 0.00754000
v 0.00144100 0.00171682 0.00740000
v 0.00570700 0.00153662 0.00712000
v -0.00280500 0.00200652 0.00751000
v 0.00144100 0.00176692 0.00737000
v 0.00570600 0.00158092 0.00709000
v -0.00280600 0.00205912 0.00745000
v 0.00144100 0.00181372 0.00732000
v 0.00570600 0.00162332 0.00705000
v -0.00280600 0.00210612 0.00738000
v 0.00144100 0.00185652 0.00726000
v 0.00570600 0.00166292 0.00699000
v -0.00280600 0.00214692 0.00730000
v 0.00144100 0.00189472 0.00719000
v 0.00570600 0.00169902 0.00692000
v -0.00280600 0.00218102 0.00722000
v 0.00144100 0.00192762 0.00711000
v 0.00570600 0.00173092 0.00685000
v -0.00280600 0.00220752 0.00712000
v 0.00144100 0.00195432 0.00702000
v 0.00570600 0.00175792 0.00677000
v -0.00280600 0.00222592 0.00703000
v 0.00144100 0.00197432 0.00694000
v 0.00570600 0.00177912 0.00669000
v -0.00280600 0.00223542 0.00693000
v 0.00144100 0.00198682 0.00685000
v 0.00570600 0.00179382 0.00660000
v -0.00280600 0.00223562 0.00684000
v 0.00144100 0.00199102 0.00676000
v 0.00570600 0.00180132 0.00652000
v -0.00280600 0.00222562 0.00675000
v 0.00144100 0.00198642 0.00668000
v 0.00570600 0.00180072 0.00644000
v -0.00280600 0.00220482 0.00667000
v 0.00144100 0.00197212 0.00660000
v 0.00570600 0.00179142 0.00636000
v -0.00280500 0.00217272 0.00660000
v 0.00144100 0.00194742 0.00653000
v 0.00570600 0.00177262 0.00630000
v -0.00280500 0.00212842 0.00655000
v 0.00144100 0.00191172 0.00647000
v 0.00570700 0.00174362 0.00624000
f 1 2 4
f 1 4 3
f 3 4 6
f 3 6 5
f 7 1 3
f 7 3 8
f 8 3 5
f 8 5 9
f 10 7 8
f 10 8 11
f 11 8 9
f 11 9 12
f 13 10 11
f 13 11 14
f 14 11 12
f 14 12 15
f 16 13 14
f 16 14 17
f 17 14 15
f 17 15 18
f 19 16 17
f 19 17 20
f 20 17 18
f 20 18 21
f 22 19 20
f 22 20 23
f 23 20 21
f 23 21 24
f 25 22 23
f 25 23 26
f 26 23 24
f 26 24 27
f 28 25 26
f 28 26 29
f 29 26 27
f 29 27 30
f 31 28 29
f 31 29 32
f 32 29 30
f 32 30 33
f 34 31 32
f 34 32 35
f 35 32 33
f 35 33 36
f 37 34 35
f 37 35 38
f 38 35 36
f 38 36 39
f 40 37 38
f 40 38 41
f 41 38 39
f 41 39 42
f 43 40 41
f 43 41 44
f 44 41 42
f 44 42 45
f 46 43 44
f 46 44 47
f 47 44 45
f 47 45 48
f 49 50 52
f 49 52 51
f 51 52 54
f 51 54 53
f 55 49 51
f 55 51 56
f 56 51 53
f 56 53 57
f 58 55 56
f 58 56 59
f 59 56 57
f 59 57 60
f 61 58 59
f 61 59 62
f 62 59 60
f 62 60 63
f 64 61 62
f 64 62 65
f 65 62 63
f 65 63 66
f 67 64 65
f 67 65 68
f 68 65 66
f 68 66 69
f 70 67 68
f 70 68 71
f 71 68 69
f 71 69 72
f 73 70 71
f 73 71 74
f 74 71 72
f 74 72 75
f 76 73 74
f 76 74 77
f 77 74 75
f 77 75 78
f 79 76 77
f 79 77 80
f 80 77 78
f 80 78 81
f 82 79 80
f 82 80 83
f 83 80 81
f 83 81 84
f 85 82 83
f 85 83 86
f 86 83 84
f 86 84 87
f 88 85 86
f 88 86 89
f 89 86 87
f 89 87 90
f 91 88 89
f 91 89 92
f 92 89 90
f 92 90 93
f 2 91 92
f 2 92 4
f 4 92 93
f 4 93 6
f 94 95 97
f 94 97 96
f 96 97 99
f 96 99 98
f 100 94 96
f 100 96 101
f 101 96 98
f 101 98 102
f 103 100 101
f 103 101 104
f 104 101 102
f 104 102 105
f 106 103 104
f 106 104 107
f 107 104 105
f 107 105 108
f 109 106 107
f 109 107 110
f 110 107 108
f 110 108 111
f 112 109 110
f 112 110 113
f 113 110 111
f 113 111 114
f 115 112 113
f 115 113 116
f 116 113 114
f 116 114 117
f 118 115 116
f 118 116 119
f 119 116 117
f 119 117 120
f 121 118 119
f 121 119 122
f 122 119 120
f 122 120 123
f 124 121 122
f 124 122 125
f 125 122 123
f 125 123 126
f 127 124 125
f 127 125 128
f 128 125 126
f 128 126 129
f 130 127 128
f 130 128 131
f 131 128 129
f 131 129 132
f 133 130 131
f 133 131 134
f 134 131 132
f 134 132 135
f 136 133 134
f 136 134 137
f 137 134 135
f 137 135 138
f 50 136 137
f 50 137 52
f 52 137 138
f 52 138 54
f 139 46 47
f 139 47 140
f 140 47 48
f 140 48 141
f 142 139 140
f 142 140 143
f 143 140 141
f 143 141 144
f 145 142 143
f 145 143 146
f 146 143 144
f 146 144 147
f 148 145 146
f 148 146 149
f 149 146 147
f 149 147 150
f 151 148 149
f 151 149 152
f 152 149 150
f 152 150 153
f 154 151 152
f 154 152 155
f 155 152 153
f 155 153 156
f 157 154 155
f 157 155 158
f 158 155 156
f 158 156 159
f 160 157 158
f 160 158 161
f 161 158 159
f 161 159 162
f 163 160 161
f 163 161 164
f 164 161 162
f 164 162 165
f 166 163 164
f 166 164 167
f 167 164 165
f 167 165 168
f 169 166 167
f 169 167 170
f 170 167 168
f 170 168 171
f 172 169 170
f 172 170 173
f 173 170 171
f 173 171 174
f 175 172 173
f 175 173 176
f 176 173 174
f 176 174 177
f 178 175 176
f 178 176 179
f 179 176 177
f 179 177 180
f 95 178 179
f 95 179 97
f 97 179 180
f 97 180 99

