# https://github.com/mikedh/trimesh

o spoon_visual.obj
v -0.01121500 -0.00209178 0.00755000
v -0.01121500 -0.00243928 0.00749000
v -0.00702600 -0.00185128 0.00762000
v -0.00702600 -0.00214948 0.00758000
v -0.00280500 -0.00163378 0.00759000
v -0.00280500 -0.00188748 0.00756000
v 0.00144200 -0.00144848 0.00743000
v 0.00144200 -0.00166428 0.00742000
v -0.01121500 -0.00175388 0.00760000
v -0.00702600 -0.00155798 0.00766000
v -0.00280500 -0.00138088 0.00762000
v 0.00144200 -0.00123008 0.00745000
v -0.01121500 -0.00142398 0.00764000
v -0.00702600 -0.00126898 0.00769000
v -0.00280500 -0.00112888 0.00764000
v 0.00144200 -0.00100948 0.00746000
v -0.01121500 -0.00110078 0.00767000
v -0.00702600 -0.00098338 0.00772000
v -0.00280500 -0.00087738 0.00765000
v 0.00144200 -0.00078708 0.00747000
v -0.01121500 -0.00078258 0.00770000
v -0.00702600 -0.00070058 0.00773000
v -0.00280500 -0.00062638 0.00767000
v 0.00144200 -0.00056318 0.00748000
v -0.01121500 -0.00046808 0.00771000
v -0.00702600 -0.00041958 0.00775000
v -0.00280500 -0.00037568 0.00767000
v 0.00144200 -0.00033828 0.00748000
v -0.01121500 -0.00015578 0.00772000
v -0.00702600 -0.00013968 0.00775000
v -0.00280500 -0.00012518 0.00768000
v 0.00144200 -0.00011288 0.00749000
v -0.01121500 0.00015582 0.00772000
v -0.00702600 0.00013972 0.00775000
v -0.00280500 0.00012522 0.00768000
v 0.00144200 0.00011282 0.00749000
v -0.01121500 0.00046812 0.00771000
v -0.00702600 0.00041952 0.00775000
v -0.00280500 0.00037572 0.00767000
v 0.00144200 0.00033832 0.00748000
v -0.01121500 0.00078262 0.00770000
v -0.00702600 0.00070052 0.00773000
v -0.00280500 0.00062632 0.00767000
v 0.00144200 0.00056322 0.00748000
v -0.01121500 0.00110072 0.00767000
v -0.00702600 0.00098342 0.00772000
v -0.00280500 0.00087742 0.00765000
v 0.00144200 0.00078702 0.00747000
v -0.01121500 0.00142402 0.00764000
v -0.00702600 0.00126902 0.00769000
v -0.00280500 0.00112882 0.00764000
v 0.00144200 0.00100952 0.00746000
v -0.01121500 0.00175392 0.00760000
v -0.00702600 0.00155802 0.00766000
v -0.00280500 0.00138092 0.00762000
v 0.00144200 0.00123012 0.00745000
v -0.01121500 0.00209182 0.00755000
v -0.00702600 0.00185132 0.00762000
v -0.00280500 0.00163372 0.00759000
v 0.00144200 0.00144852 0.00743000
v -0.01121500 0.00243932 0.00749000
v -0.00702600 0.00214952 0.00758000
v -0.00280500 0.00188742 0.00756000
v 0.00144200 0.00166432 0.00742000
v -0.01121500 -0.00266748 0.00630000
v -0.01121500 -0.00258388 0.00628000
v -0.00702600 -0.00238648 0.00648000
v -0.00702600 -0.00231478 0.00646000
v -0.00280500 -0.00213248 0.00654000
v -0.00280500 -0.00207148 0.00651000
v 0.00144200 -0.00191608 0.00646000
v 0.00144200 -0.00186428 0.00643000
v -0.01121500 -0.00273518 0.00634000
v -0.00702600 -0.00244338 0.00653000
v -0.00280500 -0.00217958 0.00659000
v 0.00144100 -0.00195488 0.00651000
v -0.01121600 -0.00278748 0.00641000
v -0.00702600 -0.00248608 0.00659000
v -0.00280500 -0.00221368 0.00666000
v 0.00144100 -0.00198168 0.00658000
v -0.01121600 -0.00282498 0.00649000
v -0.00702600 -0.00251538 0.00667000
v -0.00280500 -0.00223548 0.00673000
v 0.00144100 -0.00199708 0.00665000
v -0.01121600 -0.00284838 0.00659000
v -0.00702600 -0.00253188 0.00676000
v -0.00280500 -0.00224578 0.00682000
v 0.00144100 -0.00200208 0.00674000
v -0.01121600 -0.00285828 0.00670000
v -0.00702600 -0.00253638 0.00686000
v -0.00280500 -0.00224538 0.00691000
v 0.00144100 -0.00199758 0.00683000
v -0.01121600 -0.00285518 0.00681000
v -0.00702700 -0.00252948 0.00697000
v -0.00280500 -0.00223498 0.00701000
v 0.00144100 -0.00198418 0.00692000
v -0.01121600 -0.00283988 0.00692000
v -0.00702700 -0.00251198 0.00707000
v -0.00280500 -0.00221548 0.00711000
v 0.00144100 -0.00196298 0.00701000
v -0.01121600 -0.00281278 0.00704000
v -0.00702700 -0.00248448 0.00718000
v -0.00280600 -0.00218758 0.00720000
v 0.00144100 -0.00193478 0.00710000
v -0.01121600 -0.00277468 0.00715000
v -0.00702700 -0.00244768 0.00728000
v -0.00280600 -0.00215208 0.00729000
v 0.00144100 -0.00190028 0.00718000
v -0.01121600 -0.00272608 0.00725000
v -0.00702700 -0.00240238 0.00737000
v -0.00280500 -0.00210968 0.00738000
v 0.00144100 -0.00186038 0.00725000
v -0.01121600 -0.00266768 0.00733000
v -0.00702700 -0.00234918 0.00745000
v -0.00280500 -0.00206128 0.00745000
v 0.00144100 -0.00181608 0.00732000
v -0.01121600 -0.00259998 0.00741000
v -0.00702600 -0.00228888 0.00751000
v -0.00280500 -0.00200758 0.00750000
v 0.00144100 -0.00176798 0.00737000
v -0.01121600 -0.00252368 0.00746000
v -0.00702600 -0.00222208 0.00756000
v -0.00280500 -0.00194938 0.00754000
v 0.00144100 -0.00171718 0.00740000
v -0.01121500 0.00223372 0.00623000
v -0.01121500 0.00258392 0.00628000
v -0.00702600 0.00201342 0.00638000
v -0.00702600 0.00231482 0.00646000
v -0.00280500 0.00181432 0.00641000
v -0.00280500 0.00207152 0.00651000
v 0.00144200 0.00164472 0.00630000
v 0.00144200 0.00186432 0.00643000
v -0.01121500 0.00188782 0.00620000
v -0.00702600 0.00171112 0.00631000
v -0.00280500 0.00155132 0.00632000
v 0.00144100 0.00141532 0.00619000
v -0.01121600 0.00154552 0.00617000
v -0.00702600 0.00140792 0.00626000
v -0.00280500 0.00128342 0.00625000
v 0.00144100 0.00117752 0.00611000
v -0.01121600 0.00120592 0.00615000
v -0.00702600 0.00110372 0.00623000
v -0.00280500 0.00101122 0.00620000
v 0.00144100 0.00093252 0.00605000
v -0.01121600 0.00086832 0.00614000
v -0.00702600 0.00079852 0.00621000
v -0.00280500 0.00073542 0.00617000
v 0.00144100 0.00068172 0.00600000
v -0.01121600 0.00053172 0.00613000
v -0.00702600 0.00049232 0.00619000
v -0.00280500 0.00045662 0.00615000
v 0.00144100 0.00042632 0.00598000
v -0.01121600 0.00019542 0.00613000
v -0.00702700 0.00018502 0.00619000
v -0.00280500 0.00017562 0.00614000
v 0.00144100 0.00016762 0.00597000
v -0.01121600 -0.00014148 0.00614000
v -0.00702700 -0.00012338 0.00620000
v -0.00280500 -0.00010698 0.00615000
v 0.00144100 -0.00009308 0.00598000
v -0.01121600 -0.00047968 0.00615000
v -0.00702700 -0.00043288 0.00622000
v -0.00280600 -0.00039048 0.00617000
v 0.00144100 -0.00035438 0.00601000
v -0.01121600 -0.00082008 0.00617000
v -0.00702700 -0.00074348 0.00624000
v -0.00280600 -0.00067418 0.00621000
v 0.00144100 -0.00061508 0.00605000
v -0.01121600 -0.00116358 0.00619000
v -0.00702700 -0.00105528 0.00627000
v -0.00280500 -0.00095728 0.00625000
v 0.00144100 -0.00087388 0.00610000
v -0.01121600 -0.00151088 0.00621000
v -0.00702700 -0.00136828 0.00631000
v -0.00280500 -0.00123938 0.00630000
v 0.00144100 -0.00112958 0.00617000
v -0.01121600 -0.00186278 0.00623000
v -0.00702600 -0.00168248 0.00636000
v -0.00280500 -0.00151948 0.00637000
v 0.00144100 -0.00138068 0.00624000
v -0.01121600 -0.00222018 0.00626000
v -0.00702600 -0.00199798 0.00640000
v -0.00280500 -0.00179708 0.00644000
v 0.00144100 -0.00162598 0.00633000
v -0.01121600 0.00252342 0.00746000
v -0.00702600 0.00222182 0.00756000
v -0.00280500 0.00194912 0.00754000
v 0.00144100 0.00171682 0.00740000
v -0.01121600 0.00259912 0.00741000
v -0.00702700 0.00228792 0.00751000
v -0.00280500 0.00200652 0.00751000
v 0.00144100 0.00176692 0.00737000
v -0.01121600 0.00266592 0.00734000
v -0.00702700 0.00234722 0.00745000
v -0.00280600 0.00205912 0.00745000
v 0.00144100 0.00181372 0.00732000
v -0.01121600 0.00272332 0.00725000
v -0.00702700 0.00239922 0.00737000
v -0.00280600 0.00210612 0.00738000
v 0.00144100 0.00185652 0.00726000
v -0.01121600 0.00277072 0.00715000
v -0.00702700 0.00244312 0.00729000
v -0.00280600 0.00214692 0.00730000
v 0.00144100 0.00189472 0.00719000
v -0.01121700 0.00280762 0.00705000
v -0.00702700 0.00247852 0.00719000
v -0.00280600 0.00218102 0.00722000
v 0.00144100 0.00192762 0.00711000
v -0.01121700 0.00283362 0.00694000
v -0.00702700 0.00250482 0.00709000
v -0.00280600 0.00220752 0.00712000
v 0.00144100 0.00195432 0.00702000
v -0.01121700 0.00284802 0.00682000
v -0.00702700 0.00252132 0.00698000
v -0.00280600 0.00222592 0.00703000
v 0.00144100 0.00197432 0.00694000
v -0.01121700 0.00285042 0.00671000
v -0.00702700 0.00252752 0.00688000
v -0.00280600 0.00223542 0.00693000
v 0.00144100 0.00198682 0.00685000
v -0.01121600 0.00284032 0.00660000
v -0.00702700 0.00252272 0.00678000
v -0.00280600 0.00223562 0.00684000
v 0.00144100 0.00199102 0.00676000
v -0.01121600 0.00281722 0.00651000
v -0.00702700 0.00250652 0.00669000
v -0.00280600 0.00222562 0.00675000
v 0.00144100 0.00198642 0.00668000
v -0.01121600 0.00278052 0.00642000
v -0.00702700 0.00247822 0.00661000
v -0.00280600 0.00220482 0.00667000
v 0.00144100 0.00197212 0.00660000
v -0.01121600 0.00272972 0.00635000
v -0.00702700 0.00243722 0.00654000
v -0.00280500 0.00217272 0.00660000
v 0.00144100 0.00194742 0.00653000
v -0.01121600 0.00266442 0.00631000
v -0.00702600 0.00238292 0.00649000
v -0.00280500 0.00212842 0.00655000
v 0.00144100 0.00191172 0.00647000
f 1 2 4
f 1 4 3
f 3 4 6
f 3 6 5
f 5 6 8
f 5 8 7
f 9 1 3
f 9 3 10
f 10 3 5
f 10 5 11
f 11 5 7
f 11 7 12
f 13 9 10
f 13 10 14
f 14 10 11
f 14 11 15
f 15 11 12
f 15 12 16
f 17 13 14
f 17 14 18
f 18 14 15
f 18 15 19
f 19 15 16
f 19 16 20
f 21 17 18
f 21 18 22
f 22 18 19
f 22 19 23
f 23 19 20
f 23 20 24
f 25 21 22
f 25 22 26
f 26 22 23
f 26 23 27
f 27 23 24
f 27 24 28
f 29 25 26
f 29 26 30
f 30 26 27
f 30 27 31
f 31 27 28
f 31 28 32
f 33 29 30
f 33 30 34
f 34 30 31
f 34 31 35
f 35 31 32
f 35 32 36
f 37 33 34
f 37 34 38
f 38 34 35
f 38 35 39
f 39 35 36
f 39 36 40
f 41 37 38
f 41 38 42
f 42 38 39
f 42 39 43
f 43 39 40
f 43 40 44
f 45 41 42
f 45 42 46
f 46 42 43
f 46 43 47
f 47 43 44
f 47 44 48
f 49 45 46
f 49 46 50
f 50 46 47
f 50 47 51
f 51 47 48
f 51 48 52
f 53 49 50
f 53 50 54
f 54 50 51
f 54 51 55
f 55 51 52
f 55 52 56
f 57 53 54
f 57 54 58
f 58 54 55
f 58 55 59
f 59 55 56
f 59 56 60
f 61 57 58
f 61 58 62
f 62 58 59
f 62 59 63
f 63 59 60
f 63 60 64
f 65 66 68
f 65 68 67
f 67 68 70
f 67 70 69
f 69 70 72
f 69 72 71
f 73 65 67
f 73 67 74
f 74 67 69
f 74 69 75
f 75 69 71
f 75 71 76
f 77 73 74
f 77 74 78
f 78 74 75
f 78 75 79
f 79 75 76
f 79 76 80
f 81 77 78
f 81 78 82
f 82 78 79
f 82 79 83
f 83 79 80
f 83 80 84
f 85 81 82
f 85 82 86
f 86 82 83
f 86 83 87
f 87 83 84
f 87 84 88
f 89 85 86
f 89 86 90
f 90 86 87
f 90 87 91
f 91 87 88
f 91 88 92
f 93 89 90
f 93 90 94
f 94 90 91
f 94 91 95
f 95 91 92
f 95 92 96
f 97 93 94
f 97 94 98
f 98 94 95
f 98 95 99
f 99 95 96
f 99 96 100
f 101 97 98
f 101 98 102
f 102 98 99
f 102 99 103
f 103 99 100
f 103 100 104
f 105 101 102
f 105 102 106
f 106 102 103
f 106 103 107
f 107 103 104
f 107 104 108
f 109 105 106
f 109 106 110
f 110 106 107
f 110 107 111
f 111 107 108
f 111 108 112
f 113 109 110
f 113 110 114
f 114 110 111
f 114 111 115
f 115 111 112
f 115 112 116
f 117 113 114
f 117 114 118
f 118 114 115
f 118 115 119
f 119 115 116
f 119 116 120
f 121 117 118
f 121 118 122
f 122 118 119
f 122 119 123
f 123 119 120
f 123 120 124
f 2 121 122
f 2 122 4
f 4 122 123
f 4 123 6
f 6 123 124
f 6 124 8
f 125 126 128
f 125 128 127
f 127 128 130
f 127 130 129
f 129 130 132
f 129 132 131
f 133 125 127
f 133 127 134
f 134 127 129
f 134 129 135
f 135 129 131
f 135 131 136
f 137 133 134
f 137 134 138
f 138 134 135
f 138 135 139
f 139 135 136
f 139 136 140
f 141 137 138
f 141 138 142
f 142 138 139
f 142 139 143
f 143 139 140
f 143 140 144
f 145 141 142
f 145 142 146
f 146 142 143
f 146 143 147
f 147 143 144
f 147 144 148
f 149 145 146
f 149 146 150
f 150 146 147
f 150 147 151
f 151 147 148
f 151 148 152
f 153 149 150
f 153 150 154
f 154 150 151
f 154 151 155
f 155 151 152
f 155 152 156
f 157 153 154
f 157 154 158
f 158 154 155
f 158 155 159
f 159 155 156
f 159 156 160
f 161 157 158
f 161 158 162
f 162 158 159
f 162 159 163
f 163 159 160
f 163 160 164
f 165 161 162
f 165 162 166
f 166 162 163
f 166 163 167
f 167 163 164
f 167 164 168
f 169 165 166
f 169 166 170
f 170 166 167
f 170 167 171
f 171 167 168
f 171 168 172
f 173 169 170
f 173 170 174
f 174 170 171
f 174 171 175
f 175 171 172
f 175 172 176
f 177 173 174
f 177 174 178
f 178 174 175
f 178 175 179
f 179 175 176
f 179 176 180
f 181 177 178
f 181 178 182
f 182 178 179
f 182 179 183
f 183 179 180
f 183 180 184
f 66 181 182
f 66 182 68
f 68 182 183
f 68 183 70
f 70 183 184
f 70 184 72
f 185 61 62
f 185 62 186
f 186 62 63
f 186 63 187
f 187 63 64
f 187 64 188
f 189 185 186
f 189 186 190
f 190 186 187
f 190 187 191
f 191 187 188
f 191 188 192
f 193 189 190
f 193 190 194
f 194 190 191
f 194 191 195
f 195 191 192
f 195 192 196
f 197 193 194
f 197 194 198
f 198 194 195
f 198 195 199
f 199 195 196
f 199 196 200
f 201 197 198
f 201 198 202
f 202 198 199
f 202 199 203
f 203 199 200
f 203 200 204
f 205 201 202
f 205 202 206
f 206 202 203
f 206 203 207
f 207 203 204
f 207 204 208
f 209 205 206
f 209 206 210
f 210 206 207
f 210 207 211
f 211 207 208
f 211 208 212
f 213 209 210
f 213 210 214
f 214 210 211
f 214 211 215
f 215 211 212
f 215 212 216
f 217 213 214
f 217 214 218
f 218 214 215
f 218 215 219
f 219 215 216
f 219 216 220
f 221 217 218
f 221 218 222
f 222 218 219
f 222 219 223
f 223 219 220
f 223 220 224
f 225 221 222
f 225 222 226
f 226 222 223
f 226 223 227
f 227 223 224
f 227 224 228
f 229 225 226
f 229 226 230
f 230 226 227
f 230 227 231
f 231 227 228
f 231 228 232
f 233 229 230
f 233 230 234
f 234 230 231
f 234 231 235
f 235 231 232
f 235 232 236
f 237 233 234
f 237 234 238
f 238 234 235
f 238 235 239
f 239 235 236
f 239 236 240
f 126 237 238
f 126 238 128
f 128 238 239
f 128 239 130
f 130 239 240
f 130 240 132

