# https://github.com/mikedh/trimesh

o spoon_visual.obj
v 0.01426900 -0.00117878 0.00606000
v 0.01596500 -0.00128388 0.00569000
v 0.01596500 -0.00145868 0.00571000
v 0.01426900 -0.00133928 0.00606000
v 0.01750600 -0.00157968 0.00520000
v 0.01750600 -0.00179488 0.00526000
v 0.01426900 -0.00101048 0.00606000
v 0.01596500 -0.00110058 0.00568000
v 0.01750600 -0.00135418 0.00514000
v 0.01426900 -0.00083568 0.00606000
v 0.01596500 -0.00091018 0.00566000
v 0.01750600 -0.00111988 0.00510000
v 0.01426900 -0.00065548 0.00606000
v 0.01596500 -0.00071398 0.00565000
v 0.01750600 -0.00087848 0.00506000
v 0.01426900 -0.00047118 0.00606000
v 0.01596500 -0.00051318 0.00565000
v 0.01750600 -0.00063148 0.00503000
v 0.01426900 -0.00028388 0.00606000
v 0.01596500 -0.00030918 0.00564000
v 0.01750600 -0.00038048 0.00501000
v 0.01426900 -0.00009478 0.00606000
v 0.01596500 -0.00010328 0.00564000
v 0.01750600 -0.00012708 0.00501000
v 0.01426900 0.00009482 0.00606000
v 0.01596500 0.00010332 0.00564000
v 0.01750600 0.00012712 0.00501000
v 0.01426900 0.00028392 0.00606000
v 0.01596500 0.00030922 0.00564000
v 0.01750600 0.00038052 0.00501000
v 0.01426900 0.00047122 0.00606000
v 0.01596500 0.00051322 0.00565000
v 0.01750600 0.00063152 0.00503000
v 0.01426900 0.00065552 0.00606000
v 0.01596500 0.00071402 0.00565000
v 0.01750600 0.00087852 0.00506000
v 0.01426900 0.00083572 0.00606000
v 0.01596500 0.00091022 0.00566000
v 0.01750600 0.00111992 0.00510000
v 0.01426900 0.00101052 0.00606000
v 0.01596500 0.00110062 0.00568000
v 0.01750600 0.00135422 0.00514000
v 0.01426900 0.00117872 0.00606000
v 0.01596500 0.00128392 0.00569000
v 0.01750600 0.00157972 0.00520000
v 0.01426900 0.00133932 0.00606000
v 0.01596500 0.00145872 0.00571000
v 0.01750600 0.00179482 0.00526000
v 0.01426900 -0.00160098 0.00521000
v 0.01596500 -0.00174378 0.00487000
v 0.01596500 -0.00170188 0.00483000
v 0.01426900 -0.00156248 0.00517000
v 0.01750600 -0.00214558 0.00447000
v 0.01750600 -0.00209398 0.00441000
v 0.01426900 -0.00162778 0.00526000
v 0.01596500 -0.00177288 0.00493000
v 0.01750600 -0.00218138 0.00454000
v 0.01426900 -0.00164378 0.00532000
v 0.01596500 -0.00179038 0.00500000
v 0.01750600 -0.00220288 0.00461000
v 0.01426900 -0.00164988 0.00539000
v 0.01596500 -0.00179708 0.00507000
v 0.01750600 -0.00221118 0.00469000
v 0.01426900 -0.00164728 0.00547000
v 0.01596500 -0.00179418 0.00515000
v 0.01750600 -0.00220758 0.00477000
v 0.01426900 -0.00163658 0.00555000
v 0.01596500 -0.00178258 0.00523000
v 0.01750600 -0.00219328 0.00485000
v 0.01426900 -0.00161898 0.00563000
v 0.01596500 -0.00176338 0.00531000
v 0.01750600 -0.00216968 0.00493000
v 0.01426900 -0.00159528 0.00572000
v 0.01596500 -0.00173758 0.00539000
v 0.01750600 -0.00213798 0.00501000
v 0.01426900 -0.00156648 0.00579000
v 0.01596500 -0.00170628 0.00546000
v 0.01750600 -0.00209938 0.00508000
v 0.01426900 -0.00153358 0.00586000
v 0.01596500 -0.00167038 0.00553000
v 0.01750600 -0.00205518 0.00514000
v 0.01426900 -0.00149738 0.00593000
v 0.01596500 -0.00163098 0.00559000
v 0.01750600 -0.00200668 0.00519000
v 0.01426900 -0.00145898 0.00598000
v 0.01596500 -0.00158908 0.00564000
v 0.01750600 -0.00195518 0.00524000
v 0.01426900 -0.00141918 0.00602000
v 0.01596500 -0.00154568 0.00568000
v 0.01750600 -0.00190188 0.00526000
v 0.01426900 -0.00137898 0.00605000
v 0.01596500 -0.00150188 0.00570000
v 0.01750600 -0.00184798 0.00527000
v 0.01426900 0.00139762 0.00500000
v 0.01596500 0.00152032 0.00464000
v 0.01596500 0.00170182 0.00483000
v 0.01426900 0.00156252 0.00517000
v 0.01750600 0.00186552 0.00418000
v 0.01750600 0.00209402 0.00441000
v 0.01426900 0.00121712 0.00487000
v 0.01596500 0.00132232 0.00449000
v 0.01750600 0.00161812 0.00398000
v 0.01426900 0.00102312 0.00476000
v 0.01596500 0.00111002 0.00437000
v 0.01750600 0.00135452 0.00382000
v 0.01426900 0.00081782 0.00468000
v 0.01596500 0.00088592 0.00428000
v 0.01750600 0.00107742 0.00370000
v 0.01426900 0.00060342 0.00462000
v 0.01596500 0.00065222 0.00421000
v 0.01750600 0.00078942 0.00361000
v 0.01426900 0.00038212 0.00459000
v 0.01596500 0.00041122 0.00417000
v 0.01750600 0.00049332 0.00355000
v 0.01426900 0.00015592 0.00458000
v 0.01596500 0.00016532 0.00416000
v 0.01750600 0.00019172 0.00353000
v 0.01426900 -0.00007278 0.00459000
v 0.01596500 -0.00008318 0.00417000
v 0.01750600 -0.00011258 0.00354000
v 0.01426900 -0.00030178 0.00462000
v 0.01596500 -0.00033198 0.00421000
v 0.01750600 -0.00041698 0.00358000
v 0.01426900 -0.00052908 0.00467000
v 0.01596500 -0.00057888 0.00426000
v 0.01750600 -0.00071878 0.00365000
v 0.01426900 -0.00075248 0.00474000
v 0.01596500 -0.00082138 0.00434000
v 0.01750600 -0.00101518 0.00375000
v 0.01426900 -0.00096968 0.00482000
v 0.01596500 -0.00105718 0.00443000
v 0.01750600 -0.00130368 0.00388000
v 0.01426900 -0.00117848 0.00492000
v 0.01596500 -0.00128418 0.00455000
v 0.01750600 -0.00158138 0.00403000
v 0.01426900 -0.00137688 0.00504000
v 0.01596500 -0.00149978 0.00468000
v 0.01750600 -0.00184568 0.00421000
v 0.01426900 0.00137862 0.00605000
v 0.01596500 0.00150162 0.00570000
v 0.01750600 0.00184772 0.00527000
v 0.01426900 0.00141782 0.00603000
v 0.01596500 0.00154442 0.00568000
v 0.01750600 0.00190062 0.00526000
v 0.01426900 0.00145632 0.00599000
v 0.01596500 0.00158642 0.00565000
v 0.01750600 0.00195262 0.00524000
v 0.01426900 0.00149302 0.00594000
v 0.01596500 0.00162662 0.00560000
v 0.01750600 0.00200262 0.00520000
v 0.01426900 0.00152742 0.00588000
v 0.01596500 0.00166422 0.00555000
v 0.01750600 0.00204932 0.00515000
v 0.01426900 0.00155852 0.00581000
v 0.01596500 0.00169832 0.00548000
v 0.01750600 0.00209172 0.00510000
v 0.01426900 0.00158562 0.00573000
v 0.01596500 0.00172802 0.00541000
v 0.01750600 0.00212872 0.00503000
v 0.01426900 0.00160792 0.00566000
v 0.01596500 0.00175242 0.00533000
v 0.01750600 0.00215912 0.00496000
v 0.01426900 0.00162462 0.00558000
v 0.01596500 0.00177072 0.00525000
v 0.01750600 0.00218192 0.00488000
v 0.01426900 0.00163492 0.00550000
v 0.01596500 0.00178192 0.00517000
v 0.01750600 0.00219582 0.00480000
v 0.01426900 0.00163792 0.00542000
v 0.01596500 0.00178532 0.00509000
v 0.01750600 0.00219982 0.00472000
v 0.01426900 0.00163302 0.00534000
v 0.01596500 0.00177982 0.00502000
v 0.01750600 0.00219272 0.00463000
v 0.01426900 0.00161942 0.00528000
v 0.01596500 0.00176462 0.00495000
v 0.01750600 0.00217352 0.00456000
v 0.01426900 0.00159612 0.00522000
v 0.01596500 0.00173902 0.00488000
v 0.01750600 0.00214092 0.00448000
v 0.00998500 -0.00121178 0.00668000
v 0.00998500 -0.00137908 0.00668000
v 0.00998500 -0.00103738 0.00668000
v 0.00998500 -0.00085698 0.00669000
v 0.00998500 -0.00067158 0.00669000
v 0.00998500 -0.00048248 0.00669000
v 0.00998500 -0.00029058 0.00669000
v 0.00998500 -0.00009698 0.00669000
v 0.00998500 0.00009702 0.00669000
v 0.00998500 0.00029062 0.00669000
v 0.00998500 0.00048252 0.00669000
v 0.00998500 0.00067162 0.00669000
v 0.00998500 0.00085702 0.00669000
v 0.00998500 0.00103742 0.00668000
v 0.00998500 0.00121182 0.00668000
v 0.00998500 0.00137912 0.00668000
v 0.00998500 -0.00163958 0.00582000
v 0.00998500 -0.00159948 0.00578000
v 0.00998500 -0.00166778 0.00587000
v 0.00998500 -0.00168518 0.00593000
v 0.00998500 -0.00169248 0.00600000
v 0.00998500 -0.00169068 0.00608000
v 0.00998500 -0.00168078 0.00616000
v 0.00998500 -0.00166368 0.00625000
v 0.00998400 -0.00164038 0.00633000
v 0.00998400 -0.00161168 0.00641000
v 0.00998400 -0.00157848 0.00648000
v 0.00998400 -0.00154188 0.00655000
v 0.00998400 -0.00150268 0.00660000
v 0.00998500 -0.00146188 0.00664000
v 0.00998500 -0.00142038 0.00667000
v 0.00998500 0.00142792 0.00562000
v 0.00998500 0.00159952 0.00578000
v 0.00998500 0.00124142 0.00548000
v 0.00998500 0.00104202 0.00538000
v 0.00998500 0.00083192 0.00530000
v 0.00998500 0.00061302 0.00524000
v 0.00998500 0.00038752 0.00521000
v 0.00998500 0.00015742 0.00520000
v 0.00998400 -0.00007518 0.00521000
v 0.00998400 -0.00030828 0.00524000
v 0.00998400 -0.00053968 0.00529000
v 0.00998400 -0.00076738 0.00536000
v 0.00998400 -0.00098928 0.00544000
v 0.00998500 -0.00120328 0.00554000
v 0.00998500 -0.00140738 0.00565000
v 0.00998500 0.00142002 0.00667000
v 0.00998500 0.00146062 0.00665000
v 0.00998400 0.00150002 0.00661000
v 0.00998400 0.00153762 0.00655000
v 0.00998400 0.00157242 0.00649000
v 0.00998400 0.00160372 0.00642000
v 0.00998400 0.00163082 0.00635000
v 0.00998400 0.00165282 0.00627000
v 0.00998400 0.00166892 0.00619000
v 0.00998400 0.00167852 0.00611000
v 0.00998400 0.00168062 0.00603000
v 0.00998400 0.00167462 0.00595000
v 0.00998500 0.00165962 0.00589000
v 0.00998500 0.00163482 0.00583000
f 1 4 3
f 1 3 2
f 2 3 6
f 2 6 5
f 7 1 2
f 7 2 8
f 8 2 5
f 8 5 9
f 10 7 8
f 10 8 11
f 11 8 9
f 11 9 12
f 13 10 11
f 13 11 14
f 14 11 12
f 14 12 15
f 16 13 14
f 16 14 17
f 17 14 15
f 17 15 18
f 19 16 17
f 19 17 20
f 20 17 18
f 20 18 21
f 22 19 20
f 22 20 23
f 23 20 21
f 23 21 24
f 25 22 23
f 25 23 26
f 26 23 24
f 26 24 27
f 28 25 26
f 28 26 29
f 29 26 27
f 29 27 30
f 31 28 29
f 31 29 32
f 32 29 30
f 32 30 33
f 34 31 32
f 34 32 35
f 35 32 33
f 35 33 36
f 37 34 35
f 37 35 38
f 38 35 36
f 38 36 39
f 40 37 38
f 40 38 41
f 41 38 39
f 41 39 42
f 43 40 41
f 43 41 44
f 44 41 42
f 44 42 45
f 46 43 44
f 46 44 47
f 47 44 45
f 47 45 48
f 49 52 51
f 49 51 50
f 50 51 54
f 50 54 53
f 55 49 50
f 55 50 56
f 56 50 53
f 56 53 57
f 58 55 56
f 58 56 59
f 59 56 57
f 59 57 60
f 61 58 59
f 61 59 62
f 62 59 60
f 62 60 63
f 64 61 62
f 64 62 65
f 65 62 63
f 65 63 66
f 67 64 65
f 67 65 68
f 68 65 66
f 68 66 69
f 70 67 68
f 70 68 71
f 71 68 69
f 71 69 72
f 73 70 71
f 73 71 74
f 74 71 72
f 74 72 75
f 76 73 74
f 76 74 77
f 77 74 75
f 77 75 78
f 79 76 77
f 79 77 80
f 80 77 78
f 80 78 81
f 82 79 80
f 82 80 83
f 83 80 81
f 83 81 84
f 85 82 83
f 85 83 86
f 86 83 84
f 86 84 87
f 88 85 86
f 88 86 89
f 89 86 87
f 89 87 90
f 91 88 89
f 91 89 92
f 92 89 90
f 92 90 93
f 4 91 92
f 4 92 3
f 3 92 93
f 3 93 6
f 94 97 96
f 94 96 95
f 95 96 99
f 95 99 98
f 100 94 95
f 100 95 101
f 101 95 98
f 101 98 102
f 103 100 101
f 103 101 104
f 104 101 102
f 104 102 105
f 106 103 104
f 106 104 107
f 107 104 105
f 107 105 108
f 109 106 107
f 109 107 110
f 110 107 108
f 110 108 111
f 112 109 110
f 112 110 113
f 113 110 111
f 113 111 114
f 115 112 113
f 115 113 116
f 116 113 114
f 116 114 117
f 118 115 116
f 118 116 119
f 119 116 117
f 119 117 120
f 121 118 119
f 121 119 122
f 122 119 120
f 122 120 123
f 124 121 122
f 124 122 125
f 125 122 123
f 125 123 126
f 127 124 125
f 127 125 128
f 128 125 126
f 128 126 129
f 130 127 128
f 130 128 131
f 131 128 129
f 131 129 132
f 133 130 131
f 133 131 134
f 134 131 132
f 134 132 135
f 136 133 134
f 136 134 137
f 137 134 135
f 137 135 138
f 52 136 137
f 52 137 51
f 51 137 138
f 51 138 54
f 139 46 47
f 139 47 140
f 140 47 48
f 140 48 141
f 142 139 140
f 142 140 143
f 143 140 141
f 143 141 144
f 145 142 143
f 145 143 146
f 146 143 144
f 146 144 147
f 148 145 146
f 148 146 149
f 149 146 147
f 149 147 150
f 151 148 149
f 151 149 152
f 152 149 150
f 152 150 153
f 154 151 152
f 154 152 155
f 155 152 153
f 155 153 156
f 157 154 155
f 157 155 158
f 158 155 156
f 158 156 159
f 160 157 158
f 160 158 161
f 161 158 159
f 161 159 162
f 163 160 161
f 163 161 164
f 164 161 162
f 164 162 165
f 166 163 164
f 166 164 167
f 167 164 165
f 167 165 168
f 169 166 167
f 169 167 170
f 170 167 168
f 170 168 171
f 172 169 170
f 172 170 173
f 173 170 171
f 173 171 174
f 175 172 173
f 175 173 176
f 176 173 174
f 176 174 177
f 178 175 176
f 178 176 179
f 179 176 177
f 179 177 180
f 97 178 179
f 97 179 96
f 96 179 180
f 96 180 99
f 181 182 4
f 181 4 1
f 183 181 1
f 183 1 7
f 184 183 7
f 184 7 10
f 185 184 10
f 185 10 13
f 186 185 13
f 186 13 16
f 187 186 16
f 187 16 19
f 188 187 19
f 188 19 22
f 189 188 22
f 189 22 25
f 190 189 25
f 190 25 28
f 191 190 28
f 191 28 31
f 192 191 31
f 192 31 34
f 193 192 34
f 193 34 37
f 194 193 37
f 194 37 40
f 195 194 40
f 195 40 43
f 196 195 43
f 196 43 46
f 197 198 52
f 197 52 49
f 199 197 49
f 199 49 55
f 200 199 55
f 200 55 58
f 201 200 58
f 201 58 61
f 202 201 61
f 202 61 64
f 203 202 64
f 203 64 67
f 204 203 67
f 204 67 70
f 205 204 70
f 205 70 73
f 206 205 73
f 206 73 76
f 207 206 76
f 207 76 79
f 208 207 79
f 208 79 82
f 209 208 82
f 209 82 85
f 210 209 85
f 210 85 88
f 211 210 88
f 211 88 91
f 182 211 91
f 182 91 4
f 212 213 97
f 212 97 94
f 214 212 94
f 214 94 100
f 215 214 100
f 215 100 103
f 216 215 103
f 216 103 106
f 217 216 106
f 217 106 109
f 218 217 109
f 218 109 112
f 219 218 112
f 219 112 115
f 220 219 115
f 220 115 118
f 221 220 118
f 221 118 121
f 222 221 121
f 222 121 124
f 223 222 124
f 223 124 127
f 224 223 127
f 224 127 130
f 225 224 130
f 225 130 133
f 226 225 133
f 226 133 136
f 198 226 136
f 198 136 52
f 227 196 46
f 227 46 139
f 228 227 139
f 228 139 142
f 229 228 142
f 229 142 145
f 230 229 145
f 230 145 148
f 231 230 148
f 231 148 151
f 232 231 151
f 232 151 154
f 233 232 154
f 233 154 157
f 234 233 157
f 234 157 160
f 235 234 160
f 235 160 163
f 236 235 163
f 236 163 166
f 237 236 166
f 237 166 169
f 238 237 169
f 238 169 172
f 239 238 172
f 239 172 175
f 240 239 175
f 240 175 178
f 213 240 178
f 213 178 97

