# https://github.com/mikedh/trimesh

o spoon_visual.obj
v -0.05570700 -0.00359208 0.00328000
v -0.05570700 -0.00432168 0.00318000
v -0.05455000 -0.00369888 0.00344000
v -0.05455000 -0.00443568 0.00334000
v -0.05331600 -0.00376228 0.00362000
v -0.05331600 -0.00449738 0.00349000
v -0.05201900 -0.00379218 0.00379000
v -0.05201900 -0.00451928 0.00365000
v -0.05067100 -0.00379838 0.00396000
v -0.05067100 -0.00451428 0.00381000
v -0.04928400 -0.00379068 0.00413000
v -0.04928400 -0.00449498 0.00397000
v -0.04787200 -0.00377888 0.00429000
v -0.04787200 -0.00447408 0.00413000
v -0.05570700 -0.00292858 0.00335000
v -0.05455000 -0.00302458 0.00354000
v -0.05331600 -0.00308548 0.00372000
v -0.05201900 -0.00311868 0.00391000
v -0.05067100 -0.00313148 0.00409000
v -0.04928400 -0.00313148 0.00427000
v -0.04787200 -0.00312598 0.00443000
v -0.05570700 -0.00232098 0.00342000
v -0.05455000 -0.00240338 0.00361000
v -0.05331600 -0.00245798 0.00381000
v -0.05201900 -0.00249028 0.00401000
v -0.05067100 -0.00250598 0.00420000
v -0.04928400 -0.00251028 0.00438000
v -0.04787200 -0.00250888 0.00455000
v -0.05570700 -0.00175908 0.00347000
v -0.05455000 -0.00182538 0.00368000
v -0.05331600 -0.00187068 0.00388000
v -0.05201900 -0.00189898 0.00408000
v -0.05067100 -0.00191428 0.00428000
v -0.04928400 -0.00192028 0.00447000
v -0.04787200 -0.00192098 0.00464000
v -0.05570700 -0.00123258 0.00351000
v -0.05455000 -0.00128088 0.00372000
v -0.05331600 -0.00131468 0.00393000
v -0.05201900 -0.00133648 0.00414000
v -0.05067100 -0.00134888 0.00435000
v -0.04928400 -0.00135448 0.00454000
v -0.04787200 -0.00135588 0.00471000
v -0.05570700 -0.00073118 0.00354000
v -0.05455000 -0.00076038 0.00375000
v -0.05331600 -0.00078088 0.00397000
v -0.05201900 -0.00079438 0.00418000
v -0.05067100 -0.00080218 0.00439000
v -0.04928400 -0.00080598 0.00458000
v -0.04787200 -0.00080708 0.00476000
v -0.05570700 -0.00024478 0.00355000
v -0.05455000 -0.00025398 0.00377000
v -0.05331600 -0.00026038 0.00399000
v -0.05201900 -0.00026448 0.00420000
v -0.05067100 -0.00026678 0.00441000
v -0.04928400 -0.00026778 0.00461000
v -0.04787200 -0.00026798 0.00478000
v -0.05570700 0.00023692 0.00355000
v -0.05455000 0.00024782 0.00377000
v -0.05331600 0.00025582 0.00399000
v -0.05201900 0.00026142 0.00420000
v -0.05067100 0.00026492 0.00441000
v -0.04928400 0.00026692 0.00461000
v -0.04787200 0.00026782 0.00478000
v -0.05570700 0.00072412 0.00354000
v -0.05455000 0.00075482 0.00375000
v -0.05331600 0.00077682 0.00397000
v -0.05201900 0.00079162 0.00418000
v -0.05067100 0.00080052 0.00439000
v -0.04928400 0.00080522 0.00458000
v -0.04787200 0.00080692 0.00476000
v -0.05570700 0.00122712 0.00351000
v -0.05455000 0.00127672 0.00372000
v -0.05331600 0.00131162 0.00393000
v -0.05201900 0.00133432 0.00414000
v -0.05067100 0.00134762 0.00435000
v -0.04928400 0.00135392 0.00454000
v -0.04787200 0.00135572 0.00471000
v -0.05570700 0.00175622 0.00347000
v -0.05455000 0.00182312 0.00368000
v -0.05331600 0.00186912 0.00388000
v -0.05201900 0.00189792 0.00408000
v -0.05067100 0.00191362 0.00428000
v -0.04928400 0.00191992 0.00447000
v -0.04787200 0.00192092 0.00464000
v -0.05570700 0.00232162 0.00342000
v -0.05455000 0.00240382 0.00361000
v -0.05331600 0.00245832 0.00381000
v -0.05201900 0.00249062 0.00401000
v -0.05067100 0.00250612 0.00420000
v -0.04928400 0.00251032 0.00438000
v -0.04787200 0.00250882 0.00455000
v -0.05570700 0.00293352 0.00335000
v -0.05455000 0.00302842 0.00354000
v -0.05331600 0.00308832 0.00372000
v -0.05201900 0.00312052 0.00391000
v -0.05067100 0.00313262 0.00409000
v -0.04928400 0.00313202 0.00427000
v -0.04787200 0.00312612 0.00443000
v -0.05570700 0.00360212 0.00328000
v -0.05455000 0.00370672 0.00344000
v -0.05331600 0.00376812 0.00362000
v -0.05201900 0.00379612 0.00379000
v -0.05067100 0.00380072 0.00396000
v -0.04928400 0.00379182 0.00413000
v -0.04787200 0.00377912 0.00429000
v -0.05570700 0.00433772 0.00318000
v -0.05455000 0.00444832 0.00334000
v -0.05331600 0.00450662 0.00349000
v -0.05201900 0.00452562 0.00365000
v -0.05067100 0.00451802 0.00381000
v -0.04928400 0.00449672 0.00397000
v -0.04787200 0.00447452 0.00413000
v -0.05570700 -0.00451638 0.00140000
v -0.05570700 -0.00433778 0.00140000
v -0.05455000 -0.00462818 0.00155000
v -0.05455000 -0.00444828 0.00155000
v -0.05331600 -0.00468548 0.00170000
v -0.05331600 -0.00450658 0.00171000
v -0.05201900 -0.00470208 0.00186000
v -0.05201900 -0.00452558 0.00187000
v -0.05067100 -0.00469128 0.00201000
v -0.05067100 -0.00451798 0.00203000
v -0.04928400 -0.00466678 0.00217000
v -0.04928400 -0.00449668 0.00219000
v -0.04787200 -0.00464218 0.00232000
v -0.04787200 -0.00447458 0.00234000
v -0.05570700 -0.00466898 0.00144000
v -0.05455000 -0.00478198 0.00159000
v -0.05331600 -0.00483858 0.00174000
v -0.05201900 -0.00485318 0.00189000
v -0.05067100 -0.00483968 0.00204000
v -0.04928400 -0.00481258 0.00220000
v -0.04787200 -0.00478588 0.00235000
v -0.05570700 -0.00479578 0.00153000
v -0.05455000 -0.00490988 0.00167000
v -0.05331600 -0.00496598 0.00181000
v -0.05201900 -0.00497888 0.00196000
v -0.05067100 -0.00496338 0.00212000
v -0.04928400 -0.00493398 0.00227000
v -0.04787200 -0.00490558 0.00242000
v -0.05570700 -0.00489678 0.00164000
v -0.05455000 -0.00501178 0.00178000
v -0.05331600 -0.00506758 0.00192000
v -0.05201900 -0.00507938 0.00207000
v -0.05067100 -0.00506208 0.00222000
v -0.04928400 -0.00503108 0.00237000
v -0.04787200 -0.00500138 0.00252000
v -0.05570700 -0.00497208 0.00178000
v -0.05455000 -0.00508788 0.00192000
v -0.05331600 -0.00514358 0.00206000
v -0.05201900 -0.00515448 0.00221000
v -0.05067100 -0.00513608 0.00236000
v -0.04928400 -0.00510388 0.00251000
v -0.04787200 -0.00507318 0.00266000
v -0.05570700 -0.00502168 0.00194000
v -0.05455000 -0.00513818 0.00207000
v -0.05331600 -0.00519388 0.00222000
v -0.05201900 -0.00520428 0.00236000
v -0.05067100 -0.00518528 0.00251000
v -0.04928400 -0.00515228 0.00266000
v -0.04787200 -0.00512108 0.00281000
v -0.05570700 -0.00504558 0.00211000
v -0.05455000 -0.00516258 0.00225000
v -0.05331600 -0.00521848 0.00239000
v -0.05201900 -0.00522898 0.00253000
v -0.05067100 -0.00520968 0.00268000
v -0.04928400 -0.00517638 0.00283000
v -0.04787200 -0.00514498 0.00298000
v -0.05570700 -0.00504398 0.00229000
v -0.05455000 -0.00516138 0.00242000
v -0.05331600 -0.00521758 0.00257000
v -0.05201900 -0.00522828 0.00271000
v -0.05067100 -0.00520928 0.00286000
v -0.04928400 -0.00517628 0.00301000
v -0.04787200 -0.00514488 0.00316000
v -0.05570700 -0.00501688 0.00247000
v -0.05455000 -0.00513438 0.00260000
v -0.05331600 -0.00519108 0.00274000
v -0.05201900 -0.00520248 0.00289000
v -0.05067100 -0.00518418 0.00304000
v -0.04928400 -0.00515178 0.00319000
v -0.04787200 -0.00512088 0.00334000
v -0.05570700 -0.00496428 0.00264000
v -0.05455000 -0.00508188 0.00278000
v -0.05331600 -0.00513908 0.00292000
v -0.05201900 -0.00515148 0.00307000
v -0.05067100 -0.00513428 0.00322000
v -0.04928400 -0.00510298 0.00337000
v -0.04787200 -0.00507298 0.00352000
v -0.05570700 -0.00488638 0.00280000
v -0.05455000 -0.00500368 0.00294000
v -0.05331600 -0.00506158 0.00308000
v -0.05201900 -0.00507528 0.00323000
v -0.05067100 -0.00505968 0.00338000
v -0.04928400 -0.00502998 0.00353000
v -0.04787200 -0.00500108 0.00368000
v -0.05570700 -0.00478308 0.00294000
v -0.05455000 -0.00489988 0.00308000
v -0.05331600 -0.00495868 0.00323000
v -0.05201900 -0.00497398 0.00338000
v -0.05067100 -0.00496038 0.00353000
v -0.04928400 -0.00493258 0.00368000
v -0.04787200 -0.00490528 0.00383000
v -0.05570700 -0.00465448 0.00306000
v -0.05455000 -0.00477058 0.00320000
v -0.05331600 -0.00483028 0.00335000
v -0.05201900 -0.00484748 0.00350000
v -0.05067100 -0.00483638 0.00366000
v -0.04928400 -0.00481098 0.00381000
v -0.04787200 -0.00478548 0.00396000
v -0.05570700 -0.00450068 0.00314000
v -0.05455000 -0.00461588 0.00329000
v -0.05331600 -0.00467648 0.00344000
v -0.05201900 -0.00469598 0.00360000
v -0.05067100 -0.00468768 0.00375000
v -0.04928400 -0.00466508 0.00391000
v -0.04787200 -0.00464178 0.00406000
v -0.05570700 0.00360752 0.00149000
v -0.05570700 0.00433772 0.00140000
v -0.05455000 0.00371092 0.00166000
v -0.05455000 0.00444832 0.00155000
v -0.05331600 0.00377122 0.00183000
v -0.05331600 0.00450662 0.00171000
v -0.05201900 0.00379822 0.00200000
v -0.05201900 0.00452562 0.00187000
v -0.05067100 0.00380202 0.00218000
v -0.05067100 0.00451802 0.00203000
v -0.04928400 0.00379232 0.00234000
v -0.04928400 0.00449672 0.00219000
v -0.04787200 0.00377932 0.00250000
v -0.04787200 0.00447452 0.00234000
v -0.05570700 0.00294232 0.00157000
v -0.05455000 0.00303542 0.00175000
v -0.05331600 0.00309342 0.00194000
v -0.05201900 0.00312402 0.00212000
v -0.05067100 0.00313462 0.00230000
v -0.04928400 0.00313292 0.00248000
v -0.04787200 0.00312632 0.00265000
v -0.05570700 0.00233232 0.00163000
v -0.05455000 0.00241222 0.00183000
v -0.05331600 0.00246452 0.00202000
v -0.05201900 0.00249472 0.00222000
v -0.05067100 0.00250852 0.00241000
v -0.04928400 0.00251152 0.00259000
v -0.04787200 0.00250912 0.00276000
v -0.05570700 0.00176722 0.00169000
v -0.05455000 0.00183172 0.00189000
v -0.05331600 0.00187542 0.00209000
v -0.05201900 0.00190222 0.00230000
v -0.05067100 0.00191612 0.00250000
v -0.04928400 0.00192112 0.00268000
v -0.04787200 0.00192122 0.00286000
v -0.05570700 0.00123732 0.00173000
v -0.05455000 0.00128462 0.00194000
v -0.05331600 0.00131742 0.00215000
v -0.05201900 0.00133832 0.00236000
v -0.05067100 0.00134992 0.00256000
v -0.04928400 0.00135502 0.00275000
v -0.04787200 0.00135602 0.00293000
v -0.05570700 0.00073232 0.00175000
v -0.05455000 0.00076122 0.00197000
v -0.05331600 0.00078162 0.00218000
v -0.05201900 0.00079482 0.00240000
v -0.05067100 0.00080242 0.00260000
v -0.04928400 0.00080612 0.00280000
v -0.04787200 0.00080712 0.00297000
v -0.05570700 0.00024242 0.00177000
v -0.05455000 0.00025212 0.00198000
v -0.05331600 0.00025902 0.00220000
v -0.05201900 0.00026362 0.00242000
v -0.05067100 0.00026622 0.00262000
v -0.04928400 0.00026752 0.00282000
v -0.04787200 0.00026792 0.00300000
v -0.05570700 -0.00024248 0.00177000
v -0.05455000 -0.00025218 0.00198000
v -0.05331600 -0.00025908 0.00220000
v -0.05201900 -0.00026358 0.00242000
v -0.05067100 -0.00026628 0.00262000
v -0.04928400 -0.00026758 0.00282000
v -0.04787200 -0.00026798 0.00300000
v -0.05570700 -0.00073238 0.00175000
v -0.05455000 -0.00076128 0.00197000
v -0.05331600 -0.00078158 0.00218000
v -0.05201900 -0.00079478 0.00240000
v -0.05067100 -0.00080248 0.00260000
v -0.04928400 -0.00080608 0.00280000
v -0.04787200 -0.00080708 0.00297000
v -0.05570700 -0.00123728 0.00173000
v -0.05455000 -0.00128458 0.00194000
v -0.05331600 -0.00131738 0.00215000
v -0.05201900 -0.00133828 0.00236000
v -0.05067100 -0.00134998 0.00256000
v -0.04928400 -0.00135498 0.00275000
v -0.04787200 -0.00135608 0.00293000
v -0.05570700 -0.00176728 0.00169000
v -0.05455000 -0.00183178 0.00189000
v -0.05331600 -0.00187538 0.00209000
v -0.05201900 -0.00190218 0.00230000
v -0.05067100 -0.00191618 0.00250000
v -0.04928400 -0.00192118 0.00268000
v -0.04787200 -0.00192118 0.00286000
v -0.05570700 -0.00233228 0.00163000
v -0.05455000 -0.00241218 0.00183000
v -0.05331600 -0.00246448 0.00202000
v -0.05201900 -0.00249478 0.00222000
v -0.05067100 -0.00250858 0.00241000
v -0.04928400 -0.00251148 0.00259000
v -0.04787200 -0.00250918 0.00276000
v -0.05570700 -0.00294238 0.00157000
v -0.05455000 -0.00303538 0.00175000
v -0.05331600 -0.00309348 0.00194000
v -0.05201900 -0.00312398 0.00212000
v -0.05067100 -0.00313468 0.00230000
v -0.04928400 -0.00313298 0.00248000
v -0.04787200 -0.00312638 0.00265000
v -0.05570700 -0.00360748 0.00149000
v -0.05455000 -0.00371098 0.00166000
v -0.05331600 -0.00377118 0.00183000
v -0.05201900 -0.00379828 0.00200000
v -0.05067100 -0.00380198 0.00218000
v -0.04928400 -0.00379238 0.00234000
v -0.04787200 -0.00377928 0.00250000
v -0.05570700 0.00451792 0.00314000
v -0.05455000 0.00462942 0.00329000
v -0.05331600 0.00468642 0.00344000
v -0.05201900 0.00470262 0.00360000
v -0.05067100 0.00469162 0.00375000
v -0.04928400 0.00466702 0.00391000
v -0.04787200 0.00464222 0.00406000
v -0.05570700 0.00467222 0.00306000
v -0.05455000 0.00478442 0.00320000
v -0.05331600 0.00484042 0.00335000
v -0.05201900 0.00485442 0.00350000
v -0.05067100 0.00484042 0.00366000
v -0.04928400 0.00481292 0.00381000
v -0.04787200 0.00478592 0.00396000
v -0.05570700 0.00480052 0.00294000
v -0.05455000 0.00491352 0.00308000
v -0.05331600 0.00496872 0.00323000
v -0.05201900 0.00498072 0.00338000
v -0.05067100 0.00496442 0.00353000
v -0.04928400 0.00493452 0.00368000
v -0.04787200 0.00490572 0.00383000
v -0.05570700 0.00490302 0.00280000
v -0.05455000 0.00501672 0.00294000
v -0.05331600 0.00507122 0.00308000
v -0.05201900 0.00508182 0.00323000
v -0.05067100 0.00506352 0.00338000
v -0.04928400 0.00503172 0.00353000
v -0.04787200 0.00500152 0.00368000
v -0.05570700 0.00497982 0.00264000
v -0.05455000 0.00509392 0.00278000
v -0.05331600 0.00514802 0.00292000
v -0.05201900 0.00515752 0.00307000
v -0.05067100 0.00513792 0.00322000
v -0.04928400 0.00510472 0.00337000
v -0.04787200 0.00507342 0.00352000
v -0.05570700 0.00503072 0.00247000
v -0.05455000 0.00514532 0.00260000
v -0.05331600 0.00519912 0.00274000
v -0.05201900 0.00520792 0.00289000
v -0.05067100 0.00518742 0.00304000
v -0.04928400 0.00515332 0.00319000
v -0.04787200 0.00512132 0.00334000
v -0.05570700 0.00505602 0.00229000
v -0.05455000 0.00517082 0.00242000
v -0.05331600 0.00522452 0.00257000
v -0.05201900 0.00523302 0.00271000
v -0.05067100 0.00521202 0.00286000
v -0.04928400 0.00517752 0.00301000
v -0.04787200 0.00514522 0.00316000
v -0.05570700 0.00505562 0.00211000
v -0.05455000 0.00517052 0.00225000
v -0.05331600 0.00522432 0.00239000
v -0.05201900 0.00523282 0.00253000
v -0.05067100 0.00521202 0.00268000
v -0.04928400 0.00517752 0.00283000
v -0.04787200 0.00514522 0.00298000
v -0.05570700 0.00502962 0.00194000
v -0.05455000 0.00514442 0.00207000
v -0.05331600 0.00519842 0.00222000
v -0.05201900 0.00520742 0.00236000
v -0.05067100 0.00518712 0.00251000
v -0.04928400 0.00515312 0.00266000
v -0.04787200 0.00512122 0.00281000
v -0.05570700 0.00497802 0.00178000
v -0.05455000 0.00509252 0.00192000
v -0.05331600 0.00514692 0.00206000
v -0.05201900 0.00515682 0.00221000
v -0.05067100 0.00513742 0.00236000
v -0.04928400 0.00510452 0.00251000
v -0.04787200 0.00507332 0.00266000
v -0.05570700 0.00490082 0.00164000
v -0.05455000 0.00501502 0.00178000
v -0.05331600 0.00506992 0.00192000
v -0.05201900 0.00508092 0.00207000
v -0.05067100 0.00506302 0.00222000
v -0.04928400 0.00503152 0.00237000
v -0.04787200 0.00500152 0.00252000
v -0.05570700 0.00479822 0.00153000
v -0.05455000 0.00491172 0.00167000
v -0.05331600 0.00496742 0.00181000
v -0.05201900 0.00497982 0.00196000
v -0.05067100 0.00496392 0.00212000
v -0.04928400 0.00493422 0.00227000
v -0.04787200 0.00490562 0.00242000
v -0.05570700 0.00467012 0.00144000
v -0.05455000 0.00478282 0.00159000
v -0.05331600 0.00483932 0.00174000
v -0.05201900 0.00485362 0.00189000
v -0.05067100 0.00484002 0.00204000
v -0.04928400 0.00481272 0.00220000
v -0.04787200 0.00478592 0.00235000
v -0.05570700 0.00451662 0.00140000
v -0.05455000 0.00462832 0.00155000
v -0.05331600 0.00468572 0.00170000
v -0.05201900 0.00470212 0.00186000
v -0.05067100 0.00469132 0.00201000
v -0.04928400 0.00466682 0.00217000
v -0.04787200 0.00464222 0.00232000
f 1 2 4
f 1 4 3
f 3 4 6
f 3 6 5
f 5 6 8
f 5 8 7
f 7 8 10
f 7 10 9
f 9 10 12
f 9 12 11
f 11 12 14
f 11 14 13
f 15 1 3
f 15 3 16
f 16 3 5
f 16 5 17
f 17 5 7
f 17 7 18
f 18 7 9
f 18 9 19
f 19 9 11
f 19 11 20
f 20 11 13
f 20 13 21
f 22 15 16
f 22 16 23
f 23 16 17
f 23 17 24
f 24 17 18
f 24 18 25
f 25 18 19
f 25 19 26
f 26 19 20
f 26 20 27
f 27 20 21
f 27 21 28
f 29 22 23
f 29 23 30
f 30 23 24
f 30 24 31
f 31 24 25
f 31 25 32
f 32 25 26
f 32 26 33
f 33 26 27
f 33 27 34
f 34 27 28
f 34 28 35
f 36 29 30
f 36 30 37
f 37 30 31
f 37 31 38
f 38 31 32
f 38 32 39
f 39 32 33
f 39 33 40
f 40 33 34
f 40 34 41
f 41 34 35
f 41 35 42
f 43 36 37
f 43 37 44
f 44 37 38
f 44 38 45
f 45 38 39
f 45 39 46
f 46 39 40
f 46 40 47
f 47 40 41
f 47 41 48
f 48 41 42
f 48 42 49
f 50 43 44
f 50 44 51
f 51 44 45
f 51 45 52
f 52 45 46
f 52 46 53
f 53 46 47
f 53 47 54
f 54 47 48
f 54 48 55
f 55 48 49
f 55 49 56
f 57 50 51
f 57 51 58
f 58 51 52
f 58 52 59
f 59 52 53
f 59 53 60
f 60 53 54
f 60 54 61
f 61 54 55
f 61 55 62
f 62 55 56
f 62 56 63
f 64 57 58
f 64 58 65
f 65 58 59
f 65 59 66
f 66 59 60
f 66 60 67
f 67 60 61
f 67 61 68
f 68 61 62
f 68 62 69
f 69 62 63
f 69 63 70
f 71 64 65
f 71 65 72
f 72 65 66
f 72 66 73
f 73 66 67
f 73 67 74
f 74 67 68
f 74 68 75
f 75 68 69
f 75 69 76
f 76 69 70
f 76 70 77
f 78 71 72
f 78 72 79
f 79 72 73
f 79 73 80
f 80 73 74
f 80 74 81
f 81 74 75
f 81 75 82
f 82 75 76
f 82 76 83
f 83 76 77
f 83 77 84
f 85 78 79
f 85 79 86
f 86 79 80
f 86 80 87
f 87 80 81
f 87 81 88
f 88 81 82
f 88 82 89
f 89 82 83
f 89 83 90
f 90 83 84
f 90 84 91
f 92 85 86
f 92 86 93
f 93 86 87
f 93 87 94
f 94 87 88
f 94 88 95
f 95 88 89
f 95 89 96
f 96 89 90
f 96 90 97
f 97 90 91
f 97 91 98
f 99 92 93
f 99 93 100
f 100 93 94
f 100 94 101
f 101 94 95
f 101 95 102
f 102 95 96
f 102 96 103
f 103 96 97
f 103 97 104
f 104 97 98
f 104 98 105
f 106 99 100
f 106 100 107
f 107 100 101
f 107 101 108
f 108 101 102
f 108 102 109
f 109 102 103
f 109 103 110
f 110 103 104
f 110 104 111
f 111 104 105
f 111 105 112
f 113 114 116
f 113 116 115
f 115 116 118
f 115 118 117
f 117 118 120
f 117 120 119
f 119 120 122
f 119 122 121
f 121 122 124
f 121 124 123
f 123 124 126
f 123 126 125
f 127 113 115
f 127 115 128
f 128 115 117
f 128 117 129
f 129 117 119
f 129 119 130
f 130 119 121
f 130 121 131
f 131 121 123
f 131 123 132
f 132 123 125
f 132 125 133
f 134 127 128
f 134 128 135
f 135 128 129
f 135 129 136
f 136 129 130
f 136 130 137
f 137 130 131
f 137 131 138
f 138 131 132
f 138 132 139
f 139 132 133
f 139 133 140
f 141 134 135
f 141 135 142
f 142 135 136
f 142 136 143
f 143 136 137
f 143 137 144
f 144 137 138
f 144 138 145
f 145 138 139
f 145 139 146
f 146 139 140
f 146 140 147
f 148 141 142
f 148 142 149
f 149 142 143
f 149 143 150
f 150 143 144
f 150 144 151
f 151 144 145
f 151 145 152
f 152 145 146
f 152 146 153
f 153 146 147
f 153 147 154
f 155 148 149
f 155 149 156
f 156 149 150
f 156 150 157
f 157 150 151
f 157 151 158
f 158 151 152
f 158 152 159
f 159 152 153
f 159 153 160
f 160 153 154
f 160 154 161
f 162 155 156
f 162 156 163
f 163 156 157
f 163 157 164
f 164 157 158
f 164 158 165
f 165 158 159
f 165 159 166
f 166 159 160
f 166 160 167
f 167 160 161
f 167 161 168
f 169 162 163
f 169 163 170
f 170 163 164
f 170 164 171
f 171 164 165
f 171 165 172
f 172 165 166
f 172 166 173
f 173 166 167
f 173 167 174
f 174 167 168
f 174 168 175
f 176 169 170
f 176 170 177
f 177 170 171
f 177 171 178
f 178 171 172
f 178 172 179
f 179 172 173
f 179 173 180
f 180 173 174
f 180 174 181
f 181 174 175
f 181 175 182
f 183 176 177
f 183 177 184
f 184 177 178
f 184 178 185
f 185 178 179
f 185 179 186
f 186 179 180
f 186 180 187
f 187 180 181
f 187 181 188
f 188 181 182
f 188 182 189
f 190 183 184
f 190 184 191
f 191 184 185
f 191 185 192
f 192 185 186
f 192 186 193
f 193 186 187
f 193 187 194
f 194 187 188
f 194 188 195
f 195 188 189
f 195 189 196
f 197 190 191
f 197 191 198
f 198 191 192
f 198 192 199
f 199 192 193
f 199 193 200
f 200 193 194
f 200 194 201
f 201 194 195
f 201 195 202
f 202 195 196
f 202 196 203
f 204 197 198
f 204 198 205
f 205 198 199
f 205 199 206
f 206 199 200
f 206 200 207
f 207 200 201
f 207 201 208
f 208 201 202
f 208 202 209
f 209 202 203
f 209 203 210
f 211 204 205
f 211 205 212
f 212 205 206
f 212 206 213
f 213 206 207
f 213 207 214
f 214 207 208
f 214 208 215
f 215 208 209
f 215 209 216
f 216 209 210
f 216 210 217
f 2 211 212
f 2 212 4
f 4 212 213
f 4 213 6
f 6 213 214
f 6 214 8
f 8 214 215
f 8 215 10
f 10 215 216
f 10 216 12
f 12 216 217
f 12 217 14
f 218 219 221
f 218 221 220
f 220 221 223
f 220 223 222
f 222 223 225
f 222 225 224
f 224 225 227
f 224 227 226
f 226 227 229
f 226 229 228
f 228 229 231
f 228 231 230
f 232 218 220
f 232 220 233
f 233 220 222
f 233 222 234
f 234 222 224
f 234 224 235
f 235 224 226
f 235 226 236
f 236 226 228
f 236 228 237
f 237 228 230
f 237 230 238
f 239 232 233
f 239 233 240
f 240 233 234
f 240 234 241
f 241 234 235
f 241 235 242
f 242 235 236
f 242 236 243
f 243 236 237
f 243 237 244
f 244 237 238
f 244 238 245
f 246 239 240
f 246 240 247
f 247 240 241
f 247 241 248
f 248 241 242
f 248 242 249
f 249 242 243
f 249 243 250
f 250 243 244
f 250 244 251
f 251 244 245
f 251 245 252
f 253 246 247
f 253 247 254
f 254 247 248
f 254 248 255
f 255 248 249
f 255 249 256
f 256 249 250
f 256 250 257
f 257 250 251
f 257 251 258
f 258 251 252
f 258 252 259
f 260 253 254
f 260 254 261
f 261 254 255
f 261 255 262
f 262 255 256
f 262 256 263
f 263 256 257
f 263 257 264
f 264 257 258
f 264 258 265
f 265 258 259
f 265 259 266
f 267 260 261
f 267 261 268
f 268 261 262
f 268 262 269
f 269 262 263
f 269 263 270
f 270 263 264
f 270 264 271
f 271 264 265
f 271 265 272
f 272 265 266
f 272 266 273
f 274 267 268
f 274 268 275
f 275 268 269
f 275 269 276
f 276 269 270
f 276 270 277
f 277 270 271
f 277 271 278
f 278 271 272
f 278 272 279
f 279 272 273
f 279 273 280
f 281 274 275
f 281 275 282
f 282 275 276
f 282 276 283
f 283 276 277
f 283 277 284
f 284 277 278
f 284 278 285
f 285 278 279
f 285 279 286
f 286 279 280
f 286 280 287
f 288 281 282
f 288 282 289
f 289 282 283
f 289 283 290
f 290 283 284
f 290 284 291
f 291 284 285
f 291 285 292
f 292 285 286
f 292 286 293
f 293 286 287
f 293 287 294
f 295 288 289
f 295 289 296
f 296 289 290
f 296 290 297
f 297 290 291
f 297 291 298
f 298 291 292
f 298 292 299
f 299 292 293
f 299 293 300
f 300 293 294
f 300 294 301
f 302 295 296
f 302 296 303
f 303 296 297
f 303 297 304
f 304 297 298
f 304 298 305
f 305 298 299
f 305 299 306
f 306 299 300
f 306 300 307
f 307 300 301
f 307 301 308
f 309 302 303
f 309 303 310
f 310 303 304
f 310 304 311
f 311 304 305
f 311 305 312
f 312 305 306
f 312 306 313
f 313 306 307
f 313 307 314
f 314 307 308
f 314 308 315
f 316 309 310
f 316 310 317
f 317 310 311
f 317 311 318
f 318 311 312
f 318 312 319
f 319 312 313
f 319 313 320
f 320 313 314
f 320 314 321
f 321 314 315
f 321 315 322
f 114 316 317
f 114 317 116
f 116 317 318
f 116 318 118
f 118 318 319
f 118 319 120
f 120 319 320
f 120 320 122
f 122 320 321
f 122 321 124
f 124 321 322
f 124 322 126
f 323 106 107
f 323 107 324
f 324 107 108
f 324 108 325
f 325 108 109
f 325 109 326
f 326 109 110
f 326 110 327
f 327 110 111
f 327 111 328
f 328 111 112
f 328 112 329
f 330 323 324
f 330 324 331
f 331 324 325
f 331 325 332
f 332 325 326
f 332 326 333
f 333 326 327
f 333 327 334
f 334 327 328
f 334 328 335
f 335 328 329
f 335 329 336
f 337 330 331
f 337 331 338
f 338 331 332
f 338 332 339
f 339 332 333
f 339 333 340
f 340 333 334
f 340 334 341
f 341 334 335
f 341 335 342
f 342 335 336
f 342 336 343
f 344 337 338
f 344 338 345
f 345 338 339
f 345 339 346
f 346 339 340
f 346 340 347
f 347 340 341
f 347 341 348
f 348 341 342
f 348 342 349
f 349 342 343
f 349 343 350
f 351 344 345
f 351 345 352
f 352 345 346
f 352 346 353
f 353 346 347
f 353 347 354
f 354 347 348
f 354 348 355
f 355 348 349
f 355 349 356
f 356 349 350
f 356 350 357
f 358 351 352
f 358 352 359
f 359 352 353
f 359 353 360
f 360 353 354
f 360 354 361
f 361 354 355
f 361 355 362
f 362 355 356
f 362 356 363
f 363 356 357
f 363 357 364
f 365 358 359
f 365 359 366
f 366 359 360
f 366 360 367
f 367 360 361
f 367 361 368
f 368 361 362
f 368 362 369
f 369 362 363
f 369 363 370
f 370 363 364
f 370 364 371
f 372 365 366
f 372 366 373
f 373 366 367
f 373 367 374
f 374 367 368
f 374 368 375
f 375 368 369
f 375 369 376
f 376 369 370
f 376 370 377
f 377 370 371
f 377 371 378
f 379 372 373
f 379 373 380
f 380 373 374
f 380 374 381
f 381 374 375
f 381 375 382
f 382 375 376
f 382 376 383
f 383 376 377
f 383 377 384
f 384 377 378
f 384 378 385
f 386 379 380
f 386 380 387
f 387 380 381
f 387 381 388
f 388 381 382
f 388 382 389
f 389 382 383
f 389 383 390
f 390 383 384
f 390 384 391
f 391 384 385
f 391 385 392
f 393 386 387
f 393 387 394
f 394 387 388
f 394 388 395
f 395 388 389
f 395 389 396
f 396 389 390
f 396 390 397
f 397 390 391
f 397 391 398
f 398 391 392
f 398 392 399
f 400 393 394
f 400 394 401
f 401 394 395
f 401 395 402
f 402 395 396
f 402 396 403
f 403 396 397
f 403 397 404
f 404 397 398
f 404 398 405
f 405 398 399
f 405 399 406
f 407 400 401
f 407 401 408
f 408 401 402
f 408 402 409
f 409 402 403
f 409 403 410
f 410 403 404
f 410 404 411
f 411 404 405
f 411 405 412
f 412 405 406
f 412 406 413
f 414 407 408
f 414 408 415
f 415 408 409
f 415 409 416
f 416 409 410
f 416 410 417
f 417 410 411
f 417 411 418
f 418 411 412
f 418 412 419
f 419 412 413
f 419 413 420
f 219 414 415
f 219 415 221
f 221 415 416
f 221 416 223
f 223 416 417
f 223 417 225
f 225 417 418
f 225 418 227
f 227 418 419
f 227 419 229
f 229 419 420
f 229 420 231

