# https://github.com/mikedh/trimesh

o spoon_visual.obj
v -0.04644600 -0.00377278 0.00444000
v -0.04282700 -0.00373968 0.00482000
v -0.04282700 -0.00442448 0.00465000
v -0.04644600 -0.00446428 0.00427000
v -0.03912000 -0.00364668 0.00522000
v -0.03912000 -0.00431248 0.00506000
v -0.03533100 -0.00350298 0.00564000
v -0.03533100 -0.00413928 0.00549000
v -0.04644600 -0.00312248 0.00458000
v -0.04282800 -0.00309558 0.00496000
v -0.03912000 -0.00301988 0.00536000
v -0.03533100 -0.00290288 0.00576000
v -0.04644600 -0.00250718 0.00470000
v -0.04282800 -0.00248588 0.00507000
v -0.03912000 -0.00242588 0.00547000
v -0.03533100 -0.00233328 0.00587000
v -0.04644600 -0.00192038 0.00480000
v -0.04282700 -0.00190428 0.00517000
v -0.03912000 -0.00185888 0.00556000
v -0.03533100 -0.00178878 0.00596000
v -0.04644600 -0.00135578 0.00487000
v -0.04282800 -0.00134458 0.00524000
v -0.03912000 -0.00131288 0.00563000
v -0.03533100 -0.00126378 0.00602000
v -0.04644600 -0.00080718 0.00492000
v -0.04282800 -0.00080048 0.00529000
v -0.03912000 -0.00078168 0.00567000
v -0.03533100 -0.00075268 0.00606000
v -0.04644600 -0.00026798 0.00494000
v -0.04282700 -0.00026578 0.00531000
v -0.03912000 -0.00025958 0.00570000
v -0.03533100 -0.00024998 0.00608000
v -0.04644600 0.00026802 0.00494000
v -0.04282700 0.00026582 0.00531000
v -0.03912000 0.00025962 0.00570000
v -0.03533100 0.00025002 0.00608000
v -0.04644600 0.00080712 0.00492000
v -0.04282800 0.00080052 0.00529000
v -0.03912000 0.00078172 0.00567000
v -0.03533100 0.00075272 0.00606000
v -0.04644600 0.00135582 0.00487000
v -0.04282800 0.00134452 0.00524000
v -0.03912000 0.00131282 0.00563000
v -0.03533100 0.00126382 0.00602000
v -0.04644600 0.00192042 0.00480000
v -0.04282800 0.00190422 0.00517000
v -0.03912000 0.00185892 0.00556000
v -0.03533100 0.00178882 0.00596000
v -0.04644600 0.00250712 0.00470000
v -0.04282800 0.00248582 0.00507000
v -0.03912000 0.00242592 0.00547000
v -0.03533100 0.00233332 0.00587000
v -0.04644600 0.00312252 0.00458000
v -0.04282700 0.00309562 0.00496000
v -0.03912000 0.00301982 0.00536000
v -0.03533100 0.00290282 0.00576000
v -0.04644600 0.00377272 0.00444000
v -0.04282800 0.00373972 0.00482000
v -0.03912000 0.00364672 0.00522000
v -0.03533100 0.00350302 0.00564000
v -0.04644600 0.00446432 0.00427000
v -0.04282800 0.00442452 0.00465000
v -0.03912000 0.00431242 0.00506000
v -0.03533100 0.00413932 0.00549000
v -0.04644600 -0.00463098 0.00247000
v -0.04282700 -0.00459238 0.00286000
v -0.04282700 -0.00442728 0.00288000
v -0.04644600 -0.00446428 0.00249000
v -0.03912000 -0.00448368 0.00330000
v -0.03912000 -0.00432328 0.00332000
v -0.03533100 -0.00431588 0.00378000
v -0.03533100 -0.00416248 0.00379000
v -0.04644600 -0.00477378 0.00250000
v -0.04282700 -0.00473368 0.00289000
v -0.03912000 -0.00462098 0.00333000
v -0.03533100 -0.00444658 0.00381000
v -0.04644600 -0.00489288 0.00257000
v -0.04282700 -0.00485148 0.00296000
v -0.03912100 -0.00473498 0.00340000
v -0.03533100 -0.00455498 0.00388000
v -0.04644600 -0.00498808 0.00267000
v -0.04282700 -0.00494558 0.00306000
v -0.03912100 -0.00482588 0.00350000
v -0.03533100 -0.00464088 0.00398000
v -0.04644600 -0.00505948 0.00280000
v -0.04282800 -0.00501608 0.00319000
v -0.03912100 -0.00489368 0.00363000
v -0.03533100 -0.00470468 0.00411000
v -0.04644600 -0.00510718 0.00296000
v -0.04282800 -0.00506288 0.00334000
v -0.03912100 -0.00493848 0.00378000
v -0.03533100 -0.00474618 0.00425000
v -0.04644600 -0.00513098 0.00312000
v -0.04282800 -0.00508618 0.00351000
v -0.03912100 -0.00496028 0.00395000
v -0.03533100 -0.00476568 0.00441000
v -0.04644600 -0.00513098 0.00330000
v -0.04282800 -0.00508588 0.00369000
v -0.03912100 -0.00495918 0.00412000
v -0.03533100 -0.00476328 0.00458000
v -0.04644600 -0.00510718 0.00348000
v -0.04282800 -0.00506208 0.00387000
v -0.03912100 -0.00493508 0.00430000
v -0.03533100 -0.00473888 0.00475000
v -0.04644600 -0.00505948 0.00366000
v -0.04282800 -0.00501458 0.00404000
v -0.03912100 -0.00488818 0.00447000
v -0.03533100 -0.00469278 0.00492000
v -0.04644600 -0.00498808 0.00383000
v -0.04282800 -0.00494358 0.00421000
v -0.03912100 -0.00481848 0.00463000
v -0.03533100 -0.00462508 0.00508000
v -0.04644600 -0.00489288 0.00398000
v -0.04282800 -0.00484908 0.00436000
v -0.03912100 -0.00472598 0.00478000
v -0.03533100 -0.00453578 0.00522000
v -0.04644600 -0.00477378 0.00411000
v -0.04282800 -0.00473108 0.00449000
v -0.03912100 -0.00461078 0.00490000
v -0.03533100 -0.00442488 0.00534000
v -0.04644600 -0.00463098 0.00421000
v -0.04282800 -0.00458948 0.00459000
v -0.03912100 -0.00447298 0.00500000
v -0.03533100 -0.00429278 0.00543000
v -0.04644600 0.00377272 0.00265000
v -0.04282700 0.00374252 0.00304000
v -0.04282800 0.00442732 0.00288000
v -0.04644600 0.00446432 0.00249000
v -0.03912000 0.00365732 0.00347000
v -0.03912000 0.00432332 0.00332000
v -0.03533100 0.00352572 0.00393000
v -0.03533100 0.00416252 0.00379000
v -0.04644600 0.00312252 0.00280000
v -0.04282800 0.00309822 0.00318000
v -0.03912000 0.00302992 0.00360000
v -0.03533100 0.00292432 0.00404000
v -0.04644600 0.00250712 0.00292000
v -0.04282800 0.00248822 0.00329000
v -0.03912100 0.00243502 0.00371000
v -0.03533100 0.00235282 0.00414000
v -0.04644600 0.00192042 0.00301000
v -0.04282800 0.00190632 0.00339000
v -0.03912100 0.00186682 0.00379000
v -0.03533100 0.00180572 0.00421000
v -0.04644600 0.00135582 0.00308000
v -0.04282800 0.00134622 0.00346000
v -0.03912100 0.00131922 0.00386000
v -0.03533100 0.00127762 0.00427000
v -0.04644600 0.00080712 0.00313000
v -0.04282800 0.00080172 0.00350000
v -0.03912100 0.00078652 0.00390000
v -0.03533100 0.00076292 0.00431000
v -0.04644600 0.00026802 0.00315000
v -0.04282800 0.00026652 0.00353000
v -0.03912100 0.00026252 0.00392000
v -0.03533100 0.00025632 0.00433000
v -0.04644600 -0.00026798 0.00315000
v -0.04282800 -0.00026548 0.00353000
v -0.03912100 -0.00025848 0.00393000
v -0.03533100 -0.00024768 0.00433000
v -0.04644600 -0.00080718 0.00313000
v -0.04282800 -0.00080068 0.00350000
v -0.03912100 -0.00078258 0.00390000
v -0.03533100 -0.00075458 0.00431000
v -0.04644600 -0.00135578 0.00308000
v -0.04282800 -0.00134528 0.00346000
v -0.03912100 -0.00131568 0.00386000
v -0.03533100 -0.00126988 0.00428000
v -0.04644600 -0.00192038 0.00301000
v -0.04282800 -0.00190548 0.00339000
v -0.03912100 -0.00186358 0.00380000
v -0.03533100 -0.00179888 0.00422000
v -0.04644600 -0.00250718 0.00292000
v -0.04282800 -0.00248758 0.00330000
v -0.03912100 -0.00243248 0.00371000
v -0.03533100 -0.00234728 0.00414000
v -0.04644600 -0.00312248 0.00280000
v -0.04282800 -0.00309768 0.00318000
v -0.03912100 -0.00302798 0.00360000
v -0.03533100 -0.00292028 0.00405000
v -0.04644600 -0.00377278 0.00265000
v -0.04282800 -0.00374218 0.00304000
v -0.03912100 -0.00365638 0.00347000
v -0.03533100 -0.00352358 0.00393000
v -0.04644600 0.00463092 0.00421000
v -0.04282800 0.00458952 0.00459000
v -0.03912100 0.00447292 0.00500000
v -0.03533100 0.00429272 0.00543000
v -0.04644600 0.00477382 0.00411000
v -0.04282800 0.00473102 0.00449000
v -0.03912100 0.00461072 0.00490000
v -0.03533100 0.00442482 0.00534000
v -0.04644600 0.00489282 0.00398000
v -0.04282800 0.00484912 0.00436000
v -0.03912100 0.00472582 0.00478000
v -0.03533100 0.00453542 0.00522000
v -0.04644600 0.00498812 0.00383000
v -0.04282800 0.00494352 0.00421000
v -0.03912100 0.00481822 0.00463000
v -0.03533100 0.00462462 0.00508000
v -0.04644600 0.00505952 0.00366000
v -0.04282800 0.00501452 0.00404000
v -0.03912100 0.00488792 0.00447000
v -0.03533100 0.00469222 0.00492000
v -0.04644600 0.00510712 0.00348000
v -0.04282800 0.00506192 0.00387000
v -0.03912100 0.00493472 0.00430000
v -0.03533100 0.00473812 0.00475000
v -0.04644600 0.00513092 0.00330000
v -0.04282800 0.00508582 0.00369000
v -0.03912100 0.00495872 0.00412000
v -0.03533100 0.00476222 0.00458000
v -0.04644600 0.00513092 0.00312000
v -0.04282800 0.00508602 0.00351000
v -0.03912100 0.00495972 0.00395000
v -0.03533100 0.00476452 0.00442000
v -0.04644600 0.00510712 0.00296000
v -0.04282800 0.00506282 0.00334000
v -0.03912100 0.00493792 0.00378000
v -0.03533100 0.00474492 0.00426000
v -0.04644600 0.00505952 0.00280000
v -0.04282800 0.00501592 0.00319000
v -0.03912100 0.00489312 0.00363000
v -0.03533100 0.00470332 0.00411000
v -0.04644600 0.00498812 0.00267000
v -0.04282800 0.00494542 0.00306000
v -0.03912100 0.00482532 0.00350000
v -0.03533100 0.00463972 0.00398000
v -0.04644600 0.00489282 0.00257000
v -0.04282800 0.00485132 0.00296000
v -0.03912100 0.00473442 0.00340000
v -0.03533100 0.00455382 0.00388000
v -0.04644600 0.00477382 0.00250000
v -0.04282800 0.00473362 0.00289000
v -0.03912100 0.00462052 0.00333000
v -0.03533100 0.00444572 0.00381000
v -0.04644600 0.00463092 0.00247000
v -0.04282800 0.00459232 0.00286000
v -0.03912100 0.00448352 0.00330000
v -0.03533100 0.00431532 0.00378000
f 1 4 3
f 1 3 2
f 2 3 6
f 2 6 5
f 5 6 8
f 5 8 7
f 9 1 2
f 9 2 10
f 10 2 5
f 10 5 11
f 11 5 7
f 11 7 12
f 13 9 10
f 13 10 14
f 14 10 11
f 14 11 15
f 15 11 12
f 15 12 16
f 17 13 14
f 17 14 18
f 18 14 15
f 18 15 19
f 19 15 16
f 19 16 20
f 21 17 18
f 21 18 22
f 22 18 19
f 22 19 23
f 23 19 20
f 23 20 24
f 25 21 22
f 25 22 26
f 26 22 23
f 26 23 27
f 27 23 24
f 27 24 28
f 29 25 26
f 29 26 30
f 30 26 27
f 30 27 31
f 31 27 28
f 31 28 32
f 33 29 30
f 33 30 34
f 34 30 31
f 34 31 35
f 35 31 32
f 35 32 36
f 37 33 34
f 37 34 38
f 38 34 35
f 38 35 39
f 39 35 36
f 39 36 40
f 41 37 38
f 41 38 42
f 42 38 39
f 42 39 43
f 43 39 40
f 43 40 44
f 45 41 42
f 45 42 46
f 46 42 43
f 46 43 47
f 47 43 44
f 47 44 48
f 49 45 46
f 49 46 50
f 50 46 47
f 50 47 51
f 51 47 48
f 51 48 52
f 53 49 50
f 53 50 54
f 54 50 51
f 54 51 55
f 55 51 52
f 55 52 56
f 57 53 54
f 57 54 58
f 58 54 55
f 58 55 59
f 59 55 56
f 59 56 60
f 61 57 58
f 61 58 62
f 62 58 59
f 62 59 63
f 63 59 60
f 63 60 64
f 65 68 67
f 65 67 66
f 66 67 70
f 66 70 69
f 69 70 72
f 69 72 71
f 73 65 66
f 73 66 74
f 74 66 69
f 74 69 75
f 75 69 71
f 75 71 76
f 77 73 74
f 77 74 78
f 78 74 75
f 78 75 79
f 79 75 76
f 79 76 80
f 81 77 78
f 81 78 82
f 82 78 79
f 82 79 83
f 83 79 80
f 83 80 84
f 85 81 82
f 85 82 86
f 86 82 83
f 86 83 87
f 87 83 84
f 87 84 88
f 89 85 86
f 89 86 90
f 90 86 87
f 90 87 91
f 91 87 88
f 91 88 92
f 93 89 90
f 93 90 94
f 94 90 91
f 94 91 95
f 95 91 92
f 95 92 96
f 97 93 94
f 97 94 98
f 98 94 95
f 98 95 99
f 99 95 96
f 99 96 100
f 101 97 98
f 101 98 102
f 102 98 99
f 102 99 103
f 103 99 100
f 103 100 104
f 105 101 102
f 105 102 106
f 106 102 103
f 106 103 107
f 107 103 104
f 107 104 108
f 109 105 106
f 109 106 110
f 110 106 107
f 110 107 111
f 111 107 108
f 111 108 112
f 113 109 110
f 113 110 114
f 114 110 111
f 114 111 115
f 115 111 112
f 115 112 116
f 117 113 114
f 117 114 118
f 118 114 115
f 118 115 119
f 119 115 116
f 119 116 120
f 121 117 118
f 121 118 122
f 122 118 119
f 122 119 123
f 123 119 120
f 123 120 124
f 4 121 122
f 4 122 3
f 3 122 123
f 3 123 6
f 6 123 124
f 6 124 8
f 125 128 127
f 125 127 126
f 126 127 130
f 126 130 129
f 129 130 132
f 129 132 131
f 133 125 126
f 133 126 134
f 134 126 129
f 134 129 135
f 135 129 131
f 135 131 136
f 137 133 134
f 137 134 138
f 138 134 135
f 138 135 139
f 139 135 136
f 139 136 140
f 141 137 138
f 141 138 142
f 142 138 139
f 142 139 143
f 143 139 140
f 143 140 144
f 145 141 142
f 145 142 146
f 146 142 143
f 146 143 147
f 147 143 144
f 147 144 148
f 149 145 146
f 149 146 150
f 150 146 147
f 150 147 151
f 151 147 148
f 151 148 152
f 153 149 150
f 153 150 154
f 154 150 151
f 154 151 155
f 155 151 152
f 155 152 156
f 157 153 154
f 157 154 158
f 158 154 155
f 158 155 159
f 159 155 156
f 159 156 160
f 161 157 158
f 161 158 162
f 162 158 159
f 162 159 163
f 163 159 160
f 163 160 164
f 165 161 162
f 165 162 166
f 166 162 163
f 166 163 167
f 167 163 164
f 167 164 168
f 169 165 166
f 169 166 170
f 170 166 167
f 170 167 171
f 171 167 168
f 171 168 172
f 173 169 170
f 173 170 174
f 174 170 171
f 174 171 175
f 175 171 172
f 175 172 176
f 177 173 174
f 177 174 178
f 178 174 175
f 178 175 179
f 179 175 176
f 179 176 180
f 181 177 178
f 181 178 182
f 182 178 179
f 182 179 183
f 183 179 180
f 183 180 184
f 68 181 182
f 68 182 67
f 67 182 183
f 67 183 70
f 70 183 184
f 70 184 72
f 185 61 62
f 185 62 186
f 186 62 63
f 186 63 187
f 187 63 64
f 187 64 188
f 189 185 186
f 189 186 190
f 190 186 187
f 190 187 191
f 191 187 188
f 191 188 192
f 193 189 190
f 193 190 194
f 194 190 191
f 194 191 195
f 195 191 192
f 195 192 196
f 197 193 194
f 197 194 198
f 198 194 195
f 198 195 199
f 199 195 196
f 199 196 200
f 201 197 198
f 201 198 202
f 202 198 199
f 202 199 203
f 203 199 200
f 203 200 204
f 205 201 202
f 205 202 206
f 206 202 203
f 206 203 207
f 207 203 204
f 207 204 208
f 209 205 206
f 209 206 210
f 210 206 207
f 210 207 211
f 211 207 208
f 211 208 212
f 213 209 210
f 213 210 214
f 214 210 211
f 214 211 215
f 215 211 212
f 215 212 216
f 217 213 214
f 217 214 218
f 218 214 215
f 218 215 219
f 219 215 216
f 219 216 220
f 221 217 218
f 221 218 222
f 222 218 219
f 222 219 223
f 223 219 220
f 223 220 224
f 225 221 222
f 225 222 226
f 226 222 223
f 226 223 227
f 227 223 224
f 227 224 228
f 229 225 226
f 229 226 230
f 230 226 227
f 230 227 231
f 231 227 228
f 231 228 232
f 233 229 230
f 233 230 234
f 234 230 231
f 234 231 235
f 235 231 232
f 235 232 236
f 237 233 234
f 237 234 238
f 238 234 235
f 238 235 239
f 239 235 236
f 239 236 240
f 128 237 238
f 128 238 127
f 127 238 239
f 127 239 130
f 130 239 240
f 130 240 132

