# https://github.com/mikedh/trimesh

o spoon_visual.obj
v -0.03146500 -0.00331778 0.00605000
v -0.03146500 -0.00391618 0.00591000
v -0.02752900 -0.00310028 0.00645000
v -0.02752900 -0.00365408 0.00632000
v -0.02353000 -0.00285968 0.00681000
v -0.02353000 -0.00336428 0.00670000
v -0.03146500 -0.00275198 0.00617000
v -0.02752900 -0.00257488 0.00655000
v -0.02353000 -0.00237908 0.00690000
v -0.03146500 -0.00221398 0.00627000
v -0.02752900 -0.00207378 0.00664000
v -0.02353000 -0.00191878 0.00698000
v -0.03146500 -0.00169848 0.00635000
v -0.02752900 -0.00159248 0.00671000
v -0.02353000 -0.00147518 0.00704000
v -0.03146500 -0.00120068 0.00640000
v -0.02752900 -0.00112648 0.00676000
v -0.02353000 -0.00104438 0.00709000
v -0.03146500 -0.00071538 0.00644000
v -0.02752900 -0.00067148 0.00680000
v -0.02353000 -0.00062298 0.00712000
v -0.03146500 -0.00023758 0.00646000
v -0.02752900 -0.00022308 0.00682000
v -0.02353000 -0.00020708 0.00713000
v -0.03146500 0.00023762 0.00646000
v -0.02752900 0.00022312 0.00682000
v -0.02353000 0.00020702 0.00713000
v -0.03146500 0.00071532 0.00644000
v -0.02752900 0.00067152 0.00680000
v -0.02353000 0.00062292 0.00712000
v -0.03146500 0.00120062 0.00640000
v -0.02752900 0.00112652 0.00676000
v -0.02353000 0.00104442 0.00709000
v -0.03146500 0.00169852 0.00635000
v -0.02752900 0.00159242 0.00671000
v -0.02353000 0.00147512 0.00704000
v -0.03146500 0.00221392 0.00627000
v -0.02752900 0.00207382 0.00664000
v -0.02353000 0.00191882 0.00698000
v -0.03146500 0.00275202 0.00617000
v -0.02752900 0.00257492 0.00655000
v -0.02353000 0.00237902 0.00690000
v -0.03146500 0.00331772 0.00605000
v -0.02752900 0.00310022 0.00645000
v -0.02353000 0.00285962 0.00681000
v -0.03146500 0.00391612 0.00591000
v -0.02752900 0.00365412 0.00632000
v -0.02353000 0.00336432 0.00670000
v -0.03146500 -0.00409948 0.00428000
v -0.03146500 -0.00395528 0.00428000
v -0.02752900 -0.00384538 0.00477000
v -0.02752900 -0.00371198 0.00477000
v -0.02353000 -0.00356438 0.00523000
v -0.02353000 -0.00344288 0.00523000
v -0.03146500 -0.00422198 0.00431000
v -0.02752900 -0.00395818 0.00480000
v -0.02353000 -0.00366638 0.00527000
v -0.03146500 -0.00432298 0.00438000
v -0.02752900 -0.00405048 0.00487000
v -0.02353000 -0.00374918 0.00534000
v -0.03146500 -0.00440258 0.00447000
v -0.02753000 -0.00412268 0.00496000
v -0.02353000 -0.00381308 0.00543000
v -0.03146500 -0.00446098 0.00460000
v -0.02753000 -0.00417488 0.00508000
v -0.02353000 -0.00385838 0.00554000
v -0.03146500 -0.00449838 0.00474000
v -0.02753000 -0.00420738 0.00522000
v -0.02353100 -0.00388548 0.00567000
v -0.03146500 -0.00451488 0.00489000
v -0.02753000 -0.00422048 0.00536000
v -0.02353100 -0.00389478 0.00581000
v -0.03146500 -0.00451078 0.00505000
v -0.02753000 -0.00421428 0.00552000
v -0.02353100 -0.00388638 0.00595000
v -0.03146500 -0.00448608 0.00522000
v -0.02753000 -0.00418918 0.00567000
v -0.02353100 -0.00386088 0.00610000
v -0.03146500 -0.00444108 0.00537000
v -0.02753000 -0.00414538 0.00582000
v -0.02353100 -0.00381838 0.00624000
v -0.03146500 -0.00437578 0.00552000
v -0.02753000 -0.00408308 0.00596000
v -0.02353100 -0.00375938 0.00637000
v -0.03146500 -0.00429048 0.00566000
v -0.02753000 -0.00400258 0.00609000
v -0.02353100 -0.00368408 0.00648000
v -0.03146500 -0.00418538 0.00577000
v -0.02753000 -0.00390408 0.00619000
v -0.02353100 -0.00359298 0.00658000
v -0.03146500 -0.00406048 0.00586000
v -0.02753000 -0.00378788 0.00627000
v -0.02353000 -0.00348628 0.00666000
v -0.03146500 0.00335612 0.00439000
v -0.03146500 0.00395532 0.00428000
v -0.02752900 0.00315702 0.00485000
v -0.02752900 0.00371202 0.00477000
v -0.02353000 0.00293672 0.00528000
v -0.02353000 0.00344282 0.00523000
v -0.03146500 0.00278832 0.00449000
v -0.02752900 0.00262852 0.00492000
v -0.02353000 0.00245182 0.00533000
v -0.03146500 0.00224682 0.00457000
v -0.02752900 0.00212242 0.00498000
v -0.02353000 0.00198482 0.00536000
v -0.03146500 0.00172702 0.00463000
v -0.02753000 0.00163452 0.00503000
v -0.02353000 0.00153232 0.00540000
v -0.03146500 0.00122382 0.00468000
v -0.02753000 0.00116072 0.00507000
v -0.02353000 0.00109102 0.00542000
v -0.03146500 0.00073262 0.00471000
v -0.02753000 0.00069692 0.00510000
v -0.02353100 0.00065752 0.00544000
v -0.03146500 0.00024832 0.00473000
v -0.02753000 0.00023892 0.00511000
v -0.02353100 0.00022852 0.00545000
v -0.03146500 -0.00023378 0.00473000
v -0.02753000 -0.00021738 0.00511000
v -0.02353100 -0.00019928 0.00546000
v -0.03146500 -0.00071848 0.00472000
v -0.02753000 -0.00067618 0.00510000
v -0.02353100 -0.00062928 0.00545000
v -0.03146500 -0.00121078 0.00469000
v -0.02753000 -0.00114148 0.00508000
v -0.02353100 -0.00106478 0.00544000
v -0.03146500 -0.00171548 0.00464000
v -0.02753000 -0.00161758 0.00505000
v -0.02353100 -0.00150928 0.00542000
v -0.03146500 -0.00223748 0.00458000
v -0.02753000 -0.00210858 0.00500000
v -0.02353100 -0.00196598 0.00539000
v -0.03146500 -0.00278148 0.00450000
v -0.02753000 -0.00261848 0.00494000
v -0.02353100 -0.00243818 0.00535000
v -0.03146500 -0.00335248 0.00440000
v -0.02753000 -0.00315158 0.00486000
v -0.02353000 -0.00292938 0.00529000
v -0.03146500 0.00406052 0.00586000
v -0.02753000 0.00378772 0.00627000
v -0.02353000 0.00348612 0.00666000
v -0.03146500 0.00418512 0.00577000
v -0.02753000 0.00390372 0.00619000
v -0.02353100 0.00359252 0.00658000
v -0.03146500 0.00429002 0.00566000
v -0.02753000 0.00400192 0.00609000
v -0.02353100 0.00368322 0.00649000
v -0.03146500 0.00437502 0.00553000
v -0.02753000 0.00408202 0.00596000
v -0.02353100 0.00375782 0.00637000
v -0.03146500 0.00443992 0.00538000
v -0.02753000 0.00414382 0.00582000
v -0.02353100 0.00381622 0.00624000
v -0.03146500 0.00448472 0.00522000
v -0.02753000 0.00418712 0.00567000
v -0.02353100 0.00385802 0.00610000
v -0.03146500 0.00450912 0.00506000
v -0.02753000 0.00421182 0.00552000
v -0.02353100 0.00388302 0.00596000
v -0.03146500 0.00451302 0.00490000
v -0.02753000 0.00421762 0.00537000
v -0.02353100 0.00389082 0.00582000
v -0.03146500 0.00449632 0.00474000
v -0.02753000 0.00420422 0.00522000
v -0.02353100 0.00388132 0.00568000
v -0.03146500 0.00445882 0.00460000
v -0.02753000 0.00417162 0.00509000
v -0.02353100 0.00385402 0.00555000
v -0.03146500 0.00440042 0.00448000
v -0.02753000 0.00411952 0.00497000
v -0.02353100 0.00380882 0.00544000
v -0.03146500 0.00432102 0.00438000
v -0.02753000 0.00404772 0.00487000
v -0.02353100 0.00374542 0.00534000
v -0.03146500 0.00422052 0.00431000
v -0.02753000 0.00395602 0.00480000
v -0.02353100 0.00366342 0.00528000
v -0.03146500 0.00409862 0.00428000
v -0.02753000 0.00384412 0.00477000
v -0.02353000 0.00356272 0.00524000
f 1 2 4
f 1 4 3
f 3 4 6
f 3 6 5
f 7 1 3
f 7 3 8
f 8 3 5
f 8 5 9
f 10 7 8
f 10 8 11
f 11 8 9
f 11 9 12
f 13 10 11
f 13 11 14
f 14 11 12
f 14 12 15
f 16 13 14
f 16 14 17
f 17 14 15
f 17 15 18
f 19 16 17
f 19 17 20
f 20 17 18
f 20 18 21
f 22 19 20
f 22 20 23
f 23 20 21
f 23 21 24
f 25 22 23
f 25 23 26
f 26 23 24
f 26 24 27
f 28 25 26
f 28 26 29
f 29 26 27
f 29 27 30
f 31 28 29
f 31 29 32
f 32 29 30
f 32 30 33
f 34 31 32
f 34 32 35
f 35 32 33
f 35 33 36
f 37 34 35
f 37 35 38
f 38 35 36
f 38 36 39
f 40 37 38
f 40 38 41
f 41 38 39
f 41 39 42
f 43 40 41
f 43 41 44
f 44 41 42
f 44 42 45
f 46 43 44
f 46 44 47
f 47 44 45
f 47 45 48
f 49 50 52
f 49 52 51
f 51 52 54
f 51 54 53
f 55 49 51
f 55 51 56
f 56 51 53
f 56 53 57
f 58 55 56
f 58 56 59
f 59 56 57
f 59 57 60
f 61 58 59
f 61 59 62
f 62 59 60
f 62 60 63
f 64 61 62
f 64 62 65
f 65 62 63
f 65 63 66
f 67 64 65
f 67 65 68
f 68 65 66
f 68 66 69
f 70 67 68
f 70 68 71
f 71 68 69
f 71 69 72
f 73 70 71
f 73 71 74
f 74 71 72
f 74 72 75
f 76 73 74
f 76 74 77
f 77 74 75
f 77 75 78
f 79 76 77
f 79 77 80
f 80 77 78
f 80 78 81
f 82 79 80
f 82 80 83
f 83 80 81
f 83 81 84
f 85 82 83
f 85 83 86
f 86 83 84
f 86 84 87
f 88 85 86
f 88 86 89
f 89 86 87
f 89 87 90
f 91 88 89
f 91 89 92
f 92 89 90
f 92 90 93
f 2 91 92
f 2 92 4
f 4 92 93
f 4 93 6
f 94 95 97
f 94 97 96
f 96 97 99
f 96 99 98
f 100 94 96
f 100 96 101
f 101 96 98
f 101 98 102
f 103 100 101
f 103 101 104
f 104 101 102
f 104 102 105
f 106 103 104
f 106 104 107
f 107 104 105
f 107 105 108
f 109 106 107
f 109 107 110
f 110 107 108
f 110 108 111
f 112 109 110
f 112 110 113
f 113 110 111
f 113 111 114
f 115 112 113
f 115 113 116
f 116 113 114
f 116 114 117
f 118 115 116
f 118 116 119
f 119 116 117
f 119 117 120
f 121 118 119
f 121 119 122
f 122 119 120
f 122 120 123
f 124 121 122
f 124 122 125
f 125 122 123
f 125 123 126
f 127 124 125
f 127 125 128
f 128 125 126
f 128 126 129
f 130 127 128
f 130 128 131
f 131 128 129
f 131 129 132
f 133 130 131
f 133 131 134
f 134 131 132
f 134 132 135
f 136 133 134
f 136 134 137
f 137 134 135
f 137 135 138
f 50 136 137
f 50 137 52
f 52 137 138
f 52 138 54
f 139 46 47
f 139 47 140
f 140 47 48
f 140 48 141
f 142 139 140
f 142 140 143
f 143 140 141
f 143 141 144
f 145 142 143
f 145 143 146
f 146 143 144
f 146 144 147
f 148 145 146
f 148 146 149
f 149 146 147
f 149 147 150
f 151 148 149
f 151 149 152
f 152 149 150
f 152 150 153
f 154 151 152
f 154 152 155
f 155 152 153
f 155 153 156
f 157 154 155
f 157 155 158
f 158 155 156
f 158 156 159
f 160 157 158
f 160 158 161
f 161 158 159
f 161 159 162
f 163 160 161
f 163 161 164
f 164 161 162
f 164 162 165
f 166 163 164
f 166 164 167
f 167 164 165
f 167 165 168
f 169 166 167
f 169 167 170
f 170 167 168
f 170 168 171
f 172 169 170
f 172 170 173
f 173 170 171
f 173 171 174
f 175 172 173
f 175 173 176
f 176 173 174
f 176 174 177
f 178 175 176
f 178 176 179
f 179 176 177
f 179 177 180
f 95 178 179
f 95 179 97
f 97 179 180
f 97 180 99

