# https://github.com/mikedh/trimesh

o spoon_visual.obj
v -0.02752900 -0.00310028 0.00645000
v -0.02752900 -0.00365408 0.00632000
v -0.02353000 -0.00285968 0.00681000
v -0.02353000 -0.00336428 0.00670000
v -0.01947400 -0.00260528 0.00712000
v -0.01947400 -0.00305778 0.00703000
v -0.01536700 -0.00234628 0.00737000
v -0.01536700 -0.00274578 0.00730000
v -0.02752900 -0.00257488 0.00655000
v -0.02353000 -0.00237908 0.00690000
v -0.01947400 -0.00217188 0.00720000
v -0.01536700 -0.00196108 0.00744000
v -0.02752900 -0.00207378 0.00664000
v -0.02353000 -0.00191878 0.00698000
v -0.01947400 -0.00175488 0.00727000
v -0.01536700 -0.00158798 0.00749000
v -0.02752900 -0.00159248 0.00671000
v -0.02353000 -0.00147518 0.00704000
v -0.01947400 -0.00135108 0.00732000
v -0.01536700 -0.00122478 0.00754000
v -0.02752900 -0.00112648 0.00676000
v -0.02353000 -0.00104438 0.00709000
v -0.01947400 -0.00095768 0.00736000
v -0.01536700 -0.00086938 0.00757000
v -0.02752900 -0.00067148 0.00680000
v -0.02353000 -0.00062298 0.00712000
v -0.01947400 -0.00057168 0.00739000
v -0.01536700 -0.00051938 0.00759000
v -0.02752900 -0.00022308 0.00682000
v -0.02353000 -0.00020708 0.00713000
v -0.01947400 -0.00019008 0.00740000
v -0.01536700 -0.00017278 0.00760000
v -0.02752900 0.00022312 0.00682000
v -0.02353000 0.00020702 0.00713000
v -0.01947400 0.00019002 0.00740000
v -0.01536700 0.00017282 0.00760000
v -0.02752900 0.00067152 0.00680000
v -0.02353000 0.00062292 0.00712000
v -0.01947400 0.00057162 0.00739000
v -0.01536700 0.00051942 0.00759000
v -0.02752900 0.00112652 0.00676000
v -0.02353000 0.00104442 0.00709000
v -0.01947400 0.00095772 0.00736000
v -0.01536700 0.00086932 0.00757000
v -0.02752900 0.00159242 0.00671000
v -0.02353000 0.00147512 0.00704000
v -0.01947400 0.00135112 0.00732000
v -0.01536700 0.00122482 0.00754000
v -0.02752900 0.00207382 0.00664000
v -0.02353000 0.00191882 0.00698000
v -0.01947400 0.00175482 0.00727000
v -0.01536700 0.00158792 0.00749000
v -0.02752900 0.00257492 0.00655000
v -0.02353000 0.00237902 0.00690000
v -0.01947400 0.00217192 0.00720000
v -0.01536700 0.00196102 0.00744000
v -0.02752900 0.00310022 0.00645000
v -0.02353000 0.00285962 0.00681000
v -0.01947400 0.00260522 0.00712000
v -0.01536700 0.00234622 0.00737000
v -0.02752900 0.00365412 0.00632000
v -0.02353000 0.00336432 0.00670000
v -0.01947400 0.00305782 0.00703000
v -0.01536700 0.00274582 0.00730000
v -0.02752900 -0.00384538 0.00477000
v -0.02752900 -0.00371198 0.00477000
v -0.02353000 -0.00356438 0.00523000
v -0.02353000 -0.00344288 0.00523000
v -0.01947400 -0.00326728 0.00566000
v -0.01947400 -0.00315828 0.00565000
v -0.01536700 -0.00296468 0.00602000
v -0.01536700 -0.00286848 0.00600000
v -0.02752900 -0.00395818 0.00480000
v -0.02353000 -0.00366638 0.00527000
v -0.01947400 -0.00335788 0.00570000
v -0.01536700 -0.00304368 0.00606000
v -0.02752900 -0.00405048 0.00487000
v -0.02353000 -0.00374918 0.00534000
v -0.01947400 -0.00343048 0.00576000
v -0.01536700 -0.00310608 0.00613000
v -0.02753000 -0.00412268 0.00496000
v -0.02353000 -0.00381308 0.00543000
v -0.01947400 -0.00348568 0.00585000
v -0.01536700 -0.00315238 0.00621000
v -0.02753000 -0.00417488 0.00508000
v -0.02353000 -0.00385838 0.00554000
v -0.01947400 -0.00352378 0.00596000
v -0.01536700 -0.00318298 0.00631000
v -0.02753000 -0.00420738 0.00522000
v -0.02353100 -0.00388548 0.00567000
v -0.01947400 -0.00354518 0.00608000
v -0.01536700 -0.00319858 0.00643000
v -0.02753000 -0.00422048 0.00536000
v -0.02353100 -0.00389478 0.00581000
v -0.01947400 -0.00355028 0.00621000
v -0.01536700 -0.00319958 0.00655000
v -0.02753000 -0.00421428 0.00552000
v -0.02353100 -0.00388638 0.00595000
v -0.01947400 -0.00353968 0.00634000
v -0.01536700 -0.00318658 0.00667000
v -0.02753000 -0.00418918 0.00567000
v -0.02353100 -0.00386088 0.00610000
v -0.01947400 -0.00351358 0.00648000
v -0.01536700 -0.00316008 0.00680000
v -0.02753000 -0.00414538 0.00582000
v -0.02353100 -0.00381838 0.00624000
v -0.01947400 -0.00347258 0.00661000
v -0.01536700 -0.00312048 0.00692000
v -0.02753000 -0.00408308 0.00596000
v -0.02353100 -0.00375938 0.00637000
v -0.01947400 -0.00341698 0.00673000
v -0.01536700 -0.00306848 0.00703000
v -0.02753000 -0.00400258 0.00609000
v -0.02353100 -0.00368408 0.00648000
v -0.01947400 -0.00334738 0.00684000
v -0.01536700 -0.00300448 0.00713000
v -0.02753000 -0.00390408 0.00619000
v -0.02353100 -0.00359298 0.00658000
v -0.01947400 -0.00326398 0.00693000
v -0.01536700 -0.00292898 0.00721000
v -0.02753000 -0.00378788 0.00627000
v -0.02353000 -0.00348628 0.00666000
v -0.01947400 -0.00316728 0.00699000
v -0.01536700 -0.00284258 0.00727000
v -0.02752900 0.00315702 0.00485000
v -0.02752900 0.00371202 0.00477000
v -0.02353000 0.00293672 0.00528000
v -0.02353000 0.00344282 0.00523000
v -0.01947400 0.00270382 0.00567000
v -0.01947400 0.00315832 0.00565000
v -0.01536700 0.00246662 0.00599000
v -0.01536700 0.00286852 0.00600000
v -0.02752900 0.00262852 0.00492000
v -0.02353000 0.00245182 0.00533000
v -0.01947400 0.00226492 0.00568000
v -0.01536700 0.00207472 0.00598000
v -0.02752900 0.00212242 0.00498000
v -0.02353000 0.00198482 0.00536000
v -0.01947400 0.00183922 0.00570000
v -0.01536700 0.00169102 0.00597000
v -0.02753000 0.00163452 0.00503000
v -0.02353000 0.00153232 0.00540000
v -0.01947400 0.00142412 0.00572000
v -0.01536700 0.00131402 0.00597000
v -0.02753000 0.00116072 0.00507000
v -0.02353000 0.00109102 0.00542000
v -0.01947400 0.00101722 0.00573000
v -0.01536700 0.00094202 0.00597000
v -0.02753000 0.00069692 0.00510000
v -0.02353100 0.00065752 0.00544000
v -0.01947400 0.00061582 0.00574000
v -0.01536700 0.00057342 0.00598000
v -0.02753000 0.00023892 0.00511000
v -0.02353100 0.00022852 0.00545000
v -0.01947400 0.00021752 0.00575000
v -0.01536700 0.00020642 0.00598000
v -0.02753000 -0.00021738 0.00511000
v -0.02353100 -0.00019928 0.00546000
v -0.01947400 -0.00018008 0.00575000
v -0.01536700 -0.00016058 0.00599000
v -0.02753000 -0.00067618 0.00510000
v -0.02353100 -0.00062928 0.00545000
v -0.01947400 -0.00057968 0.00576000
v -0.01536700 -0.00052928 0.00599000
v -0.02753000 -0.00114148 0.00508000
v -0.02353100 -0.00106478 0.00544000
v -0.01947400 -0.00098378 0.00575000
v -0.01536700 -0.00090118 0.00600000
v -0.02753000 -0.00161758 0.00505000
v -0.02353100 -0.00150928 0.00542000
v -0.01947400 -0.00139468 0.00574000
v -0.01536700 -0.00127808 0.00601000
v -0.02753000 -0.00210858 0.00500000
v -0.02353100 -0.00196598 0.00539000
v -0.01947400 -0.00181518 0.00573000
v -0.01536700 -0.00166168 0.00601000
v -0.02753000 -0.00261848 0.00494000
v -0.02353100 -0.00243818 0.00535000
v -0.01947400 -0.00224758 0.00571000
v -0.01536700 -0.00205348 0.00601000
v -0.02753000 -0.00315158 0.00486000
v -0.02353000 -0.00292938 0.00529000
v -0.01947400 -0.00269438 0.00568000
v -0.01536700 -0.00245518 0.00601000
v -0.02753000 0.00378772 0.00627000
v -0.02353000 0.00348612 0.00666000
v -0.01947400 0.00316712 0.00699000
v -0.01536700 0.00284242 0.00727000
v -0.02753000 0.00390372 0.00619000
v -0.02353100 0.00359252 0.00658000
v -0.01947400 0.00326342 0.00693000
v -0.01536700 0.00292832 0.00721000
v -0.02753000 0.00400192 0.00609000
v -0.02353100 0.00368322 0.00649000
v -0.01947500 0.00334612 0.00684000
v -0.01536800 0.00300302 0.00713000
v -0.02753000 0.00408202 0.00596000
v -0.02353100 0.00375782 0.00637000
v -0.01947500 0.00341502 0.00673000
v -0.01536800 0.00306612 0.00703000
v -0.02753000 0.00414382 0.00582000
v -0.02353100 0.00381622 0.00624000
v -0.01947500 0.00346982 0.00661000
v -0.01536800 0.00311712 0.00692000
v -0.02753000 0.00418712 0.00567000
v -0.02353100 0.00385802 0.00610000
v -0.01947500 0.00351002 0.00649000
v -0.01536800 0.00315562 0.00681000
v -0.02753000 0.00421182 0.00552000
v -0.02353100 0.00388302 0.00596000
v -0.01947500 0.00353532 0.00635000
v -0.01536800 0.00318132 0.00668000
v -0.02753000 0.00421762 0.00537000
v -0.02353100 0.00389082 0.00582000
v -0.01947500 0.00354532 0.00622000
v -0.01536800 0.00319352 0.00656000
v -0.02753000 0.00420422 0.00522000
v -0.02353100 0.00388132 0.00568000
v -0.01947500 0.00353972 0.00609000
v -0.01536800 0.00319202 0.00644000
v -0.02753000 0.00417162 0.00509000
v -0.02353100 0.00385402 0.00555000
v -0.01947500 0.00351822 0.00597000
v -0.01536800 0.00317622 0.00633000
v -0.02753000 0.00411952 0.00497000
v -0.02353100 0.00380882 0.00544000
v -0.01947500 0.00348032 0.00586000
v -0.01536800 0.00314582 0.00623000
v -0.02753000 0.00404772 0.00487000
v -0.02353100 0.00374542 0.00534000
v -0.01947500 0.00342572 0.00577000
v -0.01536800 0.00310022 0.00614000
v -0.02753000 0.00395602 0.00480000
v -0.02353100 0.00366342 0.00528000
v -0.01947400 0.00335412 0.00570000
v -0.01536700 0.00303912 0.00607000
v -0.02753000 0.00384412 0.00477000
v -0.02353000 0.00356272 0.00524000
v -0.01947400 0.00326502 0.00566000
v -0.01536700 0.00296202 0.00602000
f 1 2 4
f 1 4 3
f 3 4 6
f 3 6 5
f 5 6 8
f 5 8 7
f 9 1 3
f 9 3 10
f 10 3 5
f 10 5 11
f 11 5 7
f 11 7 12
f 13 9 10
f 13 10 14
f 14 10 11
f 14 11 15
f 15 11 12
f 15 12 16
f 17 13 14
f 17 14 18
f 18 14 15
f 18 15 19
f 19 15 16
f 19 16 20
f 21 17 18
f 21 18 22
f 22 18 19
f 22 19 23
f 23 19 20
f 23 20 24
f 25 21 22
f 25 22 26
f 26 22 23
f 26 23 27
f 27 23 24
f 27 24 28
f 29 25 26
f 29 26 30
f 30 26 27
f 30 27 31
f 31 27 28
f 31 28 32
f 33 29 30
f 33 30 34
f 34 30 31
f 34 31 35
f 35 31 32
f 35 32 36
f 37 33 34
f 37 34 38
f 38 34 35
f 38 35 39
f 39 35 36
f 39 36 40
f 41 37 38
f 41 38 42
f 42 38 39
f 42 39 43
f 43 39 40
f 43 40 44
f 45 41 42
f 45 42 46
f 46 42 43
f 46 43 47
f 47 43 44
f 47 44 48
f 49 45 46
f 49 46 50
f 50 46 47
f 50 47 51
f 51 47 48
f 51 48 52
f 53 49 50
f 53 50 54
f 54 50 51
f 54 51 55
f 55 51 52
f 55 52 56
f 57 53 54
f 57 54 58
f 58 54 55
f 58 55 59
f 59 55 56
f 59 56 60
f 61 57 58
f 61 58 62
f 62 58 59
f 62 59 63
f 63 59 60
f 63 60 64
f 65 66 68
f 65 68 67
f 67 68 70
f 67 70 69
f 69 70 72
f 69 72 71
f 73 65 67
f 73 67 74
f 74 67 69
f 74 69 75
f 75 69 71
f 75 71 76
f 77 73 74
f 77 74 78
f 78 74 75
f 78 75 79
f 79 75 76
f 79 76 80
f 81 77 78
f 81 78 82
f 82 78 79
f 82 79 83
f 83 79 80
f 83 80 84
f 85 81 82
f 85 82 86
f 86 82 83
f 86 83 87
f 87 83 84
f 87 84 88
f 89 85 86
f 89 86 90
f 90 86 87
f 90 87 91
f 91 87 88
f 91 88 92
f 93 89 90
f 93 90 94
f 94 90 91
f 94 91 95
f 95 91 92
f 95 92 96
f 97 93 94
f 97 94 98
f 98 94 95
f 98 95 99
f 99 95 96
f 99 96 100
f 101 97 98
f 101 98 102
f 102 98 99
f 102 99 103
f 103 99 100
f 103 100 104
f 105 101 102
f 105 102 106
f 106 102 103
f 106 103 107
f 107 103 104
f 107 104 108
f 109 105 106
f 109 106 110
f 110 106 107
f 110 107 111
f 111 107 108
f 111 108 112
f 113 109 110
f 113 110 114
f 114 110 111
f 114 111 115
f 115 111 112
f 115 112 116
f 117 113 114
f 117 114 118
f 118 114 115
f 118 115 119
f 119 115 116
f 119 116 120
f 121 117 118
f 121 118 122
f 122 118 119
f 122 119 123
f 123 119 120
f 123 120 124
f 2 121 122
f 2 122 4
f 4 122 123
f 4 123 6
f 6 123 124
f 6 124 8
f 125 126 128
f 125 128 127
f 127 128 130
f 127 130 129
f 129 130 132
f 129 132 131
f 133 125 127
f 133 127 134
f 134 127 129
f 134 129 135
f 135 129 131
f 135 131 136
f 137 133 134
f 137 134 138
f 138 134 135
f 138 135 139
f 139 135 136
f 139 136 140
f 141 137 138
f 141 138 142
f 142 138 139
f 142 139 143
f 143 139 140
f 143 140 144
f 145 141 142
f 145 142 146
f 146 142 143
f 146 143 147
f 147 143 144
f 147 144 148
f 149 145 146
f 149 146 150
f 150 146 147
f 150 147 151
f 151 147 148
f 151 148 152
f 153 149 150
f 153 150 154
f 154 150 151
f 154 151 155
f 155 151 152
f 155 152 156
f 157 153 154
f 157 154 158
f 158 154 155
f 158 155 159
f 159 155 156
f 159 156 160
f 161 157 158
f 161 158 162
f 162 158 159
f 162 159 163
f 163 159 160
f 163 160 164
f 165 161 162
f 165 162 166
f 166 162 163
f 166 163 167
f 167 163 164
f 167 164 168
f 169 165 166
f 169 166 170
f 170 166 167
f 170 167 171
f 171 167 168
f 171 168 172
f 173 169 170
f 173 170 174
f 174 170 171
f 174 171 175
f 175 171 172
f 175 172 176
f 177 173 174
f 177 174 178
f 178 174 175
f 178 175 179
f 179 175 176
f 179 176 180
f 181 177 178
f 181 178 182
f 182 178 179
f 182 179 183
f 183 179 180
f 183 180 184
f 66 181 182
f 66 182 68
f 68 182 183
f 68 183 70
f 70 183 184
f 70 184 72
f 185 61 62
f 185 62 186
f 186 62 63
f 186 63 187
f 187 63 64
f 187 64 188
f 189 185 186
f 189 186 190
f 190 186 187
f 190 187 191
f 191 187 188
f 191 188 192
f 193 189 190
f 193 190 194
f 194 190 191
f 194 191 195
f 195 191 192
f 195 192 196
f 197 193 194
f 197 194 198
f 198 194 195
f 198 195 199
f 199 195 196
f 199 196 200
f 201 197 198
f 201 198 202
f 202 198 199
f 202 199 203
f 203 199 200
f 203 200 204
f 205 201 202
f 205 202 206
f 206 202 203
f 206 203 207
f 207 203 204
f 207 204 208
f 209 205 206
f 209 206 210
f 210 206 207
f 210 207 211
f 211 207 208
f 211 208 212
f 213 209 210
f 213 210 214
f 214 210 211
f 214 211 215
f 215 211 212
f 215 212 216
f 217 213 214
f 217 214 218
f 218 214 215
f 218 215 219
f 219 215 216
f 219 216 220
f 221 217 218
f 221 218 222
f 222 218 219
f 222 219 223
f 223 219 220
f 223 220 224
f 225 221 222
f 225 222 226
f 226 222 223
f 226 223 227
f 227 223 224
f 227 224 228
f 229 225 226
f 229 226 230
f 230 226 227
f 230 227 231
f 231 227 228
f 231 228 232
f 233 229 230
f 233 230 234
f 234 230 231
f 234 231 235
f 235 231 232
f 235 232 236
f 237 233 234
f 237 234 238
f 238 234 235
f 238 235 239
f 239 235 236
f 239 236 240
f 126 237 238
f 126 238 128
f 128 238 239
f 128 239 130
f 130 239 240
f 130 240 132

