# https://github.com/mikedh/trimesh

o spoon_visual.obj
v 0.01426900 -0.00117878 0.00606000
v 0.01426900 -0.00133928 0.00606000
v 0.01426900 -0.00101048 0.00606000
v 0.01426900 -0.00083568 0.00606000
v 0.01426900 -0.00065548 0.00606000
v 0.01426900 -0.00047118 0.00606000
v 0.01426900 -0.00028388 0.00606000
v 0.01426900 -0.00009478 0.00606000
v 0.01426900 0.00009482 0.00606000
v 0.01426900 0.00028392 0.00606000
v 0.01426900 0.00047122 0.00606000
v 0.01426900 0.00065552 0.00606000
v 0.01426900 0.00083572 0.00606000
v 0.01426900 0.00101052 0.00606000
v 0.01426900 0.00117872 0.00606000
v 0.01426900 0.00133932 0.00606000
v 0.01426900 -0.00160098 0.00521000
v 0.01426900 -0.00156248 0.00517000
v 0.01426900 -0.00162778 0.00526000
v 0.01426900 -0.00164378 0.00532000
v 0.01426900 -0.00164988 0.00539000
v 0.01426900 -0.00164728 0.00547000
v 0.01426900 -0.00163658 0.00555000
v 0.01426900 -0.00161898 0.00563000
v 0.01426900 -0.00159528 0.00572000
v 0.01426900 -0.00156648 0.00579000
v 0.01426900 -0.00153358 0.00586000
v 0.01426900 -0.00149738 0.00593000
v 0.01426900 -0.00145898 0.00598000
v 0.01426900 -0.00141918 0.00602000
v 0.01426900 -0.00137898 0.00605000
v 0.01426900 0.00139762 0.00500000
v 0.01426900 0.00156252 0.00517000
v 0.01426900 0.00121712 0.00487000
v 0.01426900 0.00102312 0.00476000
v 0.01426900 0.00081782 0.00468000
v 0.01426900 0.00060342 0.00462000
v 0.01426900 0.00038212 0.00459000
v 0.01426900 0.00015592 0.00458000
v 0.01426900 -0.00007278 0.00459000
v 0.01426900 -0.00030178 0.00462000
v 0.01426900 -0.00052908 0.00467000
v 0.01426900 -0.00075248 0.00474000
v 0.01426900 -0.00096968 0.00482000
v 0.01426900 -0.00117848 0.00492000
v 0.01426900 -0.00137688 0.00504000
v 0.01426900 0.00137862 0.00605000
v 0.01426900 0.00141782 0.00603000
v 0.01426900 0.00145632 0.00599000
v 0.01426900 0.00149302 0.00594000
v 0.01426900 0.00152742 0.00588000
v 0.01426900 0.00155852 0.00581000
v 0.01426900 0.00158562 0.00573000
v 0.01426900 0.00160792 0.00566000
v 0.01426900 0.00162462 0.00558000
v 0.01426900 0.00163492 0.00550000
v 0.01426900 0.00163792 0.00542000
v 0.01426900 0.00163302 0.00534000
v 0.01426900 0.00161942 0.00528000
v 0.01426900 0.00159612 0.00522000
v 0.00144200 -0.00144848 0.00743000
v 0.00144200 -0.00166428 0.00742000
v 0.00570700 -0.00130478 0.00714000
v 0.00570700 -0.00149118 0.00713000
v 0.00998500 -0.00121178 0.00668000
v 0.00998500 -0.00137908 0.00668000
v 0.00144200 -0.00123008 0.00745000
v 0.00570700 -0.00111308 0.00714000
v 0.00998500 -0.00103738 0.00668000
v 0.00144200 -0.00100948 0.00746000
v 0.00570700 -0.00091688 0.00715000
v 0.00998500 -0.00085698 0.00669000
v 0.00144200 -0.00078708 0.00747000
v 0.00570700 -0.00071698 0.00715000
v 0.00998500 -0.00067158 0.00669000
v 0.00144200 -0.00056318 0.00748000
v 0.00570700 -0.00051418 0.00716000
v 0.00998500 -0.00048248 0.00669000
v 0.00144200 -0.00033828 0.00748000
v 0.00570700 -0.00030928 0.00716000
v 0.00998500 -0.00029058 0.00669000
v 0.00144200 -0.00011288 0.00749000
v 0.00570700 -0.00010328 0.00716000
v 0.00998500 -0.00009698 0.00669000
v 0.00144200 0.00011282 0.00749000
v 0.00570700 0.00010322 0.00716000
v 0.00998500 0.00009702 0.00669000
v 0.00144200 0.00033832 0.00748000
v 0.00570700 0.00030932 0.00716000
v 0.00998500 0.00029062 0.00669000
v 0.00144200 0.00056322 0.00748000
v 0.00570700 0.00051422 0.00716000
v 0.00998500 0.00048252 0.00669000
v 0.00144200 0.00078702 0.00747000
v 0.00570700 0.00071702 0.00715000
v 0.00998500 0.00067162 0.00669000
v 0.00144200 0.00100952 0.00746000
v 0.00570700 0.00091692 0.00715000
v 0.00998500 0.00085702 0.00669000
v 0.00144200 0.00123012 0.00745000
v 0.00570700 0.00111312 0.00714000
v 0.00998500 0.00103742 0.00668000
v 0.00144200 0.00144852 0.00743000
v 0.00570700 0.00130482 0.00714000
v 0.00998500 0.00121182 0.00668000
v 0.00144200 0.00166432 0.00742000
v 0.00570700 0.00149112 0.00713000
v 0.00998500 0.00137912 0.00668000
v 0.00144200 -0.00191608 0.00646000
v 0.00144200 -0.00186428 0.00643000
v 0.00570700 -0.00174818 0.00623000
v 0.00570700 -0.00170348 0.00619000
v 0.00998500 -0.00163958 0.00582000
v 0.00998500 -0.00159948 0.00578000
v 0.00144100 -0.00195488 0.00651000
v 0.00570700 -0.00178058 0.00628000
v 0.00998500 -0.00166778 0.00587000
v 0.00144100 -0.00198168 0.00658000
v 0.00570700 -0.00180158 0.00634000
v 0.00998500 -0.00168518 0.00593000
v 0.00144100 -0.00199708 0.00665000
v 0.00570700 -0.00181218 0.00642000
v 0.00998500 -0.00169248 0.00600000
v 0.00144100 -0.00200208 0.00674000
v 0.00570700 -0.00181308 0.00650000
v 0.00998500 -0.00169068 0.00608000
v 0.00144100 -0.00199758 0.00683000
v 0.00570700 -0.00180528 0.00658000
v 0.00998500 -0.00168078 0.00616000
v 0.00144100 -0.00198418 0.00692000
v 0.00570600 -0.00178968 0.00667000
v 0.00998500 -0.00166368 0.00625000
v 0.00144100 -0.00196298 0.00701000
v 0.00570600 -0.00176708 0.00675000
v 0.00998400 -0.00164038 0.00633000
v 0.00144100 -0.00193478 0.00710000
v 0.00570600 -0.00173858 0.00684000
v 0.00998400 -0.00161168 0.00641000
v 0.00144100 -0.00190028 0.00718000
v 0.00570600 -0.00170488 0.00691000
v 0.00998400 -0.00157848 0.00648000
v 0.00144100 -0.00186038 0.00725000
v 0.00570600 -0.00166698 0.00698000
v 0.00998400 -0.00154188 0.00655000
v 0.00144100 -0.00181608 0.00732000
v 0.00570600 -0.00162578 0.00704000
v 0.00998400 -0.00150268 0.00660000
v 0.00144100 -0.00176798 0.00737000
v 0.00570700 -0.00158218 0.00709000
v 0.00998500 -0.00146188 0.00664000
v 0.00144100 -0.00171718 0.00740000
v 0.00570700 -0.00153698 0.00712000
v 0.00998500 -0.00142038 0.00667000
v 0.00144200 0.00164472 0.00630000
v 0.00144200 0.00186432 0.00643000
v 0.00570700 0.00151312 0.00604000
v 0.00570700 0.00170352 0.00619000
v 0.00998500 0.00142792 0.00562000
v 0.00998500 0.00159952 0.00578000
v 0.00144100 0.00141532 0.00619000
v 0.00570700 0.00130972 0.00592000
v 0.00998500 0.00124142 0.00548000
v 0.00144100 0.00117752 0.00611000
v 0.00570700 0.00109522 0.00582000
v 0.00998500 0.00104202 0.00538000
v 0.00144100 0.00093252 0.00605000
v 0.00570700 0.00087142 0.00575000
v 0.00998500 0.00083192 0.00530000
v 0.00144100 0.00068172 0.00600000
v 0.00570700 0.00064002 0.00570000
v 0.00998500 0.00061302 0.00524000
v 0.00144100 0.00042632 0.00598000
v 0.00570700 0.00040272 0.00567000
v 0.00998500 0.00038752 0.00521000
v 0.00144100 0.00016762 0.00597000
v 0.00570600 0.00016142 0.00566000
v 0.00998500 0.00015742 0.00520000
v 0.00144100 -0.00009308 0.00598000
v 0.00570600 -0.00008218 0.00567000
v 0.00998400 -0.00007518 0.00521000
v 0.00144100 -0.00035438 0.00601000
v 0.00570600 -0.00032638 0.00570000
v 0.00998400 -0.00030828 0.00524000
v 0.00144100 -0.00061508 0.00605000
v 0.00570600 -0.00056928 0.00575000
v 0.00998400 -0.00053968 0.00529000
v 0.00144100 -0.00087388 0.00610000
v 0.00570600 -0.00080918 0.00581000
v 0.00998400 -0.00076738 0.00536000
v 0.00144100 -0.00112958 0.00617000
v 0.00570600 -0.00104438 0.00589000
v 0.00998400 -0.00098928 0.00544000
v 0.00144100 -0.00138068 0.00624000
v 0.00570700 -0.00127298 0.00598000
v 0.00998500 -0.00120328 0.00554000
v 0.00144100 -0.00162598 0.00633000
v 0.00570700 -0.00149328 0.00608000
v 0.00998500 -0.00140738 0.00565000
v 0.00144100 0.00171682 0.00740000
v 0.00570700 0.00153662 0.00712000
v 0.00998500 0.00142002 0.00667000
v 0.00144100 0.00176692 0.00737000
v 0.00570600 0.00158092 0.00709000
v 0.00998500 0.00146062 0.00665000
v 0.00144100 0.00181372 0.00732000
v 0.00570600 0.00162332 0.00705000
v 0.00998400 0.00150002 0.00661000
v 0.00144100 0.00185652 0.00726000
v 0.00570600 0.00166292 0.00699000
v 0.00998400 0.00153762 0.00655000
v 0.00144100 0.00189472 0.00719000
v 0.00570600 0.00169902 0.00692000
v 0.00998400 0.00157242 0.00649000
v 0.00144100 0.00192762 0.00711000
v 0.00570600 0.00173092 0.00685000
v 0.00998400 0.00160372 0.00642000
v 0.00144100 0.00195432 0.00702000
v 0.00570600 0.00175792 0.00677000
v 0.00998400 0.00163082 0.00635000
v 0.00144100 0.00197432 0.00694000
v 0.00570600 0.00177912 0.00669000
v 0.00998400 0.00165282 0.00627000
v 0.00144100 0.00198682 0.00685000
v 0.00570600 0.00179382 0.00660000
v 0.00998400 0.00166892 0.00619000
v 0.00144100 0.00199102 0.00676000
v 0.00570600 0.00180132 0.00652000
v 0.00998400 0.00167852 0.00611000
v 0.00144100 0.00198642 0.00668000
v 0.00570600 0.00180072 0.00644000
v 0.00998400 0.00168062 0.00603000
v 0.00144100 0.00197212 0.00660000
v 0.00570600 0.00179142 0.00636000
v 0.00998400 0.00167462 0.00595000
v 0.00144100 0.00194742 0.00653000
v 0.00570600 0.00177262 0.00630000
v 0.00998500 0.00165962 0.00589000
v 0.00144100 0.00191172 0.00647000
v 0.00570700 0.00174362 0.00624000
v 0.00998500 0.00163482 0.00583000
f 61 62 64
f 61 64 63
f 63 64 66
f 63 66 65
f 65 66 2
f 65 2 1
f 67 61 63
f 67 63 68
f 68 63 65
f 68 65 69
f 69 65 1
f 69 1 3
f 70 67 68
f 70 68 71
f 71 68 69
f 71 69 72
f 72 69 3
f 72 3 4
f 73 70 71
f 73 71 74
f 74 71 72
f 74 72 75
f 75 72 4
f 75 4 5
f 76 73 74
f 76 74 77
f 77 74 75
f 77 75 78
f 78 75 5
f 78 5 6
f 79 76 77
f 79 77 80
f 80 77 78
f 80 78 81
f 81 78 6
f 81 6 7
f 82 79 80
f 82 80 83
f 83 80 81
f 83 81 84
f 84 81 7
f 84 7 8
f 85 82 83
f 85 83 86
f 86 83 84
f 86 84 87
f 87 84 8
f 87 8 9
f 88 85 86
f 88 86 89
f 89 86 87
f 89 87 90
f 90 87 9
f 90 9 10
f 91 88 89
f 91 89 92
f 92 89 90
f 92 90 93
f 93 90 10
f 93 10 11
f 94 91 92
f 94 92 95
f 95 92 93
f 95 93 96
f 96 93 11
f 96 11 12
f 97 94 95
f 97 95 98
f 98 95 96
f 98 96 99
f 99 96 12
f 99 12 13
f 100 97 98
f 100 98 101
f 101 98 99
f 101 99 102
f 102 99 13
f 102 13 14
f 103 100 101
f 103 101 104
f 104 101 102
f 104 102 105
f 105 102 14
f 105 14 15
f 106 103 104
f 106 104 107
f 107 104 105
f 107 105 108
f 108 105 15
f 108 15 16
f 109 110 112
f 109 112 111
f 111 112 114
f 111 114 113
f 113 114 18
f 113 18 17
f 115 109 111
f 115 111 116
f 116 111 113
f 116 113 117
f 117 113 17
f 117 17 19
f 118 115 116
f 118 116 119
f 119 116 117
f 119 117 120
f 120 117 19
f 120 19 20
f 121 118 119
f 121 119 122
f 122 119 120
f 122 120 123
f 123 120 20
f 123 20 21
f 124 121 122
f 124 122 125
f 125 122 123
f 125 123 126
f 126 123 21
f 126 21 22
f 127 124 125
f 127 125 128
f 128 125 126
f 128 126 129
f 129 126 22
f 129 22 23
f 130 127 128
f 130 128 131
f 131 128 129
f 131 129 132
f 132 129 23
f 132 23 24
f 133 130 131
f 133 131 134
f 134 131 132
f 134 132 135
f 135 132 24
f 135 24 25
f 136 133 134
f 136 134 137
f 137 134 135
f 137 135 138
f 138 135 25
f 138 25 26
f 139 136 137
f 139 137 140
f 140 137 138
f 140 138 141
f 141 138 26
f 141 26 27
f 142 139 140
f 142 140 143
f 143 140 141
f 143 141 144
f 144 141 27
f 144 27 28
f 145 142 143
f 145 143 146
f 146 143 144
f 146 144 147
f 147 144 28
f 147 28 29
f 148 145 146
f 148 146 149
f 149 146 147
f 149 147 150
f 150 147 29
f 150 29 30
f 151 148 149
f 151 149 152
f 152 149 150
f 152 150 153
f 153 150 30
f 153 30 31
f 62 151 152
f 62 152 64
f 64 152 153
f 64 153 66
f 66 153 31
f 66 31 2
f 154 155 157
f 154 157 156
f 156 157 159
f 156 159 158
f 158 159 33
f 158 33 32
f 160 154 156
f 160 156 161
f 161 156 158
f 161 158 162
f 162 158 32
f 162 32 34
f 163 160 161
f 163 161 164
f 164 161 162
f 164 162 165
f 165 162 34
f 165 34 35
f 166 163 164
f 166 164 167
f 167 164 165
f 167 165 168
f 168 165 35
f 168 35 36
f 169 166 167
f 169 167 170
f 170 167 168
f 170 168 171
f 171 168 36
f 171 36 37
f 172 169 170
f 172 170 173
f 173 170 171
f 173 171 174
f 174 171 37
f 174 37 38
f 175 172 173
f 175 173 176
f 176 173 174
f 176 174 177
f 177 174 38
f 177 38 39
f 178 175 176
f 178 176 179
f 179 176 177
f 179 177 180
f 180 177 39
f 180 39 40
f 181 178 179
f 181 179 182
f 182 179 180
f 182 180 183
f 183 180 40
f 183 40 41
f 184 181 182
f 184 182 185
f 185 182 183
f 185 183 186
f 186 183 41
f 186 41 42
f 187 184 185
f 187 185 188
f 188 185 186
f 188 186 189
f 189 186 42
f 189 42 43
f 190 187 188
f 190 188 191
f 191 188 189
f 191 189 192
f 192 189 43
f 192 43 44
f 193 190 191
f 193 191 194
f 194 191 192
f 194 192 195
f 195 192 44
f 195 44 45
f 196 193 194
f 196 194 197
f 197 194 195
f 197 195 198
f 198 195 45
f 198 45 46
f 110 196 197
f 110 197 112
f 112 197 198
f 112 198 114
f 114 198 46
f 114 46 18
f 199 106 107
f 199 107 200
f 200 107 108
f 200 108 201
f 201 108 16
f 201 16 47
f 202 199 200
f 202 200 203
f 203 200 201
f 203 201 204
f 204 201 47
f 204 47 48
f 205 202 203
f 205 203 206
f 206 203 204
f 206 204 207
f 207 204 48
f 207 48 49
f 208 205 206
f 208 206 209
f 209 206 207
f 209 207 210
f 210 207 49
f 210 49 50
f 211 208 209
f 211 209 212
f 212 209 210
f 212 210 213
f 213 210 50
f 213 50 51
f 214 211 212
f 214 212 215
f 215 212 213
f 215 213 216
f 216 213 51
f 216 51 52
f 217 214 215
f 217 215 218
f 218 215 216
f 218 216 219
f 219 216 52
f 219 52 53
f 220 217 218
f 220 218 221
f 221 218 219
f 221 219 222
f 222 219 53
f 222 53 54
f 223 220 221
f 223 221 224
f 224 221 222
f 224 222 225
f 225 222 54
f 225 54 55
f 226 223 224
f 226 224 227
f 227 224 225
f 227 225 228
f 228 225 55
f 228 55 56
f 229 226 227
f 229 227 230
f 230 227 228
f 230 228 231
f 231 228 56
f 231 56 57
f 232 229 230
f 232 230 233
f 233 230 231
f 233 231 234
f 234 231 57
f 234 57 58
f 235 232 233
f 235 233 236
f 236 233 234
f 236 234 237
f 237 234 58
f 237 58 59
f 238 235 236
f 238 236 239
f 239 236 237
f 239 237 240
f 240 237 59
f 240 59 60
f 155 238 239
f 155 239 157
f 157 239 240
f 157 240 159
f 159 240 60
f 159 60 33

